STARTFONT 2.1
COMMENT
COMMENT Converted from OpenType font "JF-Dot-jiskan24h.ttf" by "otf2bdf 3.0".
COMMENT
FONT -FreeType-JF Dot jiskan24h-Medium-R-Normal--32-320-72-72-P-310-ISO10646-1
SIZE 32 72 72
FONTBOUNDINGBOX 32 33 0 -5
STARTPROPERTIES 19
FOUNDRY "FreeType"
FAMILY_NAME "JF Dot jiskan24h"
WEIGHT_NAME "Medium"
SLANT "R"
SETWIDTH_NAME "Normal"
ADD_STYLE_NAME ""
PIXEL_SIZE 32
POINT_SIZE 320
RESOLUTION_X 72
RESOLUTION_Y 72
SPACING "P"
AVERAGE_WIDTH 310
CHARSET_REGISTRY "ISO10646"
CHARSET_ENCODING "1"
FONT_ASCENT 27
FONT_DESCENT 4
COPYRIGHT "[JÒ‡W åÔ724] Copyright (c) Keitarou Hiraki, Font Silo. 1990-2015"
_OTF_FONTFILE "JF-Dot-jiskan24h.ttf"
_OTF_PSNAME "JF-Dot-jiskan24h"
ENDPROPERTIES
CHARS 11082
STARTCHAR 0020
ENCODING 32
SWIDTH 500 0
DWIDTH 16 0
BBX 0 0 0 0
BITMAP
ENDCHAR
STARTCHAR 0021
ENCODING 33
SWIDTH 500 0
DWIDTH 16 0
BBX 6 26 5 -1
BITMAP
30
30
30
30
30
30
30
30
30
30
30
30
30
30
30
30
30
30
00
00
00
30
30
FC
30
30
ENDCHAR
STARTCHAR 0022
ENCODING 34
SWIDTH 500 0
DWIDTH 16 0
BBX 12 9 1 17
BITMAP
1020
3CF0
3CF0
3CF0
1C30
1020
30E0
20C0
C100
ENDCHAR
STARTCHAR 0023
ENCODING 35
SWIDTH 500 0
DWIDTH 16 0
BBX 14 25 1 -1
BITMAP
1CE0
1CE0
1CE0
1CE0
1CE0
1CE0
1CFC
1FFC
FFFC
FFE0
FCE0
1CE0
1CE0
1CE0
1CFC
1FFC
FFFC
FFE0
FCE0
1CE0
1CE0
1CE0
1CE0
1CE0
1CE0
ENDCHAR
STARTCHAR 0024
ENCODING 36
SWIDTH 500 0
DWIDTH 16 0
BBX 14 29 1 -3
BITMAP
0200
0200
0200
0200
1FE0
3230
F230
E230
E200
E200
F200
3200
3F00
0FE0
0FF0
02F0
021C
021C
021C
021C
021C
E230
F2F0
F2E0
1F00
0200
0200
0200
0200
ENDCHAR
STARTCHAR 0025
ENCODING 37
SWIDTH 500 0
DWIDTH 16 0
BBX 14 21 1 1
BITMAP
3C1C
E230
E230
E230
CEE0
CEE0
FFE0
3DC0
01C0
0300
0300
0300
0E00
0EF0
1FFC
1DCC
1DCC
311C
311C
311C
E0F0
ENDCHAR
STARTCHAR 0026
ENCODING 38
SWIDTH 500 0
DWIDTH 16 0
BBX 16 25 0 -1
BITMAP
0F00
0F00
1080
70E0
70E0
70E0
70E0
18E0
19E0
1980
0F00
0E7E
1E7E
1E08
7708
6708
E798
E190
E190
E0E0
E0E0
E0E0
7771
1E1E
1E1E
ENDCHAR
STARTCHAR 0027
ENCODING 39
SWIDTH 500 0
DWIDTH 16 0
BBX 5 9 4 17
BITMAP
10
78
78
78
18
10
70
60
80
ENDCHAR
STARTCHAR 0028
ENCODING 40
SWIDTH 500 0
DWIDTH 16 0
BBX 8 28 5 -2
BITMAP
01
02
0E
0C
1C
10
30
30
30
30
F0
E0
E0
E0
E0
E0
E0
20
30
30
30
10
1C
1C
0C
02
03
01
ENDCHAR
STARTCHAR 0029
ENCODING 41
SWIDTH 500 0
DWIDTH 16 0
BBX 8 28 3 -2
BITMAP
80
40
70
30
38
08
0C
0C
0C
0C
0F
07
07
07
07
07
07
04
0C
0C
0C
08
38
38
30
40
C0
80
ENDCHAR
STARTCHAR 002A
ENCODING 42
SWIDTH 500 0
DWIDTH 16 0
BBX 14 19 1 2
BITMAP
0300
0300
0300
0300
E31C
F33C
F33C
3330
0FC0
0FC0
0FC0
3330
F33C
F33C
E31C
0300
0300
0300
0300
ENDCHAR
STARTCHAR 002B
ENCODING 43
SWIDTH 500 0
DWIDTH 16 0
BBX 14 13 1 5
BITMAP
0300
0300
0300
0300
0300
FFFC
FFFC
FFFC
0300
0300
0300
0300
0300
ENDCHAR
STARTCHAR 002C
ENCODING 44
SWIDTH 500 0
DWIDTH 16 0
BBX 5 9 3 -3
BITMAP
30
78
78
78
38
30
70
40
80
ENDCHAR
STARTCHAR 002D
ENCODING 45
SWIDTH 500 0
DWIDTH 16 0
BBX 10 3 3 10
BITMAP
FFC0
FFC0
FFC0
ENDCHAR
STARTCHAR 002E
ENCODING 46
SWIDTH 500 0
DWIDTH 16 0
BBX 4 6 3 -1
BITMAP
40
F0
F0
F0
40
40
ENDCHAR
STARTCHAR 002F
ENCODING 47
SWIDTH 500 0
DWIDTH 16 0
BBX 14 29 1 -3
BITMAP
000C
000C
001C
0010
0010
0020
0020
0020
00C0
00C0
00C0
00C0
0100
0100
0300
0200
0200
0C00
0C00
0C00
1000
1000
1000
1000
2000
2000
E000
C000
C000
ENDCHAR
STARTCHAR 0030
ENCODING 48
SWIDTH 500 0
DWIDTH 16 0
BBX 14 25 1 -1
BITMAP
0FC0
0FC0
3030
2010
E01C
E01C
E01C
E01C
E01C
E01C
E01C
E01C
E01C
E01C
E01C
E01C
E01C
E01C
E01C
E01C
E01C
2010
3030
0FC0
0FC0
ENDCHAR
STARTCHAR 0031
ENCODING 49
SWIDTH 500 0
DWIDTH 16 0
BBX 9 25 3 -1
BITMAP
0400
0400
0C00
3C00
FC00
FC00
0C00
0C00
0C00
0C00
0C00
0C00
0C00
0C00
0C00
0C00
0C00
0C00
0C00
0C00
0C00
0C00
0C00
7F80
7F80
ENDCHAR
STARTCHAR 0032
ENCODING 50
SWIDTH 500 0
DWIDTH 16 0
BBX 14 25 1 -1
BITMAP
0FC0
0FC0
3030
2010
E01C
E01C
E01C
001C
003C
0030
0030
00E0
03E0
03C0
0E00
1C00
1C00
1000
2000
200C
E00C
C00C
FFFC
FFFC
FFFC
ENDCHAR
STARTCHAR 0033
ENCODING 51
SWIDTH 500 0
DWIDTH 16 0
BBX 14 25 1 -1
BITMAP
0FC0
0FC0
3030
2010
E01C
E01C
E01C
001C
001C
0010
0020
1FC0
1FF0
0030
001C
001C
001C
001C
E01C
E01C
E01C
E010
3030
1FC0
1FC0
ENDCHAR
STARTCHAR 0034
ENCODING 52
SWIDTH 500 0
DWIDTH 16 0
BBX 14 25 1 -1
BITMAP
01E0
01E0
01E0
02E0
02E0
02E0
0CE0
0CE0
0CE0
0CE0
10E0
10E0
30E0
20E0
20E0
C0E0
C0E0
C0E0
FFFC
00E0
00E0
00E0
00E0
01F0
01F0
ENDCHAR
STARTCHAR 0035
ENCODING 53
SWIDTH 500 0
DWIDTH 16 0
BBX 14 25 1 -1
BITMAP
3FF0
3FF0
3FF0
2000
2000
2000
2000
2000
2FC0
2FC0
3030
2010
201C
001C
001C
001C
E01C
E01C
E01C
E01C
E01C
2010
3030
0FC0
0FC0
ENDCHAR
STARTCHAR 0036
ENCODING 54
SWIDTH 500 0
DWIDTH 16 0
BBX 14 25 1 -1
BITMAP
0FC0
0FC0
3030
201C
E01C
E01C
E000
E000
E000
E000
EFC0
F030
F030
E010
E01C
E01C
E01C
E01C
E01C
E01C
E01C
2010
3030
0FC0
0FC0
ENDCHAR
STARTCHAR 0037
ENCODING 55
SWIDTH 500 0
DWIDTH 16 0
BBX 14 25 1 -1
BITMAP
FFFC
FFFC
FFFC
C010
C010
C010
0020
0020
00E0
00C0
00C0
01C0
01C0
0100
0100
0300
0300
0300
0200
0E00
0E00
0E00
0E00
0E00
0E00
ENDCHAR
STARTCHAR 0038
ENCODING 56
SWIDTH 500 0
DWIDTH 16 0
BBX 14 25 1 -1
BITMAP
0FC0
0FC0
3030
2010
E01C
E01C
E01C
E01C
E01C
2010
3030
1FE0
1FE0
1020
2010
E01C
E01C
E01C
E01C
E01C
E01C
2010
3030
0FC0
0FC0
ENDCHAR
STARTCHAR 0039
ENCODING 57
SWIDTH 500 0
DWIDTH 16 0
BBX 14 25 1 -1
BITMAP
0FC0
0FC0
3030
2010
E01C
E01C
E01C
E01C
E01C
E01C
E01C
201C
303C
303C
0FDC
001C
001C
001C
001C
E01C
E01C
E010
3030
0FC0
0FC0
ENDCHAR
STARTCHAR 003A
ENCODING 58
SWIDTH 500 0
DWIDTH 16 0
BBX 4 19 5 2
BITMAP
20
F0
F0
F0
20
20
00
00
00
00
00
00
00
20
20
F0
F0
F0
20
ENDCHAR
STARTCHAR 003B
ENCODING 59
SWIDTH 500 0
DWIDTH 16 0
BBX 5 22 4 -1
BITMAP
10
78
78
78
10
10
00
00
00
00
00
00
10
78
78
78
18
18
10
60
80
80
ENDCHAR
STARTCHAR 003C
ENCODING 60
SWIDTH 500 0
DWIDTH 16 0
BBX 12 25 1 -1
BITMAP
0010
0010
0030
00E0
01E0
01C0
0300
0E00
1E00
1C00
3000
E000
E000
E000
3000
1C00
1E00
0E00
0300
01C0
01E0
00E0
0030
0010
0010
ENDCHAR
STARTCHAR 003D
ENCODING 61
SWIDTH 500 0
DWIDTH 16 0
BBX 14 11 1 6
BITMAP
FFFC
FFFC
FFFC
0000
0000
0000
0000
0000
FFFC
FFFC
FFFC
ENDCHAR
STARTCHAR 003E
ENCODING 62
SWIDTH 500 0
DWIDTH 16 0
BBX 12 25 1 -1
BITMAP
C000
C000
E000
3000
3C00
1C00
0E00
0300
03C0
01C0
00E0
0030
0030
0030
00E0
01C0
03C0
0300
0E00
1C00
3C00
3000
E000
C000
C000
ENDCHAR
STARTCHAR 003F
ENCODING 63
SWIDTH 500 0
DWIDTH 16 0
BBX 14 25 1 -1
BITMAP
0FC0
0FC0
3030
2010
E01C
E01C
E01C
001C
001C
001C
0030
00F0
03F0
03C0
0200
0200
0200
0000
0000
0200
0F00
0F00
0F00
0200
0200
ENDCHAR
STARTCHAR 0040
ENCODING 64
SWIDTH 500 0
DWIDTH 16 0
BBX 15 25 0 -1
BITMAP
0780
0780
1870
7018
7018
7018
E0EE
E7EE
EFEE
EEEE
EEEE
EEEE
EEEE
EEEE
EEEE
EEEE
EEFE
E6F8
E780
7006
700E
7008
1870
07E0
07E0
ENDCHAR
STARTCHAR 0041
ENCODING 65
SWIDTH 500 0
DWIDTH 16 0
BBX 14 25 1 -1
BITMAP
0300
0300
0300
0300
0300
0300
0DC0
0DC0
0DC0
0DC0
0DC0
10E0
10E0
10E0
10E0
1FE0
1FE0
10E0
2030
2030
2030
2030
2030
FCFC
FCFC
ENDCHAR
STARTCHAR 0042
ENCODING 66
SWIDTH 500 0
DWIDTH 16 0
BBX 14 25 1 -1
BITMAP
FFC0
FFC0
3020
3030
3030
3030
3030
3030
30F0
30E0
3FC0
3020
3030
3030
301C
301C
301C
301C
301C
301C
301C
3010
3030
FFC0
FFC0
ENDCHAR
STARTCHAR 0043
ENCODING 67
SWIDTH 500 0
DWIDTH 16 0
BBX 14 25 1 -1
BITMAP
03CC
03CC
1C3C
301C
301C
300C
E00C
E000
E000
E000
E000
E000
E000
E000
E000
E000
E00C
E00C
E00C
3010
3010
3010
1CE0
03C0
03C0
ENDCHAR
STARTCHAR 0044
ENCODING 68
SWIDTH 500 0
DWIDTH 16 0
BBX 15 25 0 -1
BITMAP
FF80
FF80
7070
7018
7018
7018
700E
700E
700E
700E
700E
700E
700E
700E
700E
700E
700E
700E
700E
7018
7018
7018
7070
FF80
FF80
ENDCHAR
STARTCHAR 0045
ENCODING 69
SWIDTH 500 0
DWIDTH 16 0
BBX 14 25 1 -1
BITMAP
FFF0
FFF0
3010
3010
301C
300C
3000
3020
3020
3020
3FE0
3020
3020
3020
3000
3000
3000
3000
3000
300C
301C
3010
3010
FFF0
FFF0
ENDCHAR
STARTCHAR 0046
ENCODING 70
SWIDTH 500 0
DWIDTH 16 0
BBX 14 25 1 -1
BITMAP
FFF0
FFF0
3010
3010
301C
300C
3000
3020
3020
3020
3FE0
3020
3020
3020
3000
3000
3000
3000
3000
3000
3000
3000
3000
FE00
FE00
ENDCHAR
STARTCHAR 0047
ENCODING 71
SWIDTH 500 0
DWIDTH 16 0
BBX 15 25 1 -1
BITMAP
0FCC
0FCC
1C3C
301C
301C
300C
E00C
E000
E000
E000
E000
E3FE
E3FE
E01C
E01C
E01C
E01C
E01C
E01C
301C
303C
303C
1DCC
0F0C
0F0C
ENDCHAR
STARTCHAR 0048
ENCODING 72
SWIDTH 500 0
DWIDTH 16 0
BBX 16 25 0 -1
BITMAP
F81F
F81F
700E
700E
700E
700E
700E
700E
700E
700E
7FFE
700E
700E
700E
700E
700E
700E
700E
700E
700E
700E
700E
700E
F81F
F81F
ENDCHAR
STARTCHAR 0049
ENCODING 73
SWIDTH 500 0
DWIDTH 16 0
BBX 8 25 4 -1
BITMAP
FF
FF
18
18
18
18
18
18
18
18
18
18
18
18
18
18
18
18
18
18
18
18
18
FF
FF
ENDCHAR
STARTCHAR 004A
ENCODING 74
SWIDTH 500 0
DWIDTH 16 0
BBX 12 27 1 -3
BITMAP
03F0
03F0
00E0
00E0
00E0
00E0
00E0
00E0
00E0
00E0
00E0
00E0
00E0
00E0
00E0
00E0
00E0
00E0
00E0
00E0
30E0
30E0
F0E0
E0E0
E1E0
21C0
1F00
ENDCHAR
STARTCHAR 004B
ENCODING 75
SWIDTH 500 0
DWIDTH 16 0
BBX 15 25 0 -1
BITMAP
F81E
F81E
7008
7010
7010
7010
7060
7080
7080
7080
7100
7780
7F80
7980
70E0
70E0
70E0
70E0
7070
7070
7078
7018
7018
F87E
F87E
ENDCHAR
STARTCHAR 004C
ENCODING 76
SWIDTH 500 0
DWIDTH 16 0
BBX 14 25 1 -1
BITMAP
FE00
FE00
3000
3000
3000
3000
3000
3000
3000
3000
3000
3000
3000
3000
3000
3000
3000
3000
3000
300C
301C
3010
3010
FFF0
FFF0
ENDCHAR
STARTCHAR 004D
ENCODING 77
SWIDTH 500 0
DWIDTH 16 0
BBX 16 25 0 -1
BITMAP
E00F
E00F
700E
701E
701E
701E
781E
786E
786E
786E
6E6E
6E8E
6E8E
6E8E
6E8E
670E
670E
670E
670E
610E
610E
600E
600E
F01F
F01F
ENDCHAR
STARTCHAR 004E
ENCODING 78
SWIDTH 500 0
DWIDTH 16 0
BBX 16 25 0 -1
BITMAP
F00F
F00F
7006
7806
7806
6806
6E06
6E06
6F06
6706
6706
6186
6186
6186
60E6
60E6
60F6
6076
6076
6016
601E
601E
600E
F00E
F00E
ENDCHAR
STARTCHAR 004F
ENCODING 79
SWIDTH 500 0
DWIDTH 16 0
BBX 14 25 1 -1
BITMAP
0FC0
0FC0
1020
3030
3030
2010
E01C
E01C
E01C
E01C
E01C
E01C
E01C
E01C
E01C
E01C
E01C
E01C
E01C
2010
3030
3030
1020
0FC0
0FC0
ENDCHAR
STARTCHAR 0050
ENCODING 80
SWIDTH 500 0
DWIDTH 16 0
BBX 14 25 1 -1
BITMAP
FFC0
FFC0
3030
3010
301C
301C
301C
301C
301C
301C
3010
3030
3FF0
3FC0
3000
3000
3000
3000
3000
3000
3000
3000
3000
FC00
FC00
ENDCHAR
STARTCHAR 0051
ENCODING 81
SWIDTH 500 0
DWIDTH 16 0
BBX 14 27 1 -3
BITMAP
0FC0
0FC0
1020
3030
3030
2010
E01C
E01C
E01C
E01C
E01C
E01C
E01C
E01C
E01C
E01C
E01C
E01C
E01C
2F10
3F30
3130
10E0
0FC0
0FFC
003C
001C
ENDCHAR
STARTCHAR 0052
ENCODING 82
SWIDTH 500 0
DWIDTH 16 0
BBX 15 25 0 -1
BITMAP
FFE0
FFE0
7070
7018
7018
7018
7018
7018
7078
7070
7F80
70E0
70F0
7070
7070
7070
7078
7018
7018
7018
7018
7018
7018
F87E
F87E
ENDCHAR
STARTCHAR 0053
ENCODING 83
SWIDTH 500 0
DWIDTH 16 0
BBX 14 25 1 -1
BITMAP
0F10
0F10
30D0
2030
E030
E010
E010
E000
FC00
3C00
1F00
03E0
03F0
00F0
0030
001C
001C
001C
C01C
C01C
E03C
E030
F0E0
CF00
CF00
ENDCHAR
STARTCHAR 0054
ENCODING 84
SWIDTH 500 0
DWIDTH 16 0
BBX 16 25 0 -1
BITMAP
7FFE
7FFE
6186
6186
E187
8181
0180
0180
0180
0180
0180
0180
0180
0180
0180
0180
0180
0180
0180
0180
0180
0180
0180
07E0
07E0
ENDCHAR
STARTCHAR 0055
ENCODING 85
SWIDTH 500 0
DWIDTH 16 0
BBX 16 25 0 -1
BITMAP
F80F
F80F
7006
7006
7006
7006
7006
7006
7006
7006
7006
7006
7006
7006
7006
7006
7006
7006
7006
7006
780E
1808
1E18
07E0
07E0
ENDCHAR
STARTCHAR 0056
ENCODING 86
SWIDTH 500 0
DWIDTH 16 0
BBX 15 25 0 -1
BITMAP
F81E
F81E
7008
7008
7008
7008
1810
1810
1810
1810
1810
0E60
0E60
0E60
0E60
0680
0780
0780
0780
0780
0780
0100
0100
0100
0100
ENDCHAR
STARTCHAR 0057
ENCODING 87
SWIDTH 500 0
DWIDTH 16 0
BBX 16 25 0 -1
BITMAP
F9EF
F9EF
7186
7186
7186
7186
7186
7186
71EE
70E8
18E8
18E8
18E8
18E8
18E8
19E8
1FF8
0E70
0E70
0E70
0E70
0E70
0E70
0E70
0E70
ENDCHAR
STARTCHAR 0058
ENCODING 88
SWIDTH 500 0
DWIDTH 16 0
BBX 15 25 0 -1
BITMAP
F81E
F81E
7008
7010
7810
1810
1860
0E60
0EE0
0E80
0780
0700
0780
0180
0780
06E0
0EE0
08E0
0870
1070
1078
1018
6018
F07E
F07E
ENDCHAR
STARTCHAR 0059
ENCODING 89
SWIDTH 500 0
DWIDTH 16 0
BBX 16 25 0 -1
BITMAP
F80F
F80F
7006
1806
180E
1808
1808
0E10
0E10
0E10
0760
0760
07E0
0180
0180
0180
0180
0180
0180
0180
0180
0180
0180
07E0
07E0
ENDCHAR
STARTCHAR 005A
ENCODING 90
SWIDTH 500 0
DWIDTH 16 0
BBX 15 25 1 -1
BITMAP
3FFC
3FFC
201C
C030
C030
0030
00E0
00E0
01E0
01C0
01C0
0300
0300
0300
0E00
0E00
1E00
1C00
1C00
3002
300E
300C
E00C
FFFC
FFFC
ENDCHAR
STARTCHAR 005B
ENCODING 91
SWIDTH 500 0
DWIDTH 16 0
BBX 11 28 4 -2
BITMAP
FFE0
E000
E000
E000
E000
E000
E000
E000
E000
E000
E000
E000
E000
E000
E000
E000
E000
E000
E000
E000
E000
E000
E000
E000
E000
E000
FFE0
FFE0
ENDCHAR
STARTCHAR 005C
ENCODING 92
SWIDTH 500 0
DWIDTH 16 0
BBX 16 25 0 -1
BITMAP
F80F
F80F
7006
1808
1808
1808
0E10
0E10
0F70
0760
7FFE
0180
0180
0180
0180
7FFE
7FFE
0180
0180
0180
0180
0180
0180
07E0
07E0
ENDCHAR
STARTCHAR 005D
ENCODING 93
SWIDTH 500 0
DWIDTH 16 0
BBX 11 28 1 -2
BITMAP
FFE0
00E0
00E0
00E0
00E0
00E0
00E0
00E0
00E0
00E0
00E0
00E0
00E0
00E0
00E0
00E0
00E0
00E0
00E0
00E0
00E0
00E0
00E0
00E0
00E0
00E0
FFE0
FFE0
ENDCHAR
STARTCHAR 005E
ENCODING 94
SWIDTH 500 0
DWIDTH 16 0
BBX 15 9 0 19
BITMAP
0100
0100
0780
0EE0
1EF0
1870
6008
8006
8006
ENDCHAR
STARTCHAR 005F
ENCODING 95
SWIDTH 500 0
DWIDTH 16 0
BBX 14 1 1 -3
BITMAP
FFFC
ENDCHAR
STARTCHAR 0060
ENCODING 96
SWIDTH 500 0
DWIDTH 16 0
BBX 5 9 7 17
BITMAP
40
F0
F0
F0
C0
40
70
30
08
ENDCHAR
STARTCHAR 0061
ENCODING 97
SWIDTH 500 0
DWIDTH 16 0
BBX 15 17 1 -1
BITMAP
0FE0
0FE0
3C30
3030
3030
0030
0030
0FF0
3FF0
3030
E030
E030
E0F0
E0F0
E332
3C1C
3C1C
ENDCHAR
STARTCHAR 0062
ENCODING 98
SWIDTH 500 0
DWIDTH 16 0
BBX 15 27 0 -1
BITMAP
1000
F000
F000
7000
7000
7000
7000
7000
7000
7000
71E0
71E0
7E18
780E
780E
700E
700E
700E
700E
700E
700E
700E
780E
7808
7618
61E0
61E0
ENDCHAR
STARTCHAR 0063
ENCODING 99
SWIDTH 500 0
DWIDTH 16 0
BBX 14 17 1 -1
BITMAP
0FC0
0FC0
30F0
2030
E030
E000
E000
E000
E000
E000
E000
E00C
F01C
3010
3CE0
0FC0
0FC0
ENDCHAR
STARTCHAR 0064
ENCODING 100
SWIDTH 500 0
DWIDTH 16 0
BBX 14 27 1 -1
BITMAP
0010
00F0
00F0
0030
0030
0030
0030
0030
0030
0030
0F30
0F30
30F0
2030
E030
E030
E030
E030
E030
E030
E030
E030
E030
2030
30F0
0F3C
0F3C
ENDCHAR
STARTCHAR 0065
ENCODING 101
SWIDTH 500 0
DWIDTH 16 0
BBX 14 17 1 -1
BITMAP
0FC0
0FC0
3030
2010
E01C
E01C
E01C
FFFC
FFFC
E000
E000
E00C
F01C
3010
3CE0
0FC0
0FC0
ENDCHAR
STARTCHAR 0066
ENCODING 102
SWIDTH 500 0
DWIDTH 16 0
BBX 12 27 1 -1
BITMAP
03E0
0C30
1C30
1C30
1C00
1C00
1C00
1C00
1C00
1C00
FFE0
FFE0
1C00
1C00
1C00
1C00
1C00
1C00
1C00
1C00
1C00
1C00
1C00
1C00
1C00
3E00
3E00
ENDCHAR
STARTCHAR 0067
ENCODING 103
SWIDTH 500 0
DWIDTH 16 0
BBX 14 20 1 -3
BITMAP
001C
0F3C
0F3C
30E0
E030
E030
E030
E030
30E0
3FE0
2F00
E000
3FE0
3FF0
2FF0
E01C
E01C
F03C
3030
1FC0
ENDCHAR
STARTCHAR 0068
ENCODING 104
SWIDTH 500 0
DWIDTH 16 0
BBX 15 27 0 -1
BITMAP
1000
F000
F000
7000
7000
7000
7000
7000
7000
7000
77E0
77E0
7870
7010
7018
7018
7018
7018
7018
7018
7018
7018
7018
7018
7018
F87E
F87E
ENDCHAR
STARTCHAR 0069
ENCODING 105
SWIDTH 500 0
DWIDTH 16 0
BBX 6 25 5 -1
BITMAP
30
30
30
00
00
00
00
00
10
10
F0
30
30
30
30
30
30
30
30
30
30
30
30
FC
FC
ENDCHAR
STARTCHAR 006A
ENCODING 106
SWIDTH 500 0
DWIDTH 16 0
BBX 11 29 1 -5
BITMAP
00E0
00E0
00E0
0000
0000
0000
0000
0000
0020
0020
01E0
00E0
00E0
00E0
00E0
00E0
00E0
00E0
00E0
00E0
00E0
00E0
E0E0
E0E0
E0E0
E0E0
21C0
1E00
1E00
ENDCHAR
STARTCHAR 006B
ENCODING 107
SWIDTH 500 0
DWIDTH 16 0
BBX 15 27 0 -1
BITMAP
1000
F000
F000
7000
7000
7000
7000
7000
7000
7000
7078
7078
7010
7060
70E0
7080
7100
7700
7F80
7980
70E0
70E0
70F0
7070
7018
F87E
F87E
ENDCHAR
STARTCHAR 006C
ENCODING 108
SWIDTH 500 0
DWIDTH 16 0
BBX 6 27 5 -1
BITMAP
10
F0
F0
30
30
30
30
30
30
30
30
30
30
30
30
30
30
30
30
30
30
30
30
30
30
FC
FC
ENDCHAR
STARTCHAR 006D
ENCODING 109
SWIDTH 500 0
DWIDTH 16 0
BBX 16 17 0 -1
BITMAP
1718
1718
FFFE
718E
718E
718E
718E
718E
718E
718E
718E
718E
718E
718E
718E
F9EF
F9EF
ENDCHAR
STARTCHAR 006E
ENCODING 110
SWIDTH 500 0
DWIDTH 16 0
BBX 15 17 0 -1
BITMAP
17E0
17E0
F870
7010
7018
7018
7018
7018
7018
7018
7018
7018
7018
7018
7018
F87E
F87E
ENDCHAR
STARTCHAR 006F
ENCODING 111
SWIDTH 500 0
DWIDTH 16 0
BBX 14 17 1 -1
BITMAP
0FC0
0FC0
3030
2010
E01C
E01C
E01C
E01C
E01C
E01C
E01C
E01C
E01C
2010
3030
0FC0
0FC0
ENDCHAR
STARTCHAR 0070
ENCODING 112
SWIDTH 500 0
DWIDTH 16 0
BBX 15 19 0 -3
BITMAP
11E0
11E0
F678
7818
781E
700E
700E
700E
700E
700E
700E
700E
781E
7818
7678
71E0
71E0
7000
F800
ENDCHAR
STARTCHAR 0071
ENCODING 113
SWIDTH 500 0
DWIDTH 16 0
BBX 14 19 1 -3
BITMAP
0F10
0F10
3CF0
3030
F030
E030
E030
E030
E030
E030
E030
E030
F030
3030
3CF0
0F30
0F30
0030
003C
ENDCHAR
STARTCHAR 0072
ENCODING 114
SWIDTH 500 0
DWIDTH 16 0
BBX 12 17 3 -1
BITMAP
30C0
30C0
F3F0
7470
7C70
7800
7000
7000
7000
7000
7000
7000
7000
7000
7000
F800
F800
ENDCHAR
STARTCHAR 0073
ENCODING 115
SWIDTH 500 0
DWIDTH 16 0
BBX 12 17 3 -1
BITMAP
3F00
3F00
43C0
C0C0
C0C0
C000
F000
7F00
7FC0
0FC0
00F0
0070
C070
C070
F040
3F80
3F80
ENDCHAR
STARTCHAR 0074
ENCODING 116
SWIDTH 500 0
DWIDTH 16 0
BBX 12 25 3 -1
BITMAP
0800
0800
3800
3800
3800
3800
3800
3800
FFC0
FFC0
3800
3800
3800
3800
3800
3800
3800
3800
3800
3830
3830
3830
38C0
0F80
0F80
ENDCHAR
STARTCHAR 0075
ENCODING 117
SWIDTH 500 0
DWIDTH 16 0
BBX 15 17 0 -1
BITMAP
1008
1008
F078
7018
7018
7018
7018
7018
7018
7018
7018
7018
7078
7078
1898
0F1E
0F1E
ENDCHAR
STARTCHAR 0076
ENCODING 118
SWIDTH 500 0
DWIDTH 16 0
BBX 15 17 0 -1
BITMAP
F81E
F81E
7008
7008
7818
1810
1810
1810
1E70
0E60
0E60
0780
0780
0780
0100
0100
0100
ENDCHAR
STARTCHAR 0077
ENCODING 119
SWIDTH 500 0
DWIDTH 16 0
BBX 15 17 0 -1
BITMAP
F79E
F79E
7188
7188
7188
7188
76E8
76E8
76E8
76E8
1870
1870
1870
1870
1870
1870
1870
ENDCHAR
STARTCHAR 0078
ENCODING 120
SWIDTH 500 0
DWIDTH 16 0
BBX 14 17 1 -1
BITMAP
FC3C
FC3C
3010
1C20
1CE0
1CC0
0EC0
0300
0300
0300
0DC0
0CE0
1CE0
10E0
2030
F0FC
F0FC
ENDCHAR
STARTCHAR 0079
ENCODING 121
SWIDTH 500 0
DWIDTH 16 0
BBX 15 21 0 -5
BITMAP
F81E
F81E
7008
1808
1818
1810
0E10
0E60
0F60
0760
0780
0180
0180
0100
0100
0600
E600
E600
E800
7000
7000
ENDCHAR
STARTCHAR 007A
ENCODING 122
SWIDTH 500 0
DWIDTH 16 0
BBX 14 17 1 -1
BITMAP
3FFC
3FFC
2030
C0E0
C1E0
01C0
01C0
0300
0F00
0E00
0E00
1C0C
3C1C
3010
3010
FFF0
FFF0
ENDCHAR
STARTCHAR 007B
ENCODING 123
SWIDTH 500 0
DWIDTH 16 0
BBX 14 28 1 -2
BITMAP
00FC
0100
0100
0100
0300
0300
0300
0300
0300
0300
0F00
0E00
0C00
F000
FC00
0C00
0E00
0300
0300
0300
0300
0300
0300
0300
0100
0100
01FC
00FC
ENDCHAR
STARTCHAR 007C
ENCODING 124
SWIDTH 500 0
DWIDTH 16 0
BBX 2 29 7 -3
BITMAP
C0
C0
C0
C0
C0
C0
C0
C0
C0
C0
C0
C0
C0
C0
C0
C0
C0
C0
C0
C0
C0
C0
C0
C0
C0
C0
C0
C0
C0
ENDCHAR
STARTCHAR 007D
ENCODING 125
SWIDTH 500 0
DWIDTH 16 0
BBX 14 28 1 -2
BITMAP
FC00
0200
0200
0200
0300
0300
0300
0300
0300
0300
03C0
01C0
00C0
003C
00FC
00C0
01C0
0300
0300
0300
0300
0300
0300
0300
0200
0200
FE00
FC00
ENDCHAR
STARTCHAR 007E
ENCODING 126
SWIDTH 500 0
DWIDTH 16 0
BBX 14 2 1 23
BITMAP
FFFC
FFFC
ENDCHAR
STARTCHAR 00A0
ENCODING 160
SWIDTH 1000 0
DWIDTH 32 0
BBX 26 10 3 7
BITMAP
C4F0C780
C4FBF7C0
C48B3440
B48B0440
B4F0C780
BCF8F780
8C883400
8C8B3400
84F0C400
84F0C400
ENDCHAR
STARTCHAR 00A1
ENCODING 161
SWIDTH 1000 0
DWIDTH 32 0
BBX 4 26 13 -1
BITMAP
F0
F0
F0
F0
00
00
00
20
20
20
20
20
20
F0
F0
F0
F0
F0
F0
F0
F0
F0
F0
F0
F0
F0
ENDCHAR
STARTCHAR 00A4
ENCODING 164
SWIDTH 1000 0
DWIDTH 32 0
BBX 22 21 5 1
BITMAP
C0000C
200010
30FC30
10FC20
0F03C0
0C00C0
0C00C0
0C00C0
100020
100020
100020
100020
100020
0C00C0
0C00C0
0C00C0
0F03C0
10FC20
30FC30
200010
C0000C
ENDCHAR
STARTCHAR 00A6
ENCODING 166
SWIDTH 1000 0
DWIDTH 32 0
BBX 1 27 15 -2
BITMAP
80
80
80
80
80
80
80
80
80
80
80
00
00
00
00
00
80
80
80
80
80
80
80
80
80
80
80
ENDCHAR
STARTCHAR 00A7
ENCODING 167
SWIDTH 1000 0
DWIDTH 32 0
BBX 16 27 8 -2
BITMAP
0FF0
7FFE
700E
E007
E007
F007
7000
1E00
07E0
1FF8
18F8
601E
E007
E007
E007
7806
1F18
1FF8
07E0
0078
000E
E00F
E007
E007
700E
7FFE
0FF0
ENDCHAR
STARTCHAR 00A8
ENCODING 168
SWIDTH 1000 0
DWIDTH 32 0
BBX 8 3 12 25
BITMAP
E7
E7
E7
ENDCHAR
STARTCHAR 00A9
ENCODING 169
SWIDTH 1000 0
DWIDTH 32 0
BBX 30 29 1 -3
BITMAP
001FE000
00E01C00
03E01F00
03000300
0C0000C0
100FC020
103FF220
10303220
20E01E10
21C00E10
E1C00E1C
C1C0020C
C300000C
C300000C
C300000C
C300000C
C300000C
C1C0000C
E1C0021C
21C00210
20E00C10
10303020
103FF020
100FC020
0C0000C0
03000300
03E01F00
00E01C00
001FE000
ENDCHAR
STARTCHAR 00AA
ENCODING 170
SWIDTH 1000 0
DWIDTH 32 0
BBX 12 9 3 13
BITMAP
7F00
8380
BF80
3F80
7380
C380
C7F0
C7F0
78C0
ENDCHAR
STARTCHAR 00AB
ENCODING 171
SWIDTH 1000 0
DWIDTH 32 0
BBX 14 26 15 -1
BITMAP
0304
070C
0408
0408
0C38
0C38
0830
3870
3870
78F0
70C0
70C0
C380
F3C0
70C0
70C0
3870
3870
3870
0830
0C38
0C38
0408
0408
0304
0304
ENDCHAR
STARTCHAR 00AD
ENCODING 173
SWIDTH 1000 0
DWIDTH 32 0
BBX 32 15 0 10
BITMAP
10000008
7788686E
67886866
68686866
88086681
8F8FE781
878FE101
80686101
68686106
6FE86106
67886106
10000008
00000000
000FF000
000FF000
ENDCHAR
STARTCHAR 00AE
ENCODING 174
SWIDTH 1000 0
DWIDTH 32 0
BBX 30 29 1 -3
BITMAP
001FE000
00E01C00
03E01F00
03000300
0C0000C0
13FFE020
13FFF020
10E03020
20E01C10
20E01C10
E0E01C1C
C0E01C0C
C0E0300C
C0E0E00C
C0FFE00C
C0FF000C
C0E1C00C
C0E0E00C
E0E0E01C
20E02010
20E03010
10E01C20
13FC1F20
13FC1F20
0C0000C0
03000300
03E01F00
00E01C00
001FE000
ENDCHAR
STARTCHAR 00AF
ENCODING 175
SWIDTH 1000 0
DWIDTH 32 0
BBX 10 1 11 25
BITMAP
FFC0
ENDCHAR
STARTCHAR 00B0
ENCODING 176
SWIDTH 1000 0
DWIDTH 32 0
BBX 8 8 4 17
BITMAP
18
7E
66
81
81
E7
66
18
ENDCHAR
STARTCHAR 00B1
ENCODING 177
SWIDTH 1000 0
DWIDTH 32 0
BBX 24 25 4 -1
BITMAP
001000
001000
001000
001000
001000
001000
001000
001000
001000
001000
FFFFFF
001000
001000
001000
001000
001000
001000
001000
001000
001000
001000
000000
000000
FFFFFF
FFFFFF
ENDCHAR
STARTCHAR 00B2
ENCODING 178
SWIDTH 1000 0
DWIDTH 32 0
BBX 10 13 3 13
BITMAP
3F00
7380
F380
C080
4080
0380
0780
0700
0C00
3840
78C0
7080
FF80
ENDCHAR
STARTCHAR 00B3
ENCODING 179
SWIDTH 1000 0
DWIDTH 32 0
BBX 10 13 3 13
BITMAP
3F00
7380
7380
4080
0380
3F00
3F80
0380
C0C0
C0C0
F3C0
7380
3F00
ENDCHAR
STARTCHAR 00B4
ENCODING 180
SWIDTH 1000 0
DWIDTH 32 0
BBX 8 3 12 25
BITMAP
0E
0E
FF
ENDCHAR
STARTCHAR 00B6
ENCODING 182
SWIDTH 1000 0
DWIDTH 32 0
BBX 16 31 7 -5
BITMAP
0FFF
7F87
7F87
7F87
FF87
FF87
FF87
FF87
FF87
7F87
7F87
7F87
0F87
0387
0387
0387
0387
0387
0387
0387
0387
0387
0387
0387
0387
0387
0387
0387
0387
0387
0387
ENDCHAR
STARTCHAR 00B7
ENCODING 183
SWIDTH 1000 0
DWIDTH 32 0
BBX 4 4 13 9
BITMAP
F0
F0
F0
F0
ENDCHAR
STARTCHAR 00B8
ENCODING 184
SWIDTH 1000 0
DWIDTH 32 0
BBX 8 9 12 -5
BITMAP
08
08
18
1E
1F
07
0F
FE
FE
ENDCHAR
STARTCHAR 00B9
ENCODING 185
SWIDTH 1000 0
DWIDTH 32 0
BBX 8 13 4 13
BITMAP
08
18
F8
F8
18
18
18
18
18
18
18
18
FF
ENDCHAR
STARTCHAR 00BA
ENCODING 186
SWIDTH 1000 0
DWIDTH 32 0
BBX 10 9 3 13
BITMAP
3F00
7380
F3C0
C0C0
C0C0
C0C0
F3C0
7380
3F00
ENDCHAR
STARTCHAR 00BB
ENCODING 187
SWIDTH 1000 0
DWIDTH 32 0
BBX 14 26 3 -1
BITMAP
8300
C380
4080
4080
70C0
70C0
3040
3870
3870
3C78
0C38
0C38
070C
0F3C
0C38
0C38
3870
3870
3870
3040
70C0
70C0
4080
4080
8300
8300
ENDCHAR
STARTCHAR 00BC
ENCODING 188
SWIDTH 1000 0
DWIDTH 32 0
BBX 22 31 5 -5
BITMAP
001000
003000
01F000
01F000
003000
003000
003000
003000
003000
003000
003000
003000
01FE00
000000
FFFFFC
FFFFFC
000000
003C00
00FC00
00DC00
00DC00
011C00
011C00
011C00
021C00
03FF00
03FF00
001C00
001C00
003E00
003E00
ENDCHAR
STARTCHAR 00BD
ENCODING 189
SWIDTH 1000 0
DWIDTH 32 0
BBX 22 31 5 -5
BITMAP
001000
003000
01F000
01F000
003000
003000
003000
003000
003000
003000
003000
003000
01FE00
000000
FFFFFC
FFFFFC
000000
00FC00
01FE00
01CE00
030200
010200
010E00
000E00
001C00
003000
00F100
00E100
01C200
03FE00
03FE00
ENDCHAR
STARTCHAR 00BE
ENCODING 190
SWIDTH 1000 0
DWIDTH 32 0
BBX 22 31 5 -5
BITMAP
00FC00
01CE00
01CE00
010200
000E00
00FC00
00FE00
000E00
030300
030300
03CF00
01CE00
00FC00
000000
FFFFFC
FFFFFC
000000
003C00
00FC00
00DC00
00DC00
011C00
011C00
011C00
021C00
03FF00
03FF00
001C00
001C00
003E00
003E00
ENDCHAR
STARTCHAR 00BF
ENCODING 191
SWIDTH 1000 0
DWIDTH 32 0
BBX 16 26 7 -1
BITMAP
03C0
03C0
03C0
03C0
0000
0000
0000
0080
0080
0380
0300
0700
0C00
3C00
3800
7000
7000
F00C
C00C
C00F
C007
F007
7007
380C
07F0
07F0
ENDCHAR
STARTCHAR 00C0
ENCODING 192
SWIDTH 1000 0
DWIDTH 32 0
BBX 26 29 3 -1
BITMAP
007C0000
007C0000
000F0000
00038000
0003C000
00004000
00080000
000C0000
003C0000
003C0000
00370000
00370000
00778000
00438000
00438000
0080C000
0080C000
0080C000
03007000
03FFF000
07FFF800
04003800
04003800
08000C00
08000C00
08000C00
38000F00
FF007FC0
FF007FC0
ENDCHAR
STARTCHAR 00C1
ENCODING 193
SWIDTH 1000 0
DWIDTH 32 0
BBX 26 29 3 -1
BITMAP
000F8000
000F8000
003C0000
00700000
00F00000
00800000
00080000
000C0000
003C0000
003C0000
00370000
00370000
00778000
00438000
00438000
0080C000
0080C000
0080C000
03007000
03FFF000
07FFF800
04003800
04003800
08000C00
08000C00
08000C00
38000F00
FF007FC0
FF007FC0
ENDCHAR
STARTCHAR 00C2
ENCODING 194
SWIDTH 1000 0
DWIDTH 32 0
BBX 26 29 3 -1
BITMAP
00080000
00080000
003C0000
00770000
00F78000
00808000
00080000
000C0000
003C0000
003C0000
00370000
00370000
00778000
00438000
00438000
0080C000
0080C000
0080C000
03007000
03FFF000
07FFF800
04003800
04003800
08000C00
08000C00
08000C00
38000F00
FF007FC0
FF007FC0
ENDCHAR
STARTCHAR 00C3
ENCODING 195
SWIDTH 1000 0
DWIDTH 32 0
BBX 26 29 3 -1
BITMAP
00783000
00783000
008C4000
03078000
03078000
00000000
00080000
000C0000
003C0000
003C0000
00370000
00370000
00778000
00438000
00438000
0080C000
0080C000
0080C000
03007000
03FFF000
07FFF800
04003800
04003800
08000C00
08000C00
08000C00
38000F00
FF007FC0
FF007FC0
ENDCHAR
STARTCHAR 00C4
ENCODING 196
SWIDTH 1000 0
DWIDTH 32 0
BBX 26 27 3 -1
BITMAP
00738000
00738000
00738000
00000000
00080000
000C0000
003C0000
003C0000
00370000
00370000
00778000
00438000
00438000
0080C000
0080C000
0080C000
03007000
03FFF000
07FFF800
04003800
04003800
08000C00
08000C00
08000C00
38000F00
FF007FC0
FF007FC0
ENDCHAR
STARTCHAR 00C5
ENCODING 197
SWIDTH 1000 0
DWIDTH 32 0
BBX 26 29 3 -1
BITMAP
000C0000
000C0000
00330000
00330000
003F0000
000C0000
00000000
000C0000
003C0000
003C0000
00370000
00370000
00778000
00438000
00438000
0080C000
0080C000
0080C000
03007000
03FFF000
07FFF800
04003800
04003800
08000C00
08000C00
08000C00
38000F00
FF007FC0
FF007FC0
ENDCHAR
STARTCHAR 00C6
ENCODING 198
SWIDTH 1000 0
DWIDTH 32 0
BBX 30 26 1 -1
BITMAP
000FFFF0
000FFFF0
0003C030
0003C010
000DC000
000DC000
000DC000
0011C000
0011C020
0031C020
0021C020
0021C0E0
00C1FFE0
00C1FFE0
00C1C0E0
0101C020
01FFC020
03FFC020
0201C000
0201C000
0C01C000
0C01C00C
0C01C00C
1001C01C
FE0FFFFC
FE0FFFFC
ENDCHAR
STARTCHAR 00C7
ENCODING 199
SWIDTH 1000 0
DWIDTH 32 0
BBX 23 30 4 -5
BITMAP
007E00
01FF88
018188
0E0078
180018
780018
700008
700008
E00000
E00000
E00000
E00000
E00000
E00000
E00000
E00000
700000
700006
700006
180008
0E0010
0F80F0
0180E0
007F00
001000
007E00
007E00
000F00
00FE00
00FE00
ENDCHAR
STARTCHAR 00C8
ENCODING 200
SWIDTH 1000 0
DWIDTH 32 0
BBX 23 29 4 -1
BITMAP
00F800
00F800
001E00
000700
000780
000080
FFFFF0
180070
180070
180010
180008
180008
180108
180100
180100
180700
1FFF00
1FFF00
180700
180100
180100
180100
180006
180006
18000E
180008
180018
FFFFF8
FFFFF8
ENDCHAR
STARTCHAR 00C9
ENCODING 201
SWIDTH 1000 0
DWIDTH 32 0
BBX 23 29 4 -1
BITMAP
001F00
001F00
007800
00E000
01E000
010000
FFFFF0
180070
180070
180010
180008
180008
180108
180100
180100
180700
1FFF00
1FFF00
180700
180100
180100
180100
180006
180006
18000E
180008
180018
FFFFF8
FFFFF8
ENDCHAR
STARTCHAR 00CA
ENCODING 202
SWIDTH 1000 0
DWIDTH 32 0
BBX 23 29 4 -1
BITMAP
001000
001000
007800
00EE00
01EF00
010100
FFFFF0
180070
180070
180010
180008
180008
180108
180100
180100
180700
1FFF00
1FFF00
180700
180100
180100
180100
180006
180006
18000E
180008
180018
FFFFF8
FFFFF8
ENDCHAR
STARTCHAR 00CB
ENCODING 203
SWIDTH 1000 0
DWIDTH 32 0
BBX 23 27 4 -1
BITMAP
00E700
00E700
00E700
000000
FFFFF0
180070
180070
180010
180008
180008
180108
180100
180100
180700
1FFF00
1FFF00
180700
180100
180100
180100
180006
180006
18000E
180008
180018
FFFFF8
FFFFF8
ENDCHAR
STARTCHAR 00CC
ENCODING 204
SWIDTH 1000 0
DWIDTH 32 0
BBX 10 29 11 -1
BITMAP
7C00
7C00
0F00
0380
03C0
0040
0000
FFC0
FFC0
0C00
0C00
0C00
0C00
0C00
0C00
0C00
0C00
0C00
0C00
0C00
0C00
0C00
0C00
0C00
0C00
0C00
0C00
FFC0
FFC0
ENDCHAR
STARTCHAR 00CD
ENCODING 205
SWIDTH 1000 0
DWIDTH 32 0
BBX 10 29 11 -1
BITMAP
0F80
0F80
3C00
7000
F000
8000
0000
FFC0
FFC0
0C00
0C00
0C00
0C00
0C00
0C00
0C00
0C00
0C00
0C00
0C00
0C00
0C00
0C00
0C00
0C00
0C00
0C00
FFC0
FFC0
ENDCHAR
STARTCHAR 00CE
ENCODING 206
SWIDTH 1000 0
DWIDTH 32 0
BBX 10 29 11 -1
BITMAP
0800
0800
3C00
7700
F780
8080
0000
FFC0
FFC0
0C00
0C00
0C00
0C00
0C00
0C00
0C00
0C00
0C00
0C00
0C00
0C00
0C00
0C00
0C00
0C00
0C00
0C00
FFC0
FFC0
ENDCHAR
STARTCHAR 00CF
ENCODING 207
SWIDTH 1000 0
DWIDTH 32 0
BBX 10 27 11 -1
BITMAP
7380
7380
7380
0000
FFC0
0C00
0C00
0C00
0C00
0C00
0C00
0C00
0C00
0C00
0C00
0C00
0C00
0C00
0C00
0C00
0C00
0C00
0C00
0C00
0C00
FFC0
FFC0
ENDCHAR
STARTCHAR 00D0
ENCODING 208
SWIDTH 1000 0
DWIDTH 32 0
BBX 24 26 3 -1
BITMAP
7FFC00
7FFF80
0C0380
0C0070
0C0038
0C003C
0C000C
0C000C
0C0007
0C0007
0C0007
0C0007
FFF807
FFF807
0C0007
0C0007
0C0007
0C000F
0C000C
0C000C
0C0038
0C0078
0C0070
0C0380
7FFC00
7FFC00
ENDCHAR
STARTCHAR 00D1
ENCODING 209
SWIDTH 1000 0
DWIDTH 32 0
BBX 24 29 4 -1
BITMAP
00F060
00F060
011880
060F00
060F00
000000
F8007F
1E0008
1F0008
1F0008
178008
118008
11E008
10E008
10F008
107808
107E08
101E08
100E08
100708
100788
100788
1001E8
1000F8
1000F8
100078
100018
FE0008
FE0008
ENDCHAR
STARTCHAR 00D2
ENCODING 210
SWIDTH 1000 0
DWIDTH 32 0
BBX 24 29 4 -1
BITMAP
00F800
00F800
001E00
000700
000780
000080
00FF00
0700E0
0F00F0
0E0070
180018
70000E
70000E
70000E
E00007
E00007
E00007
E00007
E00007
E00007
F0000F
70000E
70000E
180018
1E0078
0E0070
0700E0
00FF00
00FF00
ENDCHAR
STARTCHAR 00D3
ENCODING 211
SWIDTH 1000 0
DWIDTH 32 0
BBX 24 29 4 -1
BITMAP
001F00
001F00
007800
00E000
01E000
010000
00FF00
0700E0
0F00F0
0E0070
180018
70000E
70000E
70000E
E00007
E00007
E00007
E00007
E00007
E00007
F0000F
70000E
70000E
180018
1E0078
0E0070
0700E0
00FF00
00FF00
ENDCHAR
STARTCHAR 00D4
ENCODING 212
SWIDTH 1000 0
DWIDTH 32 0
BBX 24 29 4 -1
BITMAP
001000
001000
007800
00EE00
01EF00
010100
00FF00
0700E0
0F00F0
0E0070
180018
70000E
70000E
70000E
E00007
E00007
E00007
E00007
E00007
E00007
F0000F
70000E
70000E
180018
1E0078
0E0070
0700E0
00FF00
00FF00
ENDCHAR
STARTCHAR 00D5
ENCODING 213
SWIDTH 1000 0
DWIDTH 32 0
BBX 24 29 4 -1
BITMAP
00F060
00F060
011880
060F00
060F00
000000
00FF00
0700E0
0F00F0
0E0070
180018
70000E
70000E
70000E
E00007
E00007
E00007
E00007
E00007
E00007
F0000F
70000E
70000E
180018
1E0078
0E0070
0700E0
00FF00
00FF00
ENDCHAR
STARTCHAR 00D6
ENCODING 214
SWIDTH 1000 0
DWIDTH 32 0
BBX 24 27 4 -1
BITMAP
00E700
00E700
00E700
000000
00FF00
0700E0
0F00F0
0E0070
180018
70000E
70000E
70000E
E00007
E00007
E00007
E00007
E00007
E00007
F0000F
70000E
70000E
180018
1E0078
0E0070
0700E0
00FF00
00FF00
ENDCHAR
STARTCHAR 00D7
ENCODING 215
SWIDTH 1000 0
DWIDTH 32 0
BBX 22 21 5 1
BITMAP
C0000C
200010
300030
100020
0C00C0
020100
030300
010200
00CC00
003000
003000
003000
00CC00
010200
030300
020100
0C00C0
100020
300030
200010
C0000C
ENDCHAR
STARTCHAR 00D8
ENCODING 216
SWIDTH 1000 0
DWIDTH 32 0
BBX 25 26 4 -1
BITMAP
00FF0080
07FFE180
0700E100
0E007600
18001800
78001E00
70001E00
70006E00
E0008700
E0018700
E0010700
E0060700
E0080700
E0180700
E0100700
E0600700
E0800700
F1800F00
71000E00
76000E00
18001800
1E007800
1E007000
6700E000
80FF0000
80FF0000
ENDCHAR
STARTCHAR 00D9
ENCODING 217
SWIDTH 1000 0
DWIDTH 32 0
BBX 24 29 4 -1
BITMAP
00F800
00F800
001E00
000100
000180
000080
FF007F
180008
180008
180008
180008
180008
180008
180008
180008
180008
180008
180008
180008
180008
180008
180008
180008
0E0010
0E0010
0E0010
0780E0
00FF00
00FF00
ENDCHAR
STARTCHAR 00DA
ENCODING 218
SWIDTH 1000 0
DWIDTH 32 0
BBX 24 29 4 -1
BITMAP
000F80
000F80
001E00
007000
00F000
008000
FF007F
180008
180008
180008
180008
180008
180008
180008
180008
180008
180008
180008
180008
180008
180008
180008
180008
0E0010
0E0010
0E0010
0780E0
00FF00
00FF00
ENDCHAR
STARTCHAR 00DB
ENCODING 219
SWIDTH 1000 0
DWIDTH 32 0
BBX 24 29 4 -1
BITMAP
000800
000800
001E00
007700
00F780
008080
FF007F
180008
180008
180008
180008
180008
180008
180008
180008
180008
180008
180008
180008
180008
180008
180008
180008
0E0010
0E0010
0E0010
0780E0
00FF00
00FF00
ENDCHAR
STARTCHAR 00DC
ENCODING 220
SWIDTH 1000 0
DWIDTH 32 0
BBX 24 27 4 -1
BITMAP
00E700
00E700
00E700
000000
FF007F
180008
180008
180008
180008
180008
180008
180008
180008
180008
180008
180008
180008
180008
180008
180008
180008
0E0010
0E0010
0E0010
0780E0
00FF00
00FF00
ENDCHAR
STARTCHAR 00DD
ENCODING 221
SWIDTH 1000 0
DWIDTH 32 0
BBX 26 29 3 -1
BITMAP
0007C000
0007C000
000F0000
00380000
00780000
00400000
FF803FC0
3C000700
3C000700
0C000400
07000800
03803000
03C07000
00C04000
00708000
003B0000
003F0000
000C0000
000C0000
000C0000
000C0000
000C0000
000C0000
000C0000
000C0000
000C0000
000C0000
007F8000
007F8000
ENDCHAR
STARTCHAR 00DE
ENCODING 222
SWIDTH 1000 0
DWIDTH 32 0
BBX 18 26 7 -1
BITMAP
FF0000
FF0000
380000
380000
380000
3FF800
3FF800
380700
380380
3803C0
3800C0
3800C0
3800C0
3800C0
3800C0
380380
380700
3FFF00
3FF800
380000
380000
380000
380000
380000
FF0000
FF0000
ENDCHAR
STARTCHAR 00DF
ENCODING 223
SWIDTH 1000 0
DWIDTH 32 0
BBX 18 26 7 -1
BITMAP
00F000
07FC00
070C00
0C0700
380380
380380
380380
380380
380700
380F00
380C00
38F800
380700
380780
380380
3800C0
3800C0
3800C0
3800C0
3800C0
3800C0
3B83C0
3B83C0
3B8780
F8FF00
F8FF00
ENDCHAR
STARTCHAR 00E0
ENCODING 224
SWIDTH 1000 0
DWIDTH 32 0
BBX 20 25 7 -1
BITMAP
0F8000
0F8000
03C000
007000
007800
000800
000000
0FF000
7FFC00
780C00
700700
000700
000700
000700
00FF00
0F0700
7F0700
700700
C00700
C00700
C00730
C00730
703F30
0FC3C0
0FC3C0
ENDCHAR
STARTCHAR 00E1
ENCODING 225
SWIDTH 1000 0
DWIDTH 32 0
BBX 20 25 7 -1
BITMAP
03F000
03F000
078000
0C0000
3C0000
300000
000000
0FF000
7FFC00
780C00
700700
000700
000700
000700
00FF00
0F0700
7F0700
700700
C00700
C00700
C00730
C00730
703F30
0FC3C0
0FC3C0
ENDCHAR
STARTCHAR 00E2
ENCODING 226
SWIDTH 1000 0
DWIDTH 32 0
BBX 20 25 7 -1
BITMAP
008000
008000
03C000
077000
0F7800
080800
000000
0FF000
7FFC00
780C00
700700
000700
000700
000700
00FF00
0F0700
7F0700
700700
C00700
C00700
C00730
C00730
703F30
0FC3C0
0FC3C0
ENDCHAR
STARTCHAR 00E3
ENCODING 227
SWIDTH 1000 0
DWIDTH 32 0
BBX 20 25 7 -1
BITMAP
0F0400
0F0400
338800
40F000
40F000
000000
000000
0FF000
7FFC00
780C00
700700
000700
000700
000700
00FF00
0F0700
7F0700
700700
C00700
C00700
C00730
C00730
703F30
0FC3C0
0FC3C0
ENDCHAR
STARTCHAR 00E4
ENCODING 228
SWIDTH 1000 0
DWIDTH 32 0
BBX 20 23 7 -1
BITMAP
0C7000
0C7000
0C7000
000000
000000
0FF000
7FFC00
780C00
700700
000700
000700
000700
00FF00
0F0700
7F0700
700700
C00700
C00700
C00730
C00730
703F30
0FC3C0
0FC3C0
ENDCHAR
STARTCHAR 00E5
ENCODING 229
SWIDTH 1000 0
DWIDTH 32 0
BBX 20 25 7 -1
BITMAP
038000
038000
044000
044000
07C000
038000
000000
0FF000
7FFC00
780C00
700700
000700
000700
000700
00FF00
0F0700
7F0700
700700
C00700
C00700
C00730
C00730
703F30
0FC3C0
0FC3C0
ENDCHAR
STARTCHAR 00E6
ENCODING 230
SWIDTH 1000 0
DWIDTH 32 0
BBX 26 18 3 -1
BITMAP
0FC07800
7FFBFF00
783B8700
700F0380
000C0380
000C03C0
000C00C0
03FFFFC0
0C0C0000
7C0C0000
700C0000
C00C0000
C00C0000
C00F0040
C00F0040
70738380
0F807C00
0F807C00
ENDCHAR
STARTCHAR 00E7
ENCODING 231
SWIDTH 1000 0
DWIDTH 32 0
BBX 16 22 8 -5
BITMAP
07F0
1FFE
180E
7007
7007
F007
E000
E000
E000
E000
E000
7000
7001
780F
180E
07F0
0100
07E0
07E0
00F0
0FE0
0FE0
ENDCHAR
STARTCHAR 00E8
ENCODING 232
SWIDTH 1000 0
DWIDTH 32 0
BBX 17 25 7 -1
BITMAP
07C000
07C000
00F000
003800
003C00
000400
000000
03F000
0FFC00
0C0C00
380700
700700
700780
700380
FFFF80
C00000
C00000
C00000
700000
700000
780080
380080
0C0700
03F800
03F800
ENDCHAR
STARTCHAR 00E9
ENCODING 233
SWIDTH 1000 0
DWIDTH 32 0
BBX 17 25 7 -1
BITMAP
00F800
00F800
03C000
070000
0F0000
080000
000000
03F000
0FFC00
0C0C00
380700
700700
700780
700380
FFFF80
C00000
C00000
C00000
700000
700000
780080
380080
0C0700
03F800
03F800
ENDCHAR
STARTCHAR 00EA
ENCODING 234
SWIDTH 1000 0
DWIDTH 32 0
BBX 17 25 7 -1
BITMAP
008000
008000
03C000
077000
0F7800
080800
000000
03F000
0FFC00
0C0C00
380700
700700
700780
700380
FFFF80
C00000
C00000
C00000
700000
700000
780080
380080
0C0700
03F800
03F800
ENDCHAR
STARTCHAR 00EB
ENCODING 235
SWIDTH 1000 0
DWIDTH 32 0
BBX 17 23 7 -1
BITMAP
073800
073800
073800
000000
000000
03F000
0FFC00
0C0C00
380700
700700
700780
700380
FFFF80
C00000
C00000
C00000
700000
700000
780080
380080
0C0700
03F800
03F800
ENDCHAR
STARTCHAR 00EC
ENCODING 236
SWIDTH 1000 0
DWIDTH 32 0
BBX 10 25 11 -1
BITMAP
F800
F800
3C00
0700
0780
0080
0000
FC00
FC00
0C00
0C00
0C00
0C00
0C00
0C00
0C00
0C00
0C00
0C00
0C00
0C00
0C00
0C00
FFC0
FFC0
ENDCHAR
STARTCHAR 00ED
ENCODING 237
SWIDTH 1000 0
DWIDTH 32 0
BBX 10 25 11 -1
BITMAP
0F80
0F80
3C00
7000
F000
8000
0000
FC00
FC00
0C00
0C00
0C00
0C00
0C00
0C00
0C00
0C00
0C00
0C00
0C00
0C00
0C00
0C00
FFC0
FFC0
ENDCHAR
STARTCHAR 00EE
ENCODING 238
SWIDTH 1000 0
DWIDTH 32 0
BBX 10 25 11 -1
BITMAP
0800
0800
3C00
7700
F780
8080
0000
FC00
FC00
0C00
0C00
0C00
0C00
0C00
0C00
0C00
0C00
0C00
0C00
0C00
0C00
0C00
0C00
FFC0
FFC0
ENDCHAR
STARTCHAR 00EF
ENCODING 239
SWIDTH 1000 0
DWIDTH 32 0
BBX 10 23 11 -1
BITMAP
7380
7380
7380
0000
0000
FC00
FC00
0C00
0C00
0C00
0C00
0C00
0C00
0C00
0C00
0C00
0C00
0C00
0C00
0C00
0C00
FFC0
FFC0
ENDCHAR
STARTCHAR 00F0
ENCODING 240
SWIDTH 1000 0
DWIDTH 32 0
BBX 16 26 8 -1
BITMAP
0F0E
0FFE
00F0
0190
0E18
0E1E
000E
000E
0787
1FF7
1877
701F
700F
F00F
E00F
E007
E007
E007
E007
E007
700E
700E
700E
1818
07E0
07E0
ENDCHAR
STARTCHAR 00F1
ENCODING 241
SWIDTH 1000 0
DWIDTH 32 0
BBX 20 25 7 -1
BITMAP
078300
078300
08C400
307800
307800
000000
000000
38F800
FFFF00
FF0700
380380
380380
380380
380380
380380
380380
380380
380380
380380
380380
380380
380380
380380
FF0FF0
FF0FF0
ENDCHAR
STARTCHAR 00F2
ENCODING 242
SWIDTH 1000 0
DWIDTH 32 0
BBX 18 25 7 -1
BITMAP
07C000
07C000
00F000
003800
003C00
000400
000000
03F000
0FFC00
0C0C00
380700
700380
700380
700380
C000C0
C000C0
C000C0
C000C0
700380
700380
780780
380700
0C0C00
03F000
03F000
ENDCHAR
STARTCHAR 00F3
ENCODING 243
SWIDTH 1000 0
DWIDTH 32 0
BBX 18 25 7 -1
BITMAP
00F800
00F800
03C000
070000
0F0000
080000
000000
03F000
0FFC00
0C0C00
380700
700380
700380
700380
C000C0
C000C0
C000C0
C000C0
700380
700380
780780
380700
0C0C00
03F000
03F000
ENDCHAR
STARTCHAR 00F4
ENCODING 244
SWIDTH 1000 0
DWIDTH 32 0
BBX 18 25 7 -1
BITMAP
008000
008000
03C000
077000
0F7800
080800
000000
03F000
0FFC00
0C0C00
380700
700380
700380
700380
C000C0
C000C0
C000C0
C000C0
700380
700380
780780
380700
0C0C00
03F000
03F000
ENDCHAR
STARTCHAR 00F5
ENCODING 245
SWIDTH 1000 0
DWIDTH 32 0
BBX 18 25 7 -1
BITMAP
078300
078300
08C400
307800
307800
000000
000000
03F000
0FFC00
0C0C00
380700
700380
700380
700380
C000C0
C000C0
C000C0
C000C0
700380
700380
780780
380700
0C0C00
03F000
03F000
ENDCHAR
STARTCHAR 00F6
ENCODING 246
SWIDTH 1000 0
DWIDTH 32 0
BBX 18 23 7 -1
BITMAP
073800
073800
073800
000000
000000
03F000
0FFC00
0C0C00
380700
700380
700380
700380
C000C0
C000C0
C000C0
C000C0
700380
700380
780780
380700
0C0C00
03F000
03F000
ENDCHAR
STARTCHAR 00F7
ENCODING 247
SWIDTH 1000 0
DWIDTH 32 0
BBX 24 20 4 2
BITMAP
007800
007800
007800
007800
000000
000000
000000
000000
000000
FFFFFF
FFFFFF
000000
000000
000000
000000
000000
007800
007800
007800
007800
ENDCHAR
STARTCHAR 00F8
ENCODING 248
SWIDTH 1000 0
DWIDTH 32 0
BBX 18 18 7 -1
BITMAP
03F040
0FFCC0
0C0C80
380700
700780
700F80
700B80
C030C0
C040C0
C0C0C0
C080C0
730380
740380
7C0780
380700
4C0C00
83F000
83F000
ENDCHAR
STARTCHAR 00F9
ENCODING 249
SWIDTH 1000 0
DWIDTH 32 0
BBX 20 25 5 -1
BITMAP
0FC000
0FC000
01E000
003000
003C00
000C00
000000
1C01C0
FC0FC0
FC0FC0
1C01C0
1C01C0
1C01C0
1C01C0
1C01C0
1C01C0
1C01C0
1C01C0
1C01C0
1C01C0
1C01C0
1C01C0
0E0FC0
01F1F0
01F1F0
ENDCHAR
STARTCHAR 00FA
ENCODING 250
SWIDTH 1000 0
DWIDTH 32 0
BBX 20 25 5 -1
BITMAP
003E00
003E00
00F000
01C000
03C000
020000
000000
1C01C0
FC0FC0
FC0FC0
1C01C0
1C01C0
1C01C0
1C01C0
1C01C0
1C01C0
1C01C0
1C01C0
1C01C0
1C01C0
1C01C0
1C01C0
0E0FC0
01F1F0
01F1F0
ENDCHAR
STARTCHAR 00FB
ENCODING 251
SWIDTH 1000 0
DWIDTH 32 0
BBX 20 25 5 -1
BITMAP
002000
002000
00F000
01DC00
03DE00
020200
000000
1C01C0
FC0FC0
FC0FC0
1C01C0
1C01C0
1C01C0
1C01C0
1C01C0
1C01C0
1C01C0
1C01C0
1C01C0
1C01C0
1C01C0
1C01C0
0E0FC0
01F1F0
01F1F0
ENDCHAR
STARTCHAR 00FC
ENCODING 252
SWIDTH 1000 0
DWIDTH 32 0
BBX 20 23 5 -1
BITMAP
031C00
031C00
031C00
000000
000000
1C01C0
FC0FC0
FC0FC0
1C01C0
1C01C0
1C01C0
1C01C0
1C01C0
1C01C0
1C01C0
1C01C0
1C01C0
1C01C0
1C01C0
1C01C0
0E0FC0
01F1F0
01F1F0
ENDCHAR
STARTCHAR 00FD
ENCODING 253
SWIDTH 1000 0
DWIDTH 32 0
BBX 22 29 5 -5
BITMAP
000FC0
000FC0
001E00
003000
00F000
00C000
000000
3FC1FC
3FC1FC
0E0020
0E00C0
0300C0
0301C0
030100
01C100
01C200
01E200
00E200
00EC00
003C00
003C00
001000
002000
002000
E0E000
E0C000
E10000
3E0000
3E0000
ENDCHAR
STARTCHAR 00FE
ENCODING 254
SWIDTH 1000 0
DWIDTH 32 0
BBX 20 30 5 -5
BITMAP
1C0000
FC0000
FC0000
1C0000
1C0000
1C0000
1C0000
1C0000
1C3E00
1DFFC0
1DC1C0
1E00E0
1C00E0
1C00F0
1C0030
1C0030
1C0030
1C00F0
1C00E0
1C00E0
1F01C0
1FFFC0
1CFE00
1C0000
1C0000
1C0000
1C0000
1C0000
FF0000
FF0000
ENDCHAR
STARTCHAR 00FF
ENCODING 255
SWIDTH 1000 0
DWIDTH 32 0
BBX 22 27 5 -5
BITMAP
00E300
00E300
00E300
000000
000000
3FC1FC
3FC1FC
0E0020
0E00C0
0300C0
0301C0
030100
01C100
01C200
01E200
00E200
00EC00
003C00
003C00
001000
002000
002000
E0E000
E0C000
E10000
3E0000
3E0000
ENDCHAR
STARTCHAR 0100
ENCODING 256
SWIDTH 1000 0
DWIDTH 32 0
BBX 26 27 3 -1
BITMAP
00FFC000
00000000
00000000
00000000
00080000
000C0000
003C0000
003C0000
00370000
00370000
00778000
00438000
00438000
0080C000
0080C000
0080C000
03007000
03FFF000
07FFF800
04003800
04003800
08000C00
08000C00
08000C00
38000F00
FF007FC0
FF007FC0
ENDCHAR
STARTCHAR 0101
ENCODING 257
SWIDTH 1000 0
DWIDTH 32 0
BBX 20 22 7 -1
BITMAP
3FFC00
3FFC00
000000
000000
0FF000
7FFC00
780C00
700700
000700
000700
000700
00FF00
0F0700
7F0700
700700
C00700
C00700
C00730
C00730
703F30
0FC3C0
0FC3C0
ENDCHAR
STARTCHAR 0102
ENCODING 258
SWIDTH 1000 0
DWIDTH 32 0
BBX 26 29 3 -1
BITMAP
00C0C000
00C0C000
007F8000
003F0000
003F0000
00000000
00080000
000C0000
003C0000
003C0000
00370000
00370000
00778000
00438000
00438000
0080C000
0080C000
0080C000
03007000
03FFF000
07FFF800
04003800
04003800
08000C00
08000C00
08000C00
38000F00
FF007FC0
FF007FC0
ENDCHAR
STARTCHAR 0103
ENCODING 259
SWIDTH 1000 0
DWIDTH 32 0
BBX 20 23 7 -1
BITMAP
383800
0FF000
0FF000
07C000
000000
0FF000
7FFC00
780C00
700700
000700
000700
000700
00FF00
0F0700
7F0700
700700
C00700
C00700
C00730
C00730
703F30
0FC3C0
0FC3C0
ENDCHAR
STARTCHAR 0104
ENCODING 260
SWIDTH 1000 0
DWIDTH 32 0
BBX 28 30 3 -5
BITMAP
00080000
000C0000
000C0000
003C0000
00370000
00370000
00370000
00438000
00438000
00438000
00438000
0080C000
0080C000
0380F000
03007000
03007000
03FFF000
07FFF800
04003800
04003800
08000C00
08000C00
08000C00
38000F00
FF007FC0
FF007FC0
00000380
00000730
000003C0
000003C0
ENDCHAR
STARTCHAR 0105
ENCODING 261
SWIDTH 1000 0
DWIDTH 32 0
BBX 20 22 7 -5
BITMAP
0FF000
7FFC00
780C00
700700
000700
000700
000700
00FF00
0F0700
7F0700
700700
C00700
C00700
C00730
C00730
703F30
0FC3C0
0FC7C0
000780
000730
0003C0
0003C0
ENDCHAR
STARTCHAR 0106
ENCODING 262
SWIDTH 1000 0
DWIDTH 32 0
BBX 23 29 4 -1
BITMAP
001F00
001F00
007800
00E000
01E000
010000
007E00
018188
0F81F8
0E0078
180018
700008
700008
700008
E00000
E00000
E00000
E00000
E00000
E00000
F00000
700000
700006
180008
1E0018
0E0010
0180E0
007F00
007F00
ENDCHAR
STARTCHAR 0107
ENCODING 263
SWIDTH 1000 0
DWIDTH 32 0
BBX 17 23 7 -1
BITMAP
00F800
03C000
07C000
070000
080000
03F800
0FFF00
0C0700
380380
700380
700380
700000
C00000
C00000
C00000
C00000
700000
700000
780080
380080
0C0700
03F800
03F800
ENDCHAR
STARTCHAR 0108
ENCODING 264
SWIDTH 1000 0
DWIDTH 32 0
BBX 23 29 4 -1
BITMAP
001000
001000
007800
00EE00
01EF00
010100
007E00
018188
0F81F8
0E0078
180018
700008
700008
700008
E00000
E00000
E00000
E00000
E00000
E00000
F00000
700000
700006
180008
1E0018
0E0010
0180E0
007F00
007F00
ENDCHAR
STARTCHAR 0109
ENCODING 265
SWIDTH 1000 0
DWIDTH 32 0
BBX 17 25 7 -1
BITMAP
008000
008000
03C000
077000
0F7800
080800
000000
03F800
0FFF00
0C0700
380380
700380
700380
700000
C00000
C00000
C00000
C00000
700000
700000
780080
380080
0C0700
03F800
03F800
ENDCHAR
STARTCHAR 010C
ENCODING 268
SWIDTH 1000 0
DWIDTH 32 0
BBX 23 29 4 -1
BITMAP
010100
010100
00EE00
007800
007800
001000
007E00
018188
0F81F8
0E0078
180018
700008
700008
700008
E00000
E00000
E00000
E00000
E00000
E00000
F00000
700000
700006
180008
1E0018
0E0010
0180E0
007F00
007F00
ENDCHAR
STARTCHAR 010D
ENCODING 269
SWIDTH 1000 0
DWIDTH 32 0
BBX 17 23 7 -1
BITMAP
080800
077000
07F000
03C000
008000
03F800
0FFF00
0C0700
380380
700380
700380
700000
C00000
C00000
C00000
C00000
700000
700000
780080
380080
0C0700
03F800
03F800
ENDCHAR
STARTCHAR 010E
ENCODING 270
SWIDTH 1000 0
DWIDTH 32 0
BBX 23 29 4 -1
BITMAP
060600
060600
019800
00F000
00F000
006000
FFF800
180700
1807E0
1800E0
180070
180018
180018
180018
18000E
18000E
18000E
18000E
18000E
18000E
18001E
180018
180018
180070
1800F0
1800E0
180700
FFF800
FFF800
ENDCHAR
STARTCHAR 010F
ENCODING 271
SWIDTH 1000 0
DWIDTH 32 0
BBX 20 29 7 -1
BITMAP
080800
080800
077000
03C380
03CF80
008F80
000380
000380
000380
000380
000380
07C380
3FFB80
383B80
700780
700380
F00380
C00380
C00380
C00380
C00380
C00380
C00380
700380
700380
700380
380F80
07F3F0
07F3F0
ENDCHAR
STARTCHAR 0111
ENCODING 273
SWIDTH 1000 0
DWIDTH 32 0
BBX 21 26 7 -1
BITMAP
000380
000F80
000F80
000380
000380
00FFF8
00FFF8
000380
07C380
3FFB80
383B80
700780
700380
F00380
C00380
C00380
C00380
C00380
C00380
C00380
700380
700380
700380
380F80
07F3F0
07F3F0
ENDCHAR
STARTCHAR 0112
ENCODING 274
SWIDTH 1000 0
DWIDTH 32 0
BBX 23 27 4 -1
BITMAP
07FF80
000000
000000
000000
FFFFF0
180070
180070
180010
180008
180008
180108
180100
180100
180700
1FFF00
1FFF00
180700
180100
180100
180100
180006
180006
18000E
180008
180018
FFFFF8
FFFFF8
ENDCHAR
STARTCHAR 0113
ENCODING 275
SWIDTH 1000 0
DWIDTH 32 0
BBX 17 22 7 -1
BITMAP
0FFC00
0FFC00
000000
000000
03F000
0FFC00
0C0C00
380700
700700
700780
700380
FFFF80
C00000
C00000
C00000
700000
700000
780080
380080
0C0700
03F800
03F800
ENDCHAR
STARTCHAR 0118
ENCODING 280
SWIDTH 1000 0
DWIDTH 32 0
BBX 23 30 4 -5
BITMAP
FFFFF0
FFFFF0
180070
180010
180008
180008
180008
180000
180100
180100
180100
180700
1FFF00
1FFF00
180700
180100
180100
180100
180000
180006
180006
18000E
180008
180018
FFFFF8
FFFFF8
0000E0
000186
0000F8
0000F8
ENDCHAR
STARTCHAR 0119
ENCODING 281
SWIDTH 1000 0
DWIDTH 32 0
BBX 17 22 7 -5
BITMAP
03F000
0FFC00
0C0C00
380700
700700
700780
700380
FFFF80
C00000
C00000
C00000
700000
700000
780080
380080
0C0700
03F800
03F800
007000
00C300
007C00
007C00
ENDCHAR
STARTCHAR 011A
ENCODING 282
SWIDTH 1000 0
DWIDTH 32 0
BBX 23 29 4 -1
BITMAP
010100
010100
00EE00
007800
007800
001000
FFFFF0
180070
180070
180010
180008
180008
180108
180100
180100
180700
1FFF00
1FFF00
180700
180100
180100
180100
180006
180006
18000E
180008
180018
FFFFF8
FFFFF8
ENDCHAR
STARTCHAR 011B
ENCODING 283
SWIDTH 1000 0
DWIDTH 32 0
BBX 17 23 7 -1
BITMAP
080800
077000
07F000
03C000
008000
03F000
0FFC00
0C0C00
380700
700700
700780
700380
FFFF80
C00000
C00000
C00000
700000
700000
780080
380080
0C0700
03F800
03F800
ENDCHAR
STARTCHAR 011C
ENCODING 284
SWIDTH 1000 0
DWIDTH 32 0
BBX 25 29 4 -1
BITMAP
00100000
00100000
00780000
00EE0000
01EF0000
01010000
007E0000
01818800
0F81F800
0E007800
18001800
70000800
70000800
70000800
E0000000
E0000000
E001FF80
E001FF80
E0001800
E0001800
F0001800
70001800
70001800
18001800
1E007800
0E007800
01818800
007E0800
007E0800
ENDCHAR
STARTCHAR 011D
ENCODING 285
SWIDTH 1000 0
DWIDTH 32 0
BBX 20 29 7 -5
BITMAP
008000
008000
03C000
077000
0F7800
080800
0000C0
07F3F0
3FFFF0
380C70
700700
700700
700700
700700
380C00
07F000
0FF000
080000
380000
0FFC00
3FFF80
33FF80
4003C0
C000C0
C000C0
C000C0
700380
0FFC00
0FFC00
ENDCHAR
STARTCHAR 0124
ENCODING 292
SWIDTH 1000 0
DWIDTH 32 0
BBX 24 29 4 -1
BITMAP
001000
001000
007800
00EE00
01EF00
010100
000000
FF00FF
FF00FF
180018
180018
180018
180018
180018
180018
180018
1FFFF8
1FFFF8
180018
180018
180018
180018
180018
180018
180018
180018
180018
FF00FF
FF00FF
ENDCHAR
STARTCHAR 0125
ENCODING 293
SWIDTH 1000 0
DWIDTH 32 0
BBX 22 29 5 -1
BITMAP
002000
002000
00F000
01DC00
03DE00
020200
1C0000
FC0000
FC0000
1C0000
1C0000
1C3E00
1DFFC0
1DC1C0
1E00E0
1C00E0
1C00E0
1C00E0
1C00E0
1C00E0
1C00E0
1C00E0
1C00E0
1C00E0
1C00E0
1C00E0
1C00E0
FF03FC
FF03FC
ENDCHAR
STARTCHAR 0127
ENCODING 295
SWIDTH 1000 0
DWIDTH 32 0
BBX 23 26 4 -1
BITMAP
0E0000
7E0000
7E0000
0E0000
0E0000
FFFE00
FFFE00
0E0000
0E0000
0E1F00
0E1F00
0EE0E0
0F0070
0F0070
0E0070
0E0070
0E0070
0E0070
0E0070
0E0070
0E0070
0E0070
0E0070
0E0070
7F81FE
7F81FE
ENDCHAR
STARTCHAR 012A
ENCODING 298
SWIDTH 1000 0
DWIDTH 32 0
BBX 10 27 11 -1
BITMAP
FFC0
0000
0000
0000
FFC0
0C00
0C00
0C00
0C00
0C00
0C00
0C00
0C00
0C00
0C00
0C00
0C00
0C00
0C00
0C00
0C00
0C00
0C00
0C00
0C00
FFC0
FFC0
ENDCHAR
STARTCHAR 012B
ENCODING 299
SWIDTH 1000 0
DWIDTH 32 0
BBX 12 22 9 -1
BITMAP
FFF0
FFF0
0000
0000
3F00
3F00
0300
0300
0300
0300
0300
0300
0300
0300
0300
0300
0300
0300
0300
0300
3FF0
3FF0
ENDCHAR
STARTCHAR 0134
ENCODING 308
SWIDTH 1000 0
DWIDTH 32 0
BBX 18 29 7 -1
BITMAP
000800
000800
003C00
007700
00F780
008080
000000
00FFC0
00FFC0
000C00
000C00
000C00
000C00
000C00
000C00
000C00
000C00
000C00
000C00
000C00
700C00
700C00
F00C00
C03800
C03800
C03800
707000
0F8000
0F8000
ENDCHAR
STARTCHAR 0135
ENCODING 309
SWIDTH 1000 0
DWIDTH 32 0
BBX 16 29 7 -5
BITMAP
0030
0030
0078
00CC
03CF
0303
0000
00F8
00F8
0038
0038
0038
0038
0038
0038
0038
0038
0038
0038
0038
0038
0038
0038
0070
C070
C070
C0C0
7F00
7F00
ENDCHAR
STARTCHAR 0139
ENCODING 313
SWIDTH 1000 0
DWIDTH 32 0
BBX 23 29 5 -1
BITMAP
001F00
001F00
003C00
00E000
01E000
010000
FF0000
1C0000
1C0000
1C0000
1C0000
1C0000
1C0000
1C0000
1C0000
1C0000
1C0000
1C0000
1C0000
1C0000
1C0000
1C0000
1C0002
1C0002
1C000E
1C000C
1C001C
FFFFFC
FFFFFC
ENDCHAR
STARTCHAR 013A
ENCODING 314
SWIDTH 1000 0
DWIDTH 32 0
BBX 9 29 11 -1
BITMAP
0F80
0F80
3C00
7000
F000
8000
0C00
7C00
7C00
0C00
0C00
0C00
0C00
0C00
0C00
0C00
0C00
0C00
0C00
0C00
0C00
0C00
0C00
0C00
0C00
0C00
0C00
7F80
7F80
ENDCHAR
STARTCHAR 013D
ENCODING 317
SWIDTH 1000 0
DWIDTH 32 0
BBX 23 29 5 -1
BITMAP
020200
020200
01DC00
00F000
00F000
002000
FF0000
1C0000
1C0000
1C0000
1C0000
1C0000
1C0000
1C0000
1C0000
1C0000
1C0000
1C0000
1C0000
1C0000
1C0000
1C0000
1C0002
1C0002
1C000E
1C000C
1C001C
FFFFFC
FFFFFC
ENDCHAR
STARTCHAR 013E
ENCODING 318
SWIDTH 1000 0
DWIDTH 32 0
BBX 9 29 11 -1
BITMAP
8080
8080
7700
3C00
3C00
0800
0000
7C00
7C00
0C00
0C00
0C00
0C00
0C00
0C00
0C00
0C00
0C00
0C00
0C00
0C00
0C00
0C00
0C00
0C00
0C00
0C00
7F80
7F80
ENDCHAR
STARTCHAR 0141
ENCODING 321
SWIDTH 1000 0
DWIDTH 32 0
BBX 25 26 3 -1
BITMAP
3FC00000
3FC00000
07000000
07000000
07000000
07000000
07000000
07000000
07070000
073F0000
07380000
07C00000
07000000
3F000000
3F000000
C7000000
07000000
07000000
07000000
07000080
07000080
07000380
07000300
07000700
3FFFFF00
3FFFFF00
ENDCHAR
STARTCHAR 0142
ENCODING 322
SWIDTH 1000 0
DWIDTH 32 0
BBX 14 26 9 -1
BITMAP
0300
1F00
1F00
0300
0300
0300
0300
0300
0300
031C
031C
03E0
1F00
FF00
E300
0300
0300
0300
0300
0300
0300
0300
0300
0300
1FE0
1FE0
ENDCHAR
STARTCHAR 0143
ENCODING 323
SWIDTH 1000 0
DWIDTH 32 0
BBX 24 29 4 -1
BITMAP
001F00
001F00
007800
00E000
01E000
010000
F8007F
1E0008
1F0008
1F0008
178008
118008
11E008
10E008
10F008
107808
107E08
101E08
100E08
100708
100788
100788
1001E8
1000F8
1000F8
100078
100018
FE0008
FE0008
ENDCHAR
STARTCHAR 0144
ENCODING 324
SWIDTH 1000 0
DWIDTH 32 0
BBX 20 23 7 -1
BITMAP
007C00
00F000
03F000
038000
040000
38F800
FFFF00
FF0700
380380
380380
380380
380380
380380
380380
380380
380380
380380
380380
380380
380380
380380
FF0FF0
FF0FF0
ENDCHAR
STARTCHAR 0147
ENCODING 327
SWIDTH 1000 0
DWIDTH 32 0
BBX 24 29 4 -1
BITMAP
010100
010100
00EE00
007800
007800
001000
F8007F
1E0008
1F0008
1F0008
178008
118008
11E008
10E008
10F008
107808
107E08
101E08
100E08
100708
100788
100788
1001E8
1000F8
1000F8
100078
100018
FE0008
FE0008
ENDCHAR
STARTCHAR 0148
ENCODING 328
SWIDTH 1000 0
DWIDTH 32 0
BBX 20 23 7 -1
BITMAP
040400
03B800
03F800
00F000
004000
38F800
FFFF00
FF0700
380380
380380
380380
380380
380380
380380
380380
380380
380380
380380
380380
380380
380380
FF0FF0
FF0FF0
ENDCHAR
STARTCHAR 014B
ENCODING 331
SWIDTH 1000 0
DWIDTH 32 0
BBX 17 22 7 -5
BITMAP
38F800
FFFF00
FF0700
380380
380380
380380
380380
380380
380380
380380
380380
380380
380380
380380
380380
380380
FF0380
FF0380
000380
00C700
007C00
007C00
ENDCHAR
STARTCHAR 014C
ENCODING 332
SWIDTH 1000 0
DWIDTH 32 0
BBX 24 27 4 -1
BITMAP
01FF80
000000
000000
000000
00FF00
0700E0
0F00F0
0E0070
180018
70000E
70000E
70000E
E00007
E00007
E00007
E00007
E00007
E00007
F0000F
70000E
70000E
180018
1E0078
0E0070
0700E0
00FF00
00FF00
ENDCHAR
STARTCHAR 014D
ENCODING 333
SWIDTH 1000 0
DWIDTH 32 0
BBX 18 22 7 -1
BITMAP
0FFC00
0FFC00
000000
000000
03F000
0FFC00
0C0C00
380700
700380
700380
700380
C000C0
C000C0
C000C0
C000C0
700380
700380
780780
380700
0C0C00
03F000
03F000
ENDCHAR
STARTCHAR 0150
ENCODING 336
SWIDTH 1000 0
DWIDTH 32 0
BBX 24 29 4 -1
BITMAP
00F8F8
00F8F8
01E1E0
070700
0F0F00
080800
00FF00
0700E0
0F00F0
0E0070
180018
70000E
70000E
70000E
E00007
E00007
E00007
E00007
E00007
E00007
F0000F
70000E
70000E
180018
1E0078
0E0070
0700E0
00FF00
00FF00
ENDCHAR
STARTCHAR 0151
ENCODING 337
SWIDTH 1000 0
DWIDTH 32 0
BBX 18 23 7 -1
BITMAP
07C7C0
0F0F00
3F3F00
383800
404000
03F000
0FFC00
0C0C00
380700
700380
700380
700380
C000C0
C000C0
C000C0
C000C0
700380
700380
780780
380700
0C0C00
03F000
03F000
ENDCHAR
STARTCHAR 0152
ENCODING 338
SWIDTH 1000 0
DWIDTH 32 0
BBX 30 26 1 -1
BITMAP
00FFFFF0
03FFFFF0
0303C030
0E01C010
1C01C000
3C01C000
3001C000
3001C000
E001C020
E001C020
E001C020
E001C0E0
E001FFE0
E001FFE0
E001C0E0
E001C020
E001C020
F001C020
3001C000
3001C000
1C01C000
1E01C00C
0E01C00C
0303C01C
00FFFFFC
00FFFFFC
ENDCHAR
STARTCHAR 0153
ENCODING 339
SWIDTH 1000 0
DWIDTH 32 0
BBX 26 18 3 -1
BITMAP
07807800
3FF3FF00
38738700
703F0380
703C0380
F03C03C0
C00C00C0
C00FFFC0
C00C0000
C00C0000
C00C0000
C00C0000
703C0000
703F0040
703F0040
38738380
07807C00
07807C00
ENDCHAR
STARTCHAR 0154
ENCODING 340
SWIDTH 1000 0
DWIDTH 32 0
BBX 25 29 4 -1
BITMAP
001F0000
001F0000
00780000
00E00000
01E00000
01000000
FFFF0000
1800E000
1800F000
18007000
18001800
18001800
18001800
18001800
18007000
18018000
1FFF8000
1FFE0000
18010000
18008000
1800E000
1800E000
1800E000
1800E000
1800E080
1800E080
1800F100
FF007E00
FF007E00
ENDCHAR
STARTCHAR 0155
ENCODING 341
SWIDTH 1000 0
DWIDTH 32 0
BBX 17 25 8 -1
BITMAP
00F800
00F800
01E000
070000
0F0000
080000
000000
180F00
F87F80
F87F80
18E180
190000
1F0000
1E0000
180000
180000
180000
180000
180000
180000
180000
180000
180000
FF0000
FF0000
ENDCHAR
STARTCHAR 0158
ENCODING 344
SWIDTH 1000 0
DWIDTH 32 0
BBX 25 29 4 -1
BITMAP
06060000
06060000
01980000
00F00000
00F00000
00600000
FFFF0000
1800E000
1800F000
18007000
18001800
18001800
18001800
18001800
18007000
18018000
1FFF8000
1FFE0000
18010000
18008000
1800E000
1800E000
1800E000
1800E000
1800E080
1800E080
1800F100
FF007E00
FF007E00
ENDCHAR
STARTCHAR 0159
ENCODING 345
SWIDTH 1000 0
DWIDTH 32 0
BBX 17 23 8 -1
BITMAP
101000
0EE000
0FE000
078000
010000
180F00
F87F80
F87F80
18E180
190000
1F0000
1E0000
180000
180000
180000
180000
180000
180000
180000
180000
180000
FF0000
FF0000
ENDCHAR
STARTCHAR 015A
ENCODING 346
SWIDTH 1000 0
DWIDTH 32 0
BBX 20 29 7 -1
BITMAP
00F800
00F800
03C000
070000
0F0000
080000
07F040
380FC0
780FC0
7003C0
C000C0
C00040
F00040
F00040
7C0000
0FC000
0FFC00
03FC00
003F80
0003C0
8003F0
8000F0
800070
C00070
F000F0
F000C0
FC0380
83FC00
83FC00
ENDCHAR
STARTCHAR 015B
ENCODING 347
SWIDTH 1000 0
DWIDTH 32 0
BBX 16 23 8 -1
BITMAP
01F0
0780
0F80
0E00
1000
0FE6
7FFE
701E
E00E
E006
F006
F000
7F80
0FF8
0FFE
007E
000F
8007
E007
E007
F00E
8FF0
8FF0
ENDCHAR
STARTCHAR 015C
ENCODING 348
SWIDTH 1000 0
DWIDTH 32 0
BBX 20 29 7 -1
BITMAP
008000
008000
03C000
077000
0F7800
080800
07F040
380FC0
780FC0
7003C0
C000C0
C00040
F00040
F00040
7C0000
0FC000
0FFC00
03FC00
003F80
0003C0
8003F0
8000F0
800070
C00070
F000F0
F000C0
FC0380
83FC00
83FC00
ENDCHAR
STARTCHAR 015D
ENCODING 349
SWIDTH 1000 0
DWIDTH 32 0
BBX 16 25 8 -1
BITMAP
0100
0100
0780
0EE0
1EF0
1010
0000
0FE6
7FFE
701E
E00E
E006
F006
F000
7F80
0FF8
0FFE
007E
000F
8007
E007
E007
F00E
8FF0
8FF0
ENDCHAR
STARTCHAR 015E
ENCODING 350
SWIDTH 1000 0
DWIDTH 32 0
BBX 20 30 7 -5
BITMAP
07F040
3FFFC0
380FC0
7003C0
C000C0
C000C0
C00040
C00040
F00000
FC0000
7C0000
0FC000
03FC00
03FF80
003F80
0003C0
8000F0
8000F0
800070
C00070
F000C0
FC03C0
FC0380
83FC00
008000
03F000
03F000
007800
07F000
07F000
ENDCHAR
STARTCHAR 015F
ENCODING 351
SWIDTH 1000 0
DWIDTH 32 0
BBX 16 22 8 -5
BITMAP
0FE6
7FFE
701E
E00E
E006
F006
F000
7FE0
0FFE
0FFF
001F
8007
E007
F00F
F00E
8FF0
0100
07E0
07E0
00F0
0FE0
0FE0
ENDCHAR
STARTCHAR 0160
ENCODING 352
SWIDTH 1000 0
DWIDTH 32 0
BBX 20 29 7 -1
BITMAP
080800
080800
077000
03C000
03C000
008000
07F040
380FC0
780FC0
7003C0
C000C0
C00040
F00040
F00040
7C0000
0FC000
0FFC00
03FC00
003F80
0003C0
8003F0
8000F0
800070
C00070
F000F0
F000C0
FC0380
83FC00
83FC00
ENDCHAR
STARTCHAR 0161
ENCODING 353
SWIDTH 1000 0
DWIDTH 32 0
BBX 16 25 8 -1
BITMAP
1010
1010
0EE0
0780
0780
0100
0000
0FE6
7FFE
701E
E00E
E006
F006
F000
7F80
0FF8
0FFE
007E
000F
8007
E007
E007
F00E
8FF0
8FF0
ENDCHAR
STARTCHAR 0162
ENCODING 354
SWIDTH 1000 0
DWIDTH 32 0
BBX 26 30 3 -5
BITMAP
7FFFFF80
7FFFFF80
700C0380
400C0080
800C0040
800C0040
800C0040
000C0000
000C0000
000C0000
000C0000
000C0000
000C0000
000C0000
000C0000
000C0000
000C0000
000C0000
000C0000
000C0000
000C0000
000C0000
000C0000
007F8000
00080000
003F0000
003F0000
00078000
007F0000
007F0000
ENDCHAR
STARTCHAR 0163
ENCODING 355
SWIDTH 1000 0
DWIDTH 32 0
BBX 17 30 7 -5
BITMAP
070000
070000
070000
070000
070000
070000
070000
070000
FFFC00
FFFC00
070000
070000
070000
070000
070000
070000
070000
070000
070000
070080
070080
078380
038300
00FC00
004000
00F800
00F800
003C00
03F800
03F800
ENDCHAR
STARTCHAR 0164
ENCODING 356
SWIDTH 1000 0
DWIDTH 32 0
BBX 26 29 3 -1
BITMAP
00808000
00808000
00770000
003C0000
003C0000
00080000
7FFFFF80
700C0380
700C0380
400C0080
800C0040
800C0040
800C0040
000C0000
000C0000
000C0000
000C0000
000C0000
000C0000
000C0000
000C0000
000C0000
000C0000
000C0000
000C0000
000C0000
000C0000
007F8000
007F8000
ENDCHAR
STARTCHAR 0165
ENCODING 357
SWIDTH 1000 0
DWIDTH 32 0
BBX 17 29 7 -1
BITMAP
303000
303000
0CC000
078000
078000
030000
070000
070000
070000
070000
070000
FFFC00
FFFC00
070000
070000
070000
070000
070000
070000
070000
070000
070000
070000
070080
070080
070080
038300
007C00
007C00
ENDCHAR
STARTCHAR 016A
ENCODING 362
SWIDTH 1000 0
DWIDTH 32 0
BBX 24 27 4 -1
BITMAP
01FF80
000000
000000
000000
FF007F
180008
180008
180008
180008
180008
180008
180008
180008
180008
180008
180008
180008
180008
180008
180008
180008
0E0010
0E0010
0E0010
0780E0
00FF00
00FF00
ENDCHAR
STARTCHAR 016B
ENCODING 363
SWIDTH 1000 0
DWIDTH 32 0
BBX 20 22 5 -1
BITMAP
03FF00
03FF00
000000
000000
1C01C0
FC0FC0
FC0FC0
1C01C0
1C01C0
1C01C0
1C01C0
1C01C0
1C01C0
1C01C0
1C01C0
1C01C0
1C01C0
1C01C0
1C01C0
0E0FC0
01F1F0
01F1F0
ENDCHAR
STARTCHAR 016C
ENCODING 364
SWIDTH 1000 0
DWIDTH 32 0
BBX 24 29 4 -1
BITMAP
018180
018180
00FF00
007E00
007E00
000000
FF007F
180008
180008
180008
180008
180008
180008
180008
180008
180008
180008
180008
180008
180008
180008
180008
180008
0E0010
0E0010
0E0010
0780E0
00FF00
00FF00
ENDCHAR
STARTCHAR 016D
ENCODING 365
SWIDTH 1000 0
DWIDTH 32 0
BBX 20 23 5 -1
BITMAP
0E0E00
03FC00
03FC00
01F000
000000
1C01C0
FC0FC0
FC0FC0
1C01C0
1C01C0
1C01C0
1C01C0
1C01C0
1C01C0
1C01C0
1C01C0
1C01C0
1C01C0
1C01C0
1C01C0
0E0FC0
01F1F0
01F1F0
ENDCHAR
STARTCHAR 016E
ENCODING 366
SWIDTH 1000 0
DWIDTH 32 0
BBX 24 29 4 -1
BITMAP
001800
001800
006600
006600
007E00
001800
FF007F
180008
180008
180008
180008
180008
180008
180008
180008
180008
180008
180008
180008
180008
180008
180008
180008
0E0010
0E0010
0E0010
0780E0
00FF00
00FF00
ENDCHAR
STARTCHAR 016F
ENCODING 367
SWIDTH 1000 0
DWIDTH 32 0
BBX 20 25 5 -1
BITMAP
00E000
00E000
011000
011000
01F000
00E000
000000
1C01C0
FC0FC0
FC0FC0
1C01C0
1C01C0
1C01C0
1C01C0
1C01C0
1C01C0
1C01C0
1C01C0
1C01C0
1C01C0
1C01C0
1C01C0
0E0FC0
01F1F0
01F1F0
ENDCHAR
STARTCHAR 0170
ENCODING 368
SWIDTH 1000 0
DWIDTH 32 0
BBX 24 29 4 -1
BITMAP
00F8F8
00F8F8
01E1E0
070700
0F0F00
080800
FF007F
180008
180008
180008
180008
180008
180008
180008
180008
180008
180008
180008
180008
180008
180008
180008
180008
0E0010
0E0010
0E0010
0780E0
00FF00
00FF00
ENDCHAR
STARTCHAR 0171
ENCODING 369
SWIDTH 1000 0
DWIDTH 32 0
BBX 20 25 5 -1
BITMAP
01F1F0
01F1F0
03C3C0
0E0E00
1E1E00
101000
000000
1C01C0
FC0FC0
FC0FC0
1C01C0
1C01C0
1C01C0
1C01C0
1C01C0
1C01C0
1C01C0
1C01C0
1C01C0
1C01C0
1C01C0
1C01C0
0E0FC0
01F1F0
01F1F0
ENDCHAR
STARTCHAR 0179
ENCODING 377
SWIDTH 1000 0
DWIDTH 32 0
BBX 23 29 4 -1
BITMAP
001F00
001F00
007800
00E000
01E000
010000
1FFFFE
180078
1800F8
1000F0
6001E0
600780
600780
000700
000E00
001E00
007E00
007800
00F000
00E000
01E000
018000
078006
0F0006
1F000E
1E0008
780018
FFFFF8
FFFFF8
ENDCHAR
STARTCHAR 017A
ENCODING 378
SWIDTH 1000 0
DWIDTH 32 0
BBX 18 23 7 -1
BITMAP
00F800
03C000
07C000
070000
080000
7FFF80
7FFF80
700F00
403C00
803800
807800
007800
00F000
03C000
07C000
078000
070000
0F0040
3F00C0
3C0080
780380
FFFF80
FFFF80
ENDCHAR
STARTCHAR 017B
ENCODING 379
SWIDTH 1000 0
DWIDTH 32 0
BBX 23 27 4 -1
BITMAP
001800
001800
001800
000000
1FFFFE
180078
1800F8
1000F0
6001E0
600780
600780
000700
000E00
001E00
007E00
007800
00F000
00E000
01E000
018000
078006
0F0006
1F000E
1E0008
780018
FFFFF8
FFFFF8
ENDCHAR
STARTCHAR 017C
ENCODING 380
SWIDTH 1000 0
DWIDTH 32 0
BBX 18 23 7 -1
BITMAP
00C000
00C000
00C000
000000
000000
7FFF80
7FFF80
700F00
403C00
803800
807800
007800
00F000
03C000
07C000
078000
070000
0F0040
3F00C0
3C0080
780380
FFFF80
FFFF80
ENDCHAR
STARTCHAR 017D
ENCODING 381
SWIDTH 1000 0
DWIDTH 32 0
BBX 23 29 4 -1
BITMAP
010100
010100
00EE00
007800
007800
001000
1FFFFE
180078
1800F8
1000F0
6001E0
600780
600780
000700
000E00
001E00
007E00
007800
00F000
00E000
01E000
018000
078006
0F0006
1F000E
1E0008
780018
FFFFF8
FFFFF8
ENDCHAR
STARTCHAR 017E
ENCODING 382
SWIDTH 1000 0
DWIDTH 32 0
BBX 18 23 7 -1
BITMAP
080800
077000
07F000
03C000
008000
7FFF80
7FFF80
700F00
403C00
803800
807800
007800
00F000
03C000
07C000
078000
070000
0F0040
3F00C0
3C0080
780380
FFFF80
FFFF80
ENDCHAR
STARTCHAR 0193
ENCODING 403
SWIDTH 1000 0
DWIDTH 32 0
BBX 28 29 3 -1
BITMAP
000007C0
000007C0
00000C70
00003870
007C3870
007C3800
0383B800
0C007800
3C007800
38003800
70000800
70000800
F0000800
C0000000
C0000000
C0000000
C003FF80
C003FF80
C0003800
C0003800
F0003800
70003800
70003800
38003800
3C007800
0C007800
03838800
007C0800
007C0800
ENDCHAR
STARTCHAR 01C2
ENCODING 450
SWIDTH 1000 0
DWIDTH 32 0
BBX 14 26 9 -1
BITMAP
0300
0300
0300
0300
0300
0300
0300
0300
FFFC
FFFC
0300
0300
0300
0300
0300
0300
FFFC
FFFC
0300
0300
0300
0300
0300
0300
0300
0300
ENDCHAR
STARTCHAR 01CD
ENCODING 461
SWIDTH 1000 0
DWIDTH 32 0
BBX 26 29 3 -1
BITMAP
00808000
00808000
00770000
003C0000
003C0000
00080000
00000000
000C0000
003C0000
003C0000
00370000
00370000
00778000
00438000
00438000
0080C000
0080C000
0080C000
03007000
03FFF000
07FFF800
04003800
04003800
08000C00
08000C00
08000C00
38000F00
FF007FC0
FF007FC0
ENDCHAR
STARTCHAR 01CE
ENCODING 462
SWIDTH 1000 0
DWIDTH 32 0
BBX 20 25 7 -1
BITMAP
080800
080800
077000
03C000
03C000
008000
000000
0FF000
7FFC00
780C00
700700
000700
000700
000700
00FF00
0F0700
7F0700
700700
C00700
C00700
C00730
C00730
703F30
0FC3C0
0FC3C0
ENDCHAR
STARTCHAR 01D0
ENCODING 464
SWIDTH 1000 0
DWIDTH 32 0
BBX 10 25 11 -1
BITMAP
8080
8080
7700
3C00
3C00
0800
0000
FC00
FC00
0C00
0C00
0C00
0C00
0C00
0C00
0C00
0C00
0C00
0C00
0C00
0C00
0C00
0C00
FFC0
FFC0
ENDCHAR
STARTCHAR 01D1
ENCODING 465
SWIDTH 1000 0
DWIDTH 32 0
BBX 24 29 4 -1
BITMAP
010100
010100
00EE00
007800
007800
001000
00FF00
0700E0
0F00F0
0E0070
180018
70000E
70000E
70000E
E00007
E00007
E00007
E00007
E00007
E00007
F0000F
70000E
70000E
180018
1E0078
0E0070
0700E0
00FF00
00FF00
ENDCHAR
STARTCHAR 01D2
ENCODING 466
SWIDTH 1000 0
DWIDTH 32 0
BBX 18 23 7 -1
BITMAP
080800
077000
07F000
03C000
008000
03F000
0FFC00
0C0C00
380700
700380
700380
700380
C000C0
C000C0
C000C0
C000C0
700380
700380
780780
380700
0C0C00
03F000
03F000
ENDCHAR
STARTCHAR 01D4
ENCODING 468
SWIDTH 1000 0
DWIDTH 32 0
BBX 20 23 5 -1
BITMAP
020200
01DC00
01FC00
00F000
002000
1C01C0
FC0FC0
FC0FC0
1C01C0
1C01C0
1C01C0
1C01C0
1C01C0
1C01C0
1C01C0
1C01C0
1C01C0
1C01C0
1C01C0
1C01C0
0E0FC0
01F1F0
01F1F0
ENDCHAR
STARTCHAR 01D6
ENCODING 470
SWIDTH 1000 0
DWIDTH 32 0
BBX 20 26 5 -1
BITMAP
03FF00
03FF00
000000
000000
01CE00
01CE00
01CE00
000000
1C01C0
FC0FC0
FC0FC0
1C01C0
1C01C0
1C01C0
1C01C0
1C01C0
1C01C0
1C01C0
1C01C0
1C01C0
1C01C0
1C01C0
1C01C0
0E0FC0
01F1F0
01F1F0
ENDCHAR
STARTCHAR 01D8
ENCODING 472
SWIDTH 1000 0
DWIDTH 32 0
BBX 20 27 5 -1
BITMAP
003E00
00F000
01F000
01C000
020000
01CE00
01CE00
01CE00
000000
1C01C0
FC0FC0
FC0FC0
1C01C0
1C01C0
1C01C0
1C01C0
1C01C0
1C01C0
1C01C0
1C01C0
1C01C0
1C01C0
1C01C0
1C01C0
0E0FC0
01F1F0
01F1F0
ENDCHAR
STARTCHAR 01DA
ENCODING 474
SWIDTH 1000 0
DWIDTH 32 0
BBX 20 27 5 -1
BITMAP
020200
01DC00
01FC00
00F000
002000
01CE00
01CE00
01CE00
000000
1C01C0
FC0FC0
FC0FC0
1C01C0
1C01C0
1C01C0
1C01C0
1C01C0
1C01C0
1C01C0
1C01C0
1C01C0
1C01C0
1C01C0
1C01C0
0E0FC0
01F1F0
01F1F0
ENDCHAR
STARTCHAR 01DC
ENCODING 476
SWIDTH 1000 0
DWIDTH 32 0
BBX 20 27 5 -1
BITMAP
01F000
003C00
003E00
000E00
000100
01CE00
01CE00
01CE00
000000
1C01C0
FC0FC0
FC0FC0
1C01C0
1C01C0
1C01C0
1C01C0
1C01C0
1C01C0
1C01C0
1C01C0
1C01C0
1C01C0
1C01C0
1C01C0
0E0FC0
01F1F0
01F1F0
ENDCHAR
STARTCHAR 01F8
ENCODING 504
SWIDTH 1000 0
DWIDTH 32 0
BBX 24 29 4 -1
BITMAP
00F800
00F800
001E00
000700
000780
000080
F8007F
1E0008
1F0008
1F0008
178008
118008
11E008
10E008
10F008
107808
107E08
101E08
100E08
100708
100788
100788
1001E8
1000F8
1000F8
100078
100018
FE0008
FE0008
ENDCHAR
STARTCHAR 01F9
ENCODING 505
SWIDTH 1000 0
DWIDTH 32 0
BBX 20 25 7 -1
BITMAP
07C000
07C000
00F000
003800
003C00
000400
000000
38F800
FFFF00
FF0700
380380
380380
380380
380380
380380
380380
380380
380380
380380
380380
380380
380380
380380
FF0FF0
FF0FF0
ENDCHAR
STARTCHAR 01FD
ENCODING 509
SWIDTH 1000 0
DWIDTH 32 0
BBX 26 25 3 -1
BITMAP
000F8000
000F8000
003C0000
00700000
00F00000
00800000
00000000
0FC07800
7FFBFF00
783B8700
700F0380
000C0380
000C03C0
000C00C0
03FFFFC0
0C0C0000
7C0C0000
700C0000
C00C0000
C00C0000
C00F0040
C00F0040
70738380
0F807C00
0F807C00
ENDCHAR
STARTCHAR 0250
ENCODING 592
SWIDTH 1000 0
DWIDTH 32 0
BBX 20 18 5 -1
BITMAP
3C3F00
FFFFE0
CFC0E0
CE0030
0E0030
0E0030
0E0030
0E00E0
0E0F00
0FFF00
0FF000
0E0000
0E0000
0E00E0
0E00E0
0301E0
00FF00
00FF00
ENDCHAR
STARTCHAR 0251
ENCODING 593
SWIDTH 1000 0
DWIDTH 32 0
BBX 20 18 7 -1
BITMAP
07F300
3FFF00
380F00
700700
700700
F00700
C00700
C00700
C00700
C00700
C00700
C00700
700700
700730
700730
380F30
07F3C0
07F3C0
ENDCHAR
STARTCHAR 0252
ENCODING 594
SWIDTH 1000 0
DWIDTH 32 0
BBX 20 18 5 -1
BITMAP
3CFE00
FFFFC0
CF01C0
CE00E0
0E00E0
0E00F0
0E0030
0E0030
0E0030
0E0030
0E0030
0E0030
0E00E0
0E00E0
0E00E0
0F01C0
0CFE00
0CFE00
ENDCHAR
STARTCHAR 0253
ENCODING 595
SWIDTH 1000 0
DWIDTH 32 0
BBX 17 26 8 -1
BITMAP
0F8000
1FF000
187000
701800
701800
F01800
E00000
E00000
E1F000
EFFE00
EE0E00
F00700
E00700
E00780
E00180
E00180
E00180
E00180
E00180
E00180
E00700
E00700
E00700
F80E00
87F000
87F000
ENDCHAR
STARTCHAR 0254
ENCODING 596
SWIDTH 1000 0
DWIDTH 32 0
BBX 16 18 9 -1
BITMAP
0FC0
3FF0
3030
C01C
000E
000E
000E
0003
0003
0003
0003
000E
E00E
E01E
E01C
3030
0FC0
0FC0
ENDCHAR
STARTCHAR 0255
ENCODING 597
SWIDTH 1000 0
DWIDTH 32 0
BBX 17 22 7 -5
BITMAP
03F800
0FFF00
0C0700
380380
700380
700380
700000
C00000
C00000
C00000
C00000
700F00
703080
787080
384080
0C8700
03F800
03F800
030000
040000
080000
080000
ENDCHAR
STARTCHAR 0256
ENCODING 598
SWIDTH 1000 0
DWIDTH 32 0
BBX 24 30 7 -5
BITMAP
000380
000F80
000F80
000380
000380
000380
000380
000380
07C380
3FFB80
383B80
700780
700380
F00380
C00380
C00380
C00380
C00380
C00380
C00380
700380
700380
700380
380F80
07F380
07F387
000387
0000C7
00007C
00007C
ENDCHAR
STARTCHAR 0257
ENCODING 599
SWIDTH 1000 0
DWIDTH 32 0
BBX 24 26 5 -1
BITMAP
00003E
0000FF
0000E3
0001C3
0001C0
0001C0
0001C0
0001C0
03E1C0
1FFDC0
1C1DC0
3003C0
3001C0
F001C0
E001C0
E001C0
E001C0
E001C0
E001C0
E001C0
3001C0
3001C0
3001C0
1C0FC0
03F1F0
03F1F0
ENDCHAR
STARTCHAR 0258
ENCODING 600
SWIDTH 1000 0
DWIDTH 32 0
BBX 17 18 8 -1
BITMAP
07E000
1FF800
181800
700E00
700700
F00700
E00700
FFFF80
000180
000180
000180
000700
000700
800F00
800E00
701800
0FE000
0FE000
ENDCHAR
STARTCHAR 0259
ENCODING 601
SWIDTH 1000 0
DWIDTH 32 0
BBX 17 18 8 -1
BITMAP
0FE000
7FF800
701800
800E00
000700
000700
000700
000180
000180
FFFF80
FFFF80
E00700
700700
700F00
700E00
181800
07E000
07E000
ENDCHAR
STARTCHAR 025A
ENCODING 602
SWIDTH 1000 0
DWIDTH 32 0
BBX 24 18 4 -1
BITMAP
0FE000
7FF800
701800
800E00
000E10
000FF0
0007F0
007F10
078719
FF871F
F8070E
E00700
700E00
700E00
700E00
181800
07E000
07E000
ENDCHAR
STARTCHAR 025C
ENCODING 604
SWIDTH 1000 0
DWIDTH 32 0
BBX 14 18 9 -1
BITMAP
1FC0
FFF0
F0F0
E01C
C01C
C01C
001C
0030
0FC0
0FF0
0030
001C
C01C
E01C
E01C
F030
1FC0
1FC0
ENDCHAR
STARTCHAR 025E
ENCODING 606
SWIDTH 1000 0
DWIDTH 32 0
BBX 15 18 8 -1
BITMAP
0FE0
1FF8
1878
700E
700E
F00E
E00E
E018
E7E0
E7F8
E018
E00E
700E
700E
700E
1818
0FE0
0FE0
ENDCHAR
STARTCHAR 025F
ENCODING 607
SWIDTH 1000 0
DWIDTH 32 0
BBX 18 22 7 -5
BITMAP
00FF00
00FF00
003800
003800
003800
003800
003800
003800
003800
003800
003800
003800
07FFC0
07FFC0
003800
003800
007000
C07000
C07000
C0C000
7F0000
7F0000
ENDCHAR
STARTCHAR 0260
ENCODING 608
SWIDTH 1000 0
DWIDTH 32 0
BBX 24 26 5 -5
BITMAP
00003E
0000FF
0000E3
0001C3
03F1C0
1FFFC0
1C0FC0
3001C0
3001C0
F001C0
E001C0
E001C0
E001C0
F001C0
3001C0
3001C0
1C0FC0
1FFFC0
03F1C0
0001C0
300300
300300
300300
1C0E00
03F000
03F000
ENDCHAR
STARTCHAR 0261
ENCODING 609
SWIDTH 1000 0
DWIDTH 32 0
BBX 17 22 7 -5
BITMAP
07F080
3FFF80
380F80
700380
700380
F00380
C00380
C00380
C00380
F00380
700380
700380
380F80
3FFF80
07F380
000380
700700
700700
700700
380C00
07F000
07F000
ENDCHAR
STARTCHAR 0264
ENCODING 612
SWIDTH 1000 0
DWIDTH 32 0
BBX 18 18 7 -1
BITMAP
FF0FC0
FF0FC0
380300
0C0400
0C0400
0F0C00
070800
038800
03B000
03F000
00F000
00F000
00F000
03F800
033800
033800
00F000
00F000
ENDCHAR
STARTCHAR 0265
ENCODING 613
SWIDTH 1000 0
DWIDTH 32 0
BBX 22 26 5 -1
BITMAP
FF03FC
FF03FC
1C00E0
1C00E0
1C00E0
1C00E0
1C00E0
1C00E0
1C00E0
1C00E0
1C00E0
1C00E0
1C00E0
1C01E0
1C01E0
0E0EE0
01F0E0
01F0E0
0000E0
0000E0
0000E0
0000E0
0000E0
0000FC
0000E0
0000E0
ENDCHAR
STARTCHAR 0266
ENCODING 614
SWIDTH 1000 0
DWIDTH 32 0
BBX 22 26 5 -1
BITMAP
01F000
03FE00
030E00
0E0300
0E0300
1E0300
1C0000
1C0000
1C3E00
1DFFC0
1DC1C0
1E00E0
1C00E0
1C00E0
1C00E0
1C00E0
1C00E0
1C00E0
1C00E0
1C00E0
1C00E0
1C00E0
1C00E0
1C00E0
FF03FC
FF03FC
ENDCHAR
STARTCHAR 0267
ENCODING 615
SWIDTH 1000 0
DWIDTH 32 0
BBX 19 30 5 -5
BITMAP
01F000
03FE00
030E00
0E0300
0E0300
1E0300
1C0000
1C0000
1C3E00
1DFFC0
1DC1C0
1E00E0
1C00E0
1C00E0
1C00E0
1C00E0
1C00E0
1C00E0
1C00E0
1C00E0
1C00E0
1C00E0
1C00E0
1C00E0
FF00E0
FF30E0
0030E0
0031C0
001F00
001F00
ENDCHAR
STARTCHAR 0268
ENCODING 616
SWIDTH 1000 0
DWIDTH 32 0
BBX 14 26 9 -1
BITMAP
0F00
0F00
0F00
0F00
0000
0000
0000
0000
3F00
3F00
0300
0300
0300
0300
0300
FFFC
0300
0300
0300
0300
0300
0300
0300
0300
3FF0
3FF0
ENDCHAR
STARTCHAR 026C
ENCODING 620
SWIDTH 1000 0
DWIDTH 32 0
BBX 14 26 9 -1
BITMAP
0300
1F00
1F00
0300
0300
0300
0300
0300
0300
3300
3300
CF00
C300
E300
E300
3FFC
0300
0300
0300
0300
0300
0300
0300
0300
1FE0
1FE0
ENDCHAR
STARTCHAR 026D
ENCODING 621
SWIDTH 1000 0
DWIDTH 32 0
BBX 12 30 12 -5
BITMAP
1800
F800
F800
1800
1800
1800
1800
1800
1800
1800
1800
1800
1800
1800
1800
1800
1800
1800
1800
1800
1800
1800
1800
1800
1800
1870
1870
0E70
07E0
07E0
ENDCHAR
STARTCHAR 026E
ENCODING 622
SWIDTH 1000 0
DWIDTH 32 0
BBX 18 30 7 -5
BITMAP
380000
F80000
F80000
380000
380000
380000
380000
380000
3FFF80
3FFF80
380700
380C00
383800
387800
387000
38C000
3BF800
3BFF00
380700
380380
3800C0
3800C0
3800C0
FF00C0
0000C0
0C03C0
0C0380
070700
00F800
00F800
ENDCHAR
STARTCHAR 026F
ENCODING 623
SWIDTH 1000 0
DWIDTH 32 0
BBX 26 18 3 -1
BITMAP
FC3F0FC0
FC3F0FC0
380C0700
380C0700
380C0700
380C0700
380C0700
380C0700
380C0700
380C0700
380C0700
380C0700
380C0700
380C0700
380C0700
08743FC0
0783C700
0783C700
ENDCHAR
STARTCHAR 0270
ENCODING 624
SWIDTH 1000 0
DWIDTH 32 0
BBX 26 22 3 -5
BITMAP
FC3F0FC0
FC3F0FC0
380C0700
380C0700
380C0700
380C0700
380C0700
380C0700
380C0700
380C0700
380C0700
380C0700
380C0700
380C0700
380C0700
08743F00
0783C700
0783C700
00000700
000007C0
00000700
00000700
ENDCHAR
STARTCHAR 0271
ENCODING 625
SWIDTH 1000 0
DWIDTH 32 0
BBX 24 22 4 -5
BITMAP
18F078
FFF9FE
FF0986
180E07
180E07
180E07
180E07
180E07
180E07
180E07
180E07
180E07
180E07
180E07
180E07
180E07
FE1F07
FE1F07
000007
00018E
0000F8
0000F8
ENDCHAR
STARTCHAR 0272
ENCODING 626
SWIDTH 1000 0
DWIDTH 32 0
BBX 24 22 3 -5
BITMAP
038F80
0FFFF0
0FF070
038038
038038
038038
038038
038038
038038
038038
038038
038038
038038
038038
038038
038038
0380FF
C380FF
C38000
C70000
7C0000
7C0000
ENDCHAR
STARTCHAR 0273
ENCODING 627
SWIDTH 1000 0
DWIDTH 32 0
BBX 24 22 7 -5
BITMAP
38F800
FFFF00
FF0700
380380
380380
380380
380380
380380
380380
380380
380380
380380
380380
380380
380380
380380
FF0380
FF0387
000387
0000C7
00007C
00007C
ENDCHAR
STARTCHAR 0275
ENCODING 629
SWIDTH 1000 0
DWIDTH 32 0
BBX 18 18 7 -1
BITMAP
03F000
0FFC00
0C0C00
380700
700380
700380
700380
FFFFC0
C000C0
C000C0
C000C0
700380
700380
780780
380700
0C0C00
03F000
03F000
ENDCHAR
STARTCHAR 0279
ENCODING 633
SWIDTH 1000 0
DWIDTH 32 0
BBX 17 18 7 -1
BITMAP
007F80
007F80
000C00
000C00
000C00
000C00
000C00
000C00
000C00
000C00
000C00
003C00
004C00
C3CC00
C38C00
FF0F80
780C00
780C00
ENDCHAR
STARTCHAR 027A
ENCODING 634
SWIDTH 1000 0
DWIDTH 32 0
BBX 17 26 7 -1
BITMAP
000C00
007C00
007C00
000C00
000C00
000C00
000C00
000C00
000C00
000C00
000C00
000C00
000C00
000C00
000C00
000C00
000C00
000C00
000C00
003C00
004C00
C3CC00
C38C00
FF0F80
780C00
780C00
ENDCHAR
STARTCHAR 027B
ENCODING 635
SWIDTH 1000 0
DWIDTH 32 0
BBX 21 22 7 -5
BITMAP
007F80
007F80
000C00
000C00
000C00
000C00
000C00
000C00
000C00
000C00
000C00
003C00
004C00
C3CC00
C38C00
FF0C00
780C00
780C38
000C38
000738
0003F0
0003F0
ENDCHAR
STARTCHAR 027D
ENCODING 637
SWIDTH 1000 0
DWIDTH 32 0
BBX 17 22 8 -5
BITMAP
180F00
F87F80
F87F80
18E180
190000
1F0000
1E0000
180000
180000
180000
180000
180000
180000
180000
180000
180000
180000
187000
187000
0E7000
07E000
07E000
ENDCHAR
STARTCHAR 027E
ENCODING 638
SWIDTH 1000 0
DWIDTH 32 0
BBX 14 18 9 -1
BITMAP
01F0
03FC
031C
0E1C
0E00
0E00
0E00
0E00
0E00
0E00
0E00
0E00
0E00
0E00
0E00
0E00
FFE0
FFE0
ENDCHAR
STARTCHAR 0281
ENCODING 641
SWIDTH 1000 0
DWIDTH 32 0
BBX 16 18 8 -1
BITMAP
FF1F
FF1F
1818
1870
1870
18F0
18E0
18E0
1FF0
1FFE
180E
1807
1807
1807
1807
180E
FFF0
FFF0
ENDCHAR
STARTCHAR 0282
ENCODING 642
SWIDTH 1000 0
DWIDTH 32 0
BBX 16 22 8 -5
BITMAP
0FE6
7FFE
701E
E00E
E006
F006
F000
7F80
0FF8
0FFE
007E
000F
8007
E007
E007
F00E
8FF0
8FF0
8000
EE00
7800
7800
ENDCHAR
STARTCHAR 0283
ENCODING 643
SWIDTH 1000 0
DWIDTH 32 0
BBX 16 33 8 -5
BITMAP
007E
007E
00E7
0187
0187
0180
0180
0180
0180
0180
0180
0180
0180
0180
0180
0180
0180
0180
0180
0180
0180
0180
0180
0180
0180
0180
0180
0180
E180
E180
E700
7E00
7E00
ENDCHAR
STARTCHAR 0284
ENCODING 644
SWIDTH 1000 0
DWIDTH 32 0
BBX 20 26 7 -5
BITMAP
0007C0
000FF0
000C70
003870
003800
003800
003800
003800
003800
003800
003800
003800
003800
003800
003800
003800
07FFC0
07FFC0
003800
003800
007000
C07000
C07000
C0C000
7F0000
7F0000
ENDCHAR
STARTCHAR 0288
ENCODING 648
SWIDTH 1000 0
DWIDTH 32 0
BBX 14 30 7 -5
BITMAP
0700
0700
0700
0700
0700
0700
0700
0700
FFFC
FFFC
0700
0700
0700
0700
0700
0700
0700
0700
0700
0700
0700
0700
0700
0700
0700
070C
070C
038C
00F8
00F8
ENDCHAR
STARTCHAR 0289
ENCODING 649
SWIDTH 1000 0
DWIDTH 32 0
BBX 23 18 4 -1
BITMAP
0E00E0
7E07E0
7E07E0
0E00E0
0E00E0
0E00E0
0E00E0
FFFFFE
0E00E0
0E00E0
0E00E0
0E00E0
0E00E0
0E00E0
0E00E0
0707E0
00F8F8
00F8F8
ENDCHAR
STARTCHAR 028A
ENCODING 650
SWIDTH 1000 0
DWIDTH 32 0
BBX 18 18 7 -1
BITMAP
FC0FC0
FC0FC0
0C0C00
080400
380700
380700
380700
700380
700380
700380
700380
700380
700380
780780
380700
0C0C00
03F000
03F000
ENDCHAR
STARTCHAR 028B
ENCODING 651
SWIDTH 1000 0
DWIDTH 32 0
BBX 17 18 7 -1
BITMAP
380700
F80780
F80780
380380
380080
380080
380080
380080
380080
380080
380080
380380
380300
380700
380700
0C0C00
07F800
07F800
ENDCHAR
STARTCHAR 028C
ENCODING 652
SWIDTH 1000 0
DWIDTH 32 0
BBX 22 18 5 -1
BITMAP
002000
003000
003000
00F000
00DC00
01DC00
011C00
010E00
020E00
020F00
020300
0C0300
0C01C0
1C01C0
1001C0
1000E0
FE03FC
FE03FC
ENDCHAR
STARTCHAR 028D
ENCODING 653
SWIDTH 1000 0
DWIDTH 32 0
BBX 30 18 1 -1
BITMAP
00C00C00
00C00C00
00C00C00
01E01E00
01201200
01303300
01302300
02302300
021C2300
021CE3C0
021CC1C0
0C0EC1C0
0C0EC1C0
0C0FC1E0
0C0300E0
1C0300E0
FF1FE3FC
FF1FE3FC
ENDCHAR
STARTCHAR 028E
ENCODING 654
SWIDTH 1000 0
DWIDTH 32 0
BBX 22 22 5 -1
BITMAP
0001F0
0003FC
00021C
000C1C
001000
001000
001000
002000
00F000
00FC00
00DC00
011C00
010E00
030E00
020E00
020300
0C0300
0C03C0
0C01C0
1001C0
FE0FF0
FE0FF0
ENDCHAR
STARTCHAR 0290
ENCODING 656
SWIDTH 1000 0
DWIDTH 32 0
BBX 22 22 7 -5
BITMAP
7FFF80
7FFF80
700F00
403C00
803800
807800
007800
00F000
03C000
07C000
078000
070000
0F0040
3F00C0
3C0080
780380
FFFF80
FFFF8C
00008C
0000CC
000078
000078
ENDCHAR
STARTCHAR 0291
ENCODING 657
SWIDTH 1000 0
DWIDTH 32 0
BBX 20 22 7 -5
BITMAP
7FFF80
7FFF80
700F00
403C00
803800
807800
007800
00F000
03C000
07C000
078000
0703C0
0F0430
3F0C30
3C0830
783030
FFFFC0
FFFFC0
004000
008000
030000
030000
ENDCHAR
STARTCHAR 0292
ENCODING 658
SWIDTH 1000 0
DWIDTH 32 0
BBX 16 22 8 -5
BITMAP
7FFE
7FFE
7018
6070
00E0
01E0
0180
0700
0FE0
0FF8
0018
000E
0007
0007
0007
E007
E007
F00F
700E
1818
07E0
07E0
ENDCHAR
STARTCHAR 0294
ENCODING 660
SWIDTH 1000 0
DWIDTH 32 0
BBX 13 26 11 -1
BITMAP
3F80
7FC0
70C0
C070
C038
C038
0038
0038
0038
0078
0070
0070
00C0
0FC0
0F00
0C00
0C00
0C00
0C00
0C00
0C00
0C00
0C00
0C00
7F80
7F80
ENDCHAR
STARTCHAR 0295
ENCODING 661
SWIDTH 1000 0
DWIDTH 32 0
BBX 13 26 8 -1
BITMAP
0FE0
1FF0
1870
7018
E018
E018
E000
E000
E000
F000
7000
7000
1800
1F80
0780
0180
0180
0180
0180
0180
0180
0180
0180
0180
0FF0
0FF0
ENDCHAR
STARTCHAR 0298
ENCODING 664
SWIDTH 1000 0
DWIDTH 32 0
BBX 17 18 7 -1
BITMAP
07F000
3FFC00
380C00
400300
400300
C00380
800080
83C080
83C080
83C080
83C080
800080
400300
400300
400300
380C00
07F000
07F000
ENDCHAR
STARTCHAR 029D
ENCODING 669
SWIDTH 1000 0
DWIDTH 32 0
BBX 20 30 7 -5
BITMAP
007800
007800
007800
007800
000000
000000
000000
000000
00F800
00F800
003800
003800
003800
003800
003800
003800
003800
003800
003800
003800
0FF800
7FFF00
703F00
C038C0
C07030
C07030
C07000
70C000
0F0000
0F0000
ENDCHAR
STARTCHAR 02A1
ENCODING 673
SWIDTH 1000 0
DWIDTH 32 0
BBX 15 26 9 -1
BITMAP
0FE0
1FF0
1C30
301C
300E
300E
000E
000E
000E
001E
001C
001C
0030
03F0
03C0
0300
0300
FFFC
FFFC
0300
0300
0300
0300
0300
1FE0
1FE0
ENDCHAR
STARTCHAR 02A2
ENCODING 674
SWIDTH 1000 0
DWIDTH 32 0
BBX 15 26 8 -1
BITMAP
0FE0
1FF0
1870
7018
E018
E018
E000
E000
E000
F000
7000
7000
1800
1F80
0780
0180
0180
7FFE
7FFE
0180
0180
0180
0180
0180
0FF0
0FF0
ENDCHAR
STARTCHAR 02C7
ENCODING 711
SWIDTH 1000 0
DWIDTH 32 0
BBX 9 6 11 22
BITMAP
8080
8080
7700
3C00
3C00
0800
ENDCHAR
STARTCHAR 02C8
ENCODING 712
SWIDTH 1000 0
DWIDTH 32 0
BBX 2 10 15 18
BITMAP
C0
C0
C0
C0
C0
C0
C0
C0
C0
C0
ENDCHAR
STARTCHAR 02CC
ENCODING 716
SWIDTH 1000 0
DWIDTH 32 0
BBX 2 7 15 -5
BITMAP
C0
C0
C0
C0
C0
C0
C0
ENDCHAR
STARTCHAR 02D0
ENCODING 720
SWIDTH 1000 0
DWIDTH 32 0
BBX 7 18 12 -1
BITMAP
FE
FE
78
78
10
10
10
00
00
00
00
10
10
78
78
78
FE
FE
ENDCHAR
STARTCHAR 02D1
ENCODING 721
SWIDTH 1000 0
DWIDTH 32 0
BBX 7 7 12 10
BITMAP
FE
FE
78
78
10
10
10
ENDCHAR
STARTCHAR 02D8
ENCODING 728
SWIDTH 1000 0
DWIDTH 32 0
BBX 10 5 11 23
BITMAP
C0C0
C0C0
7F80
3F00
3F00
ENDCHAR
STARTCHAR 02D9
ENCODING 729
SWIDTH 1000 0
DWIDTH 32 0
BBX 2 3 15 23
BITMAP
C0
C0
C0
ENDCHAR
STARTCHAR 02DB
ENCODING 731
SWIDTH 1000 0
DWIDTH 32 0
BBX 8 7 12 -5
BITMAP
18
70
F0
E0
F1
7E
7E
ENDCHAR
STARTCHAR 02DD
ENCODING 733
SWIDTH 1000 0
DWIDTH 32 0
BBX 17 6 8 22
BITMAP
0F8F80
0F8F80
1E1E00
707000
F0F000
808000
ENDCHAR
STARTCHAR 02DE
ENCODING 734
SWIDTH 1000 0
DWIDTH 32 0
BBX 10 9 11 5
BITMAP
0800
3800
F800
C800
0800
0C40
0FC0
0F80
0700
ENDCHAR
STARTCHAR 02E5
ENCODING 741
SWIDTH 1000 0
DWIDTH 32 0
BBX 10 28 11 -2
BITMAP
FFC0
0040
0040
0040
0040
0040
0040
0040
0040
0040
0040
0040
0040
0040
0040
0040
0040
0040
0040
0040
0040
0040
0040
0040
0040
0040
0040
0040
ENDCHAR
STARTCHAR 02E6
ENCODING 742
SWIDTH 1000 0
DWIDTH 32 0
BBX 10 28 11 -2
BITMAP
0040
0040
0040
0040
0040
0040
FFC0
FFC0
0040
0040
0040
0040
0040
0040
0040
0040
0040
0040
0040
0040
0040
0040
0040
0040
0040
0040
0040
0040
ENDCHAR
STARTCHAR 02E7
ENCODING 743
SWIDTH 1000 0
DWIDTH 32 0
BBX 10 28 11 -2
BITMAP
0040
0040
0040
0040
0040
0040
0040
0040
0040
0040
0040
0040
0040
FFC0
FFC0
0040
0040
0040
0040
0040
0040
0040
0040
0040
0040
0040
0040
0040
ENDCHAR
STARTCHAR 02E8
ENCODING 744
SWIDTH 1000 0
DWIDTH 32 0
BBX 10 28 11 -2
BITMAP
0040
0040
0040
0040
0040
0040
0040
0040
0040
0040
0040
0040
0040
0040
0040
0040
0040
0040
0040
0040
FFC0
0040
0040
0040
0040
0040
0040
0040
ENDCHAR
STARTCHAR 02E9
ENCODING 745
SWIDTH 1000 0
DWIDTH 32 0
BBX 10 28 11 -2
BITMAP
0040
0040
0040
0040
0040
0040
0040
0040
0040
0040
0040
0040
0040
0040
0040
0040
0040
0040
0040
0040
0040
0040
0040
0040
0040
0040
FFC0
FFC0
ENDCHAR
STARTCHAR 0300
ENCODING 768
SWIDTH 1000 0
DWIDTH 32 0
BBX 9 6 12 22
BITMAP
F800
F800
1E00
0700
0780
0080
ENDCHAR
STARTCHAR 0301
ENCODING 769
SWIDTH 1000 0
DWIDTH 32 0
BBX 9 6 11 22
BITMAP
0F80
0F80
3C00
7000
F000
8000
ENDCHAR
STARTCHAR 0302
ENCODING 770
SWIDTH 1000 0
DWIDTH 32 0
BBX 9 6 11 22
BITMAP
0800
0800
3C00
7700
F780
8080
ENDCHAR
STARTCHAR 0303
ENCODING 771
SWIDTH 1000 0
DWIDTH 32 0
BBX 14 5 9 23
BITMAP
1E0C
1E0C
2310
C1E0
C1E0
ENDCHAR
STARTCHAR 0304
ENCODING 772
SWIDTH 1000 0
DWIDTH 32 0
BBX 10 1 11 25
BITMAP
FFC0
ENDCHAR
STARTCHAR 0306
ENCODING 774
SWIDTH 1000 0
DWIDTH 32 0
BBX 10 5 11 23
BITMAP
C0C0
C0C0
7F80
3F00
3F00
ENDCHAR
STARTCHAR 0308
ENCODING 776
SWIDTH 1000 0
DWIDTH 32 0
BBX 8 3 12 23
BITMAP
E7
E7
E7
ENDCHAR
STARTCHAR 030B
ENCODING 779
SWIDTH 1000 0
DWIDTH 32 0
BBX 17 6 8 22
BITMAP
0F8F80
0F8F80
1E1E00
707000
F0F000
808000
ENDCHAR
STARTCHAR 030C
ENCODING 780
SWIDTH 1000 0
DWIDTH 32 0
BBX 9 6 11 22
BITMAP
8080
8080
7700
3C00
3C00
0800
ENDCHAR
STARTCHAR 030F
ENCODING 783
SWIDTH 1000 0
DWIDTH 32 0
BBX 17 6 7 22
BITMAP
F8F800
F8F800
3C3C00
070700
078780
008080
ENDCHAR
STARTCHAR 0318
ENCODING 792
SWIDTH 1000 0
DWIDTH 32 0
BBX 8 7 12 -5
BITMAP
01
01
FF
FF
01
01
01
ENDCHAR
STARTCHAR 0319
ENCODING 793
SWIDTH 1000 0
DWIDTH 32 0
BBX 8 7 12 -5
BITMAP
80
80
FF
FF
80
80
80
ENDCHAR
STARTCHAR 031A
ENCODING 794
SWIDTH 1000 0
DWIDTH 32 0
BBX 8 7 16 19
BITMAP
FF
01
01
01
01
01
01
ENDCHAR
STARTCHAR 031C
ENCODING 796
SWIDTH 1000 0
DWIDTH 32 0
BBX 4 6 13 -5
BITMAP
30
F0
C0
C0
30
30
ENDCHAR
STARTCHAR 031D
ENCODING 797
SWIDTH 1000 0
DWIDTH 32 0
BBX 9 6 11 -5
BITMAP
0800
0800
0800
0800
FF80
FF80
ENDCHAR
STARTCHAR 031E
ENCODING 798
SWIDTH 1000 0
DWIDTH 32 0
BBX 9 6 11 -5
BITMAP
FF80
FF80
0800
0800
0800
0800
ENDCHAR
STARTCHAR 031F
ENCODING 799
SWIDTH 1000 0
DWIDTH 32 0
BBX 7 7 12 -5
BITMAP
10
10
FE
FE
10
10
10
ENDCHAR
STARTCHAR 0320
ENCODING 800
SWIDTH 1000 0
DWIDTH 32 0
BBX 8 2 12 -2
BITMAP
FF
FF
ENDCHAR
STARTCHAR 0324
ENCODING 804
SWIDTH 1000 0
DWIDTH 32 0
BBX 8 3 12 -5
BITMAP
E7
E7
E7
ENDCHAR
STARTCHAR 0325
ENCODING 805
SWIDTH 1000 0
DWIDTH 32 0
BBX 6 6 13 -5
BITMAP
30
FC
CC
CC
30
30
ENDCHAR
STARTCHAR 0329
ENCODING 809
SWIDTH 1000 0
DWIDTH 32 0
BBX 2 6 15 -5
BITMAP
C0
C0
C0
C0
C0
C0
ENDCHAR
STARTCHAR 032A
ENCODING 810
SWIDTH 1000 0
DWIDTH 32 0
BBX 10 6 11 -5
BITMAP
FFC0
FFC0
8040
8040
8040
8040
ENDCHAR
STARTCHAR 032C
ENCODING 812
SWIDTH 1000 0
DWIDTH 32 0
BBX 9 6 11 -5
BITMAP
8080
F780
7700
3C00
0800
0800
ENDCHAR
STARTCHAR 032F
ENCODING 815
SWIDTH 1000 0
DWIDTH 32 0
BBX 10 5 11 -5
BITMAP
3F00
3F00
7F80
C0C0
C0C0
ENDCHAR
STARTCHAR 0330
ENCODING 816
SWIDTH 1000 0
DWIDTH 32 0
BBX 14 5 9 -5
BITMAP
1E0C
1E0C
2310
C1E0
C1E0
ENDCHAR
STARTCHAR 0334
ENCODING 820
SWIDTH 1000 0
DWIDTH 32 0
BBX 14 4 9 10
BITMAP
1E0C
2310
E3F0
C1E0
ENDCHAR
STARTCHAR 0339
ENCODING 825
SWIDTH 1000 0
DWIDTH 32 0
BBX 4 6 15 -5
BITMAP
C0
F0
30
30
C0
C0
ENDCHAR
STARTCHAR 033A
ENCODING 826
SWIDTH 1000 0
DWIDTH 32 0
BBX 10 6 11 -5
BITMAP
8040
8040
8040
8040
FFC0
FFC0
ENDCHAR
STARTCHAR 033B
ENCODING 827
SWIDTH 1000 0
DWIDTH 32 0
BBX 10 6 11 -5
BITMAP
FFC0
FFC0
8040
8040
FFC0
FFC0
ENDCHAR
STARTCHAR 033C
ENCODING 828
SWIDTH 1000 0
DWIDTH 32 0
BBX 16 6 8 -5
BITMAP
1818
7E7E
7E7E
E7E7
8181
8181
ENDCHAR
STARTCHAR 033D
ENCODING 829
SWIDTH 1000 0
DWIDTH 32 0
BBX 8 7 12 21
BITMAP
87
87
6E
18
7E
76
E1
ENDCHAR
STARTCHAR 0361
ENCODING 865
SWIDTH 1000 0
DWIDTH 32 0
BBX 32 7 0 19
BITMAP
007FFE00
07FFFFE0
1FFFFFF8
1F8001F8
7000000E
80000001
80000001
ENDCHAR
STARTCHAR 0391
ENCODING 913
SWIDTH 1000 0
DWIDTH 32 0
BBX 26 26 3 -1
BITMAP
00080000
00080000
00080000
003C0000
003C0000
003F0000
00370000
00470000
00438000
00C38000
00838000
0080C000
0080C000
0380F000
03007000
03007000
07FFF800
07FFF800
04003800
08000C00
08000C00
38000F00
30000700
30000700
FC003FC0
FC003FC0
ENDCHAR
STARTCHAR 0392
ENCODING 914
SWIDTH 1000 0
DWIDTH 32 0
BBX 22 26 5 -1
BITMAP
FFFE00
FFFFC0
1C01C0
1C00E0
1C0030
1C0030
1C0030
1C0030
1C0030
1C00F0
1C00E0
1C00C0
1FFF00
1FFFE0
1C00E0
1C0030
1C001C
1C001C
1C001C
1C001C
1C001C
1C003C
1C0030
1C00E0
FFFF00
FFFF00
ENDCHAR
STARTCHAR 0393
ENCODING 915
SWIDTH 1000 0
DWIDTH 32 0
BBX 22 26 5 -1
BITMAP
FFFFFC
FFFFFC
1C001C
1C000C
1C000C
1C000C
1C000C
1C0000
1C0000
1C0000
1C0000
1C0000
1C0000
1C0000
1C0000
1C0000
1C0000
1C0000
1C0000
1C0000
1C0000
1C0000
1C0000
1C0000
FF0000
FF0000
ENDCHAR
STARTCHAR 0394
ENCODING 916
SWIDTH 1000 0
DWIDTH 32 0
BBX 24 26 4 -1
BITMAP
001000
001000
001000
007800
007800
007E00
006E00
008E00
008700
018700
010700
010180
010180
0701E0
0600E0
0600E0
080070
080070
080070
100018
100018
70001E
60000E
7FFFFE
FFFFFF
FFFFFF
ENDCHAR
STARTCHAR 0395
ENCODING 917
SWIDTH 1000 0
DWIDTH 32 0
BBX 21 26 4 -1
BITMAP
FFFFF0
FFFFF0
180070
180010
180010
180010
180000
180000
180100
180100
180100
180700
1FFF00
1FFF00
180700
180100
180100
180100
180000
180008
180008
180008
180008
180018
FFFFF8
FFFFF8
ENDCHAR
STARTCHAR 0396
ENCODING 918
SWIDTH 1000 0
DWIDTH 32 0
BBX 23 26 4 -1
BITMAP
7FFFFE
7FFFFE
700078
6000F0
6000E0
6001E0
6001E0
000780
000700
000F00
000E00
001E00
007800
007800
007000
00E000
01E000
07E000
078000
070006
0E0006
1E0006
1E0006
78000E
FFFFFE
FFFFFE
ENDCHAR
STARTCHAR 0397
ENCODING 919
SWIDTH 1000 0
DWIDTH 32 0
BBX 24 26 4 -1
BITMAP
FF00FF
FF00FF
180018
180018
180018
180018
180018
180018
180018
180018
180018
180018
1FFFF8
1FFFF8
180018
180018
180018
180018
180018
180018
180018
180018
180018
180018
FF00FF
FF00FF
ENDCHAR
STARTCHAR 0398
ENCODING 920
SWIDTH 1000 0
DWIDTH 32 0
BBX 24 26 4 -1
BITMAP
00FF00
07FFE0
0700E0
0E0070
180018
78001E
70000E
70000E
E00007
E10087
E10087
E1FF87
E1FF87
E1FF87
E10087
E00007
E00007
F0000F
70000E
70000E
180018
1E0078
0E0070
0700E0
00FF00
00FF00
ENDCHAR
STARTCHAR 0399
ENCODING 921
SWIDTH 1000 0
DWIDTH 32 0
BBX 8 26 12 -1
BITMAP
FF
FF
18
18
18
18
18
18
18
18
18
18
18
18
18
18
18
18
18
18
18
18
18
18
FF
FF
ENDCHAR
STARTCHAR 039A
ENCODING 922
SWIDTH 1000 0
DWIDTH 32 0
BBX 24 26 4 -1
BITMAP
FF07F8
FF07F8
1800E0
180080
180100
180700
180600
180800
181000
187000
186000
18E000
19F000
1FF800
1E7800
181E00
180E00
180F00
180700
180780
1801E0
1801F0
1800F0
180078
FF01FF
FF01FF
ENDCHAR
STARTCHAR 039B
ENCODING 923
SWIDTH 1000 0
DWIDTH 32 0
BBX 26 26 3 -1
BITMAP
00080000
00080000
00080000
003C0000
003C0000
003F0000
00370000
00470000
00438000
00C38000
00838000
0080C000
0080C000
0380F000
03007000
03007000
04003800
04003800
04003800
08000C00
08000C00
38000F00
30000700
30000700
FC003FC0
FC003FC0
ENDCHAR
STARTCHAR 039C
ENCODING 924
SWIDTH 1000 0
DWIDTH 32 0
BBX 26 26 3 -1
BITMAP
FF003FC0
FF003FC0
37003700
37003700
33804700
33804700
33804700
33804700
33804700
33C0C700
30C08700
30C08700
30C08700
30C38700
30C30700
30730700
30730700
30770700
30740700
30340700
303C0700
303C0700
303C0700
30080700
FC083FC0
FC083FC0
ENDCHAR
STARTCHAR 039D
ENCODING 925
SWIDTH 1000 0
DWIDTH 32 0
BBX 24 26 4 -1
BITMAP
FE007F
FE007F
1E0008
170008
178008
178008
118008
10E008
10F008
10F008
107008
101808
101E08
101E08
100E08
100708
100788
1007E8
1001E8
1000E8
100078
100078
100078
100018
FE0008
FE0008
ENDCHAR
STARTCHAR 039E
ENCODING 926
SWIDTH 1000 0
DWIDTH 32 0
BBX 22 26 5 -1
BITMAP
3FFFFC
3FFFFC
3FFFFC
E0001C
C00010
C00010
C00010
000000
000000
0C0020
0C0020
0FFFE0
1FFFC0
1FFFC0
1000C0
000000
000000
000000
000000
20000C
20000C
E0001C
E0001C
FFFFF0
FFFFF0
FFFFF0
ENDCHAR
STARTCHAR 039F
ENCODING 927
SWIDTH 1000 0
DWIDTH 32 0
BBX 24 26 4 -1
BITMAP
00FF00
07FFE0
0700E0
0E0070
180018
78001E
70000E
70000E
E00007
E00007
E00007
E00007
E00007
E00007
E00007
E00007
E00007
F0000F
70000E
70000E
180018
1E0078
0E0070
0700E0
00FF00
00FF00
ENDCHAR
STARTCHAR 03A0
ENCODING 928
SWIDTH 1000 0
DWIDTH 32 0
BBX 24 26 4 -1
BITMAP
FFFFFF
FFFFFF
0E0070
0E0070
0E0070
0E0070
0E0070
0E0070
0E0070
0E0070
0E0070
0E0070
0E0070
0E0070
0E0070
0E0070
0E0070
0E0070
0E0070
0E0070
0E0070
0E0070
0E0070
0E0070
FF81FF
FF81FF
ENDCHAR
STARTCHAR 03A1
ENCODING 929
SWIDTH 1000 0
DWIDTH 32 0
BBX 22 26 5 -1
BITMAP
FFFF00
FFFFE0
1C00E0
1C0030
1C001C
1C001C
1C001C
1C001C
1C001C
1C001C
1C001C
1C0030
1C00E0
1FFFE0
1FFF00
1C0000
1C0000
1C0000
1C0000
1C0000
1C0000
1C0000
1C0000
1C0000
FF0000
FF0000
ENDCHAR
STARTCHAR 03A3
ENCODING 931
SWIDTH 1000 0
DWIDTH 32 0
BBX 24 28 4 -2
BITMAP
000010
FFFFF8
FFFFF8
780008
1E0006
0F0006
0F8006
078000
01E000
00F000
00F800
007800
001E00
000E00
001E00
001800
007000
00E000
01E000
018000
070001
0E0001
1E0007
180007
7FFFFE
FFFFFE
FFFFFE
000006
ENDCHAR
STARTCHAR 03A4
ENCODING 932
SWIDTH 1000 0
DWIDTH 32 0
BBX 26 26 3 -1
BITMAP
7FFFFF80
7FFFFF80
700C0380
400C0080
800C0040
800C0040
800C0040
000C0000
000C0000
000C0000
000C0000
000C0000
000C0000
000C0000
000C0000
000C0000
000C0000
000C0000
000C0000
000C0000
000C0000
000C0000
000C0000
000C0000
007F8000
007F8000
ENDCHAR
STARTCHAR 03A5
ENCODING 933
SWIDTH 1000 0
DWIDTH 32 0
BBX 26 26 3 -1
BITMAP
0F807C00
3FC0FF00
38C0C700
70738380
403F0080
C03F00C0
803F0040
000C0000
000C0000
000C0000
000C0000
000C0000
000C0000
000C0000
000C0000
000C0000
000C0000
000C0000
000C0000
000C0000
000C0000
000C0000
000C0000
000C0000
007F8000
007F8000
ENDCHAR
STARTCHAR 03A6
ENCODING 934
SWIDTH 1000 0
DWIDTH 32 0
BBX 24 26 4 -1
BITMAP
01FF80
01FF80
001800
001800
01FF80
0FFFF0
0E1870
181818
70180E
F0180F
E01807
E01807
E01807
E01807
E01807
E01807
70180E
78181E
181818
0E1870
01FF80
01FF80
001800
001800
01FF80
01FF80
ENDCHAR
STARTCHAR 03A7
ENCODING 935
SWIDTH 1000 0
DWIDTH 32 0
BBX 25 26 4 -1
BITMAP
FF007F00
FF007F00
1E001800
0E001000
07006000
0780E000
07808000
01808000
00E10000
00F70000
00F60000
00780000
00180000
001E0000
001E0000
006F0000
00878000
00878000
00818000
0100E000
0600F000
0E00F800
08007800
18001E00
FE007F80
FE007F80
ENDCHAR
STARTCHAR 03A8
ENCODING 936
SWIDTH 1000 0
DWIDTH 32 0
BBX 26 26 3 -1
BITMAP
007F8000
007F8000
000C0000
780C0780
FC0C0FC0
FC0C0FC0
8C0C0C40
0C0C0C00
0C0C0C00
0C0C0C00
0C0C0C00
0C0C0C00
070C3800
070C3800
070C3800
030C3000
038C7000
03CCF000
00CCC000
003F0000
000C0000
000C0000
000C0000
000C0000
007F8000
007F8000
ENDCHAR
STARTCHAR 03A9
ENCODING 937
SWIDTH 1000 0
DWIDTH 32 0
BBX 24 26 4 -1
BITMAP
00FF00
07FFE0
0700E0
0E0070
180018
78001E
70000E
70000E
E00007
E00007
E00007
E00007
E00007
F0000F
70000E
70000E
180018
1E0078
0E0070
0700E0
808101
808101
808101
FF81FF
FF81FF
FF81FF
ENDCHAR
STARTCHAR 03B1
ENCODING 945
SWIDTH 1000 0
DWIDTH 32 0
BBX 20 18 5 -1
BITMAP
00F030
03FC30
030C30
0E0230
1C02E0
3C02E0
3C02E0
3003C0
F00300
F00F00
E00E00
E00E00
E01E00
E03E20
E03220
30E3E0
1F01C0
1F01C0
ENDCHAR
STARTCHAR 03B2
ENCODING 946
SWIDTH 1000 0
DWIDTH 32 0
BBX 21 30 4 -5
BITMAP
000780
001FF0
001870
007018
006018
00E018
00E018
008018
018018
018078
010070
0718E0
071F00
071FE0
0600E0
0E0070
0E0070
0E0070
080070
180070
1800E0
1901E0
1901E0
70E780
707E00
707E00
700000
E00000
E00000
E00000
ENDCHAR
STARTCHAR 03B3
ENCODING 947
SWIDTH 1000 0
DWIDTH 32 0
BBX 22 22 5 -5
BITMAP
0FC01C
1FE0FC
1CE0FC
2031C0
C03200
C03E00
003C00
003000
003000
00F000
00E000
00E000
01E000
01E000
01C000
03C000
03C000
03C000
030000
0F0000
0E0000
0E0000
ENDCHAR
STARTCHAR 03B4
ENCODING 948
SWIDTH 1000 0
DWIDTH 32 0
BBX 20 26 7 -1
BITMAP
03F000
07FC00
040C00
040700
0303C0
0383F0
0080F0
004070
003000
03F800
03C800
0C0C00
380400
780700
700700
700700
C00700
C00700
C00700
C00C00
C00C00
C03C00
403800
707000
0F8000
0F8000
ENDCHAR
STARTCHAR 03B5
ENCODING 949
SWIDTH 1000 0
DWIDTH 32 0
BBX 17 18 7 -1
BITMAP
03F800
0FFF00
0F0F00
380380
380080
3C0080
3C0000
0FF000
78C000
F8C000
F00000
C00000
C00080
F00780
F00700
7FFC00
3FF000
3FF000
ENDCHAR
STARTCHAR 03B6
ENCODING 950
SWIDTH 1000 0
DWIDTH 32 0
BBX 18 30 7 -5
BITMAP
038000
078000
040000
0803C0
080FC0
0FFFC0
07FF00
007000
00C000
03C000
038000
070000
0C0000
3C0000
380000
700000
700000
F00000
C00000
C00000
FC0000
FFC000
7FC000
03F800
003C00
003C00
000C00
3C3800
3FC000
3FC000
ENDCHAR
STARTCHAR 03B7
ENCODING 951
SWIDTH 1000 0
DWIDTH 32 0
BBX 22 22 5 -5
BITMAP
0F03E0
3FDFF0
31DC10
C1E01C
01C01C
03C01C
03001C
030030
0E0030
0E00F0
0E00E0
1C00E0
1C01C0
3C01C0
3001C0
300300
000300
000F00
000E00
001E00
001C00
001C00
ENDCHAR
STARTCHAR 03B8
ENCODING 952
SWIDTH 1000 0
DWIDTH 32 0
BBX 22 26 5 -1
BITMAP
000FC0
003FF0
003030
00E010
01C01C
03C01C
03001C
0E001C
0E001C
1E003C
1C0030
1FFFF0
300030
3000F0
3000E0
3000E0
E001C0
E001C0
E001C0
E00300
E00200
E00E00
200C00
303000
0FC000
0FC000
ENDCHAR
STARTCHAR 03B9
ENCODING 953
SWIDTH 1000 0
DWIDTH 32 0
BBX 16 18 8 -1
BITMAP
0E00
0E00
0E00
0E00
1800
1800
1800
7000
7000
7000
7000
E001
E006
E07E
E078
7FE0
1F00
1F00
ENDCHAR
STARTCHAR 03BA
ENCODING 954
SWIDTH 1000 0
DWIDTH 32 0
BBX 23 18 4 -1
BITMAP
018078
0180FE
0180FE
01818E
070700
071F00
071800
0FE000
0E7000
1E7800
181800
181800
701810
701870
701860
E01F80
E00F00
E00F00
ENDCHAR
STARTCHAR 03BB
ENCODING 955
SWIDTH 1000 0
DWIDTH 32 0
BBX 20 26 5 -1
BITMAP
01E000
01F000
01F000
003000
001C00
001C00
001C00
000C00
000C00
000C00
000C00
001C00
003C00
00FC00
00EC00
01CC00
030E00
0F0E00
0E0E00
1E0300
1C0300
3C03C0
3003C0
F001F0
E000F0
E000F0
ENDCHAR
STARTCHAR 03BC
ENCODING 956
SWIDTH 1000 0
DWIDTH 32 0
BBX 24 22 3 -5
BITMAP
00C00C
00C00C
00C00C
03C03C
038038
038038
038038
078078
070070
070070
070070
070040
0700C0
0F00F3
0F00B3
0B833F
387C0C
787C0C
700000
F00000
C00000
C00000
ENDCHAR
STARTCHAR 03BD
ENCODING 957
SWIDTH 1000 0
DWIDTH 32 0
BBX 18 17 7 -1
BITMAP
700040
700040
780040
380080
380080
380080
380300
300700
300F00
300C00
407800
43F000
FFF000
FF8000
FC0000
C00000
C00000
ENDCHAR
STARTCHAR 03BE
ENCODING 958
SWIDTH 1000 0
DWIDTH 32 0
BBX 20 30 5 -5
BITMAP
003FC0
01FFC0
01C000
010000
00FFF0
03FFF0
03FFE0
0C0000
100000
100000
100000
0E0000
01FFF0
03FFF0
03FFE0
1C0000
200000
E00000
C00000
C00000
FE0000
FFF000
3FF000
01FE00
000300
000300
000300
1C0E00
1FF000
1FF000
ENDCHAR
STARTCHAR 03BF
ENCODING 959
SWIDTH 1000 0
DWIDTH 32 0
BBX 17 18 7 -1
BITMAP
03F800
0FFF00
0C0700
380300
700380
700380
700380
C00380
C00380
C00380
C00380
C00700
C00700
C00F00
400C00
703800
0FC000
0FC000
ENDCHAR
STARTCHAR 03C0
ENCODING 960
SWIDTH 1000 0
DWIDTH 32 0
BBX 22 19 5 -1
BITMAP
00000C
1FFFFC
3FFFFC
3FFFF0
21C300
C1C300
C3CF00
030E00
030E00
0E1C00
0E1C00
0E1C00
1C1000
1C3020
3C30E0
3030C0
F03F00
E01E00
E01E00
ENDCHAR
STARTCHAR 03C1
ENCODING 961
SWIDTH 1000 0
DWIDTH 32 0
BBX 20 22 5 -5
BITMAP
001F00
00FFE0
00E0E0
01C020
030030
030030
020030
0E0030
0C0030
1C00F0
1C00E0
1200E0
1201C0
3303C0
310300
30FC00
300000
F00000
E00000
E00000
E00000
E00000
ENDCHAR
STARTCHAR 03C2
ENCODING 962
SWIDTH 1000 0
DWIDTH 32 0
BBX 18 22 7 -5
BITMAP
03F800
0FFF00
0C0700
380380
3000C0
7000C0
7000C0
7003C0
300380
380380
380000
0C0000
070000
078000
038000
008000
00C000
43C000
43C000
FF8000
7F0000
7F0000
ENDCHAR
STARTCHAR 03C3
ENCODING 963
SWIDTH 1000 0
DWIDTH 32 0
BBX 20 21 7 -1
BITMAP
000040
000040
000070
00FFF0
07FFF0
07FFC0
0C0800
380400
780700
700300
700380
C00380
C00380
C00380
C00700
C00700
C00F00
400C00
703800
0FC000
0FC000
ENDCHAR
STARTCHAR 03C4
ENCODING 964
SWIDTH 1000 0
DWIDTH 32 0
BBX 22 19 5 -1
BITMAP
00000C
1FFFFC
3FFFFC
3FFFF0
20E000
C0E000
C1E000
01C000
01C000
030000
030000
030000
0E00C0
0E0100
0E0F00
0E0E00
03FC00
01E000
01E000
ENDCHAR
STARTCHAR 03C5
ENCODING 965
SWIDTH 1000 0
DWIDTH 32 0
BBX 18 17 7 -1
BITMAP
380380
380380
3800C0
3800C0
3800C0
3800C0
700380
700380
700780
700700
C00700
C00C00
C03C00
C03800
40C000
3F0000
3F0000
ENDCHAR
STARTCHAR 03C6
ENCODING 966
SWIDTH 1000 0
DWIDTH 32 0
BBX 22 30 5 -5
BITMAP
000300
000300
000300
000300
000E00
000E00
000E00
000C00
000C00
01FF00
01FF00
0E1CE0
1C1030
3C103C
30101C
E0301C
E0201C
E0201C
E0201C
E0E030
30C0E0
3CC1E0
1CC1C0
03FE00
01C000
01C000
01C000
030000
030000
030000
ENDCHAR
STARTCHAR 03C7
ENCODING 967
SWIDTH 1000 0
DWIDTH 32 0
BBX 21 21 4 -5
BITMAP
078018
078018
0FE078
0870F0
1871F0
1011E0
001780
001E00
001E00
001800
007000
00F000
07F000
079000
0F1000
1E1010
7E1870
781860
F00FE0
E00780
E00780
ENDCHAR
STARTCHAR 03C8
ENCODING 968
SWIDTH 1000 0
DWIDTH 32 0
BBX 22 30 5 -5
BITMAP
000300
000300
000300
000300
000200
000E00
000E00
000E00
3C0C30
FE0C3C
CE0C3C
0E1C1C
0E1C1C
1E1C1C
1C101C
1C101C
1C3030
3C3030
302030
3020E0
30E1C0
30E3C0
10C300
0FFC00
01C000
01C000
01C000
030000
030000
030000
ENDCHAR
STARTCHAR 03C9
ENCODING 969
SWIDTH 1000 0
DWIDTH 32 0
BBX 24 18 4 -1
BITMAP
00E010
07E018
070008
0E000E
180006
780E07
700E07
700E07
E01E07
E01E07
E01807
E01807
E0780E
E07E0E
60760E
70E618
0F01E0
0F01E0
ENDCHAR
STARTCHAR 0401
ENCODING 1025
SWIDTH 1000 0
DWIDTH 32 0
BBX 23 29 5 -1
BITMAP
0F03C0
0F03C0
0F03C0
0F03C0
0F03C0
000000
000000
FFFFF0
FFFFF0
1C0030
1C0010
1C000C
1C00CC
1C00C0
1C01C0
1FFFC0
1FFFC0
1C01C0
1C00C0
1C0000
1C0000
1C0000
1C0002
1C0002
1C000E
1C000C
1C001C
FFFFFC
FFFFFC
ENDCHAR
STARTCHAR 0410
ENCODING 1040
SWIDTH 1000 0
DWIDTH 32 0
BBX 26 26 3 -1
BITMAP
00080000
00380000
00380000
007C0000
003C0000
003F0000
003F0000
00370000
00478000
00478000
00438000
0083C000
0080C000
0380F000
0300F000
03007000
07FFF800
07FFF800
04003800
08003C00
08000C00
38000F00
30000F00
30000700
FC003FC0
FC003FC0
ENDCHAR
STARTCHAR 0411
ENCODING 1041
SWIDTH 1000 0
DWIDTH 32 0
BBX 22 26 5 -1
BITMAP
FFFFF0
FFFFF0
1C0030
1C0010
1C000C
1C000C
1C000C
1C0000
1C0000
1C0000
1C0000
1FFF00
1C00E0
1C00F0
1C0030
1C001C
1C001C
1C001C
1C001C
1C001C
1C001C
1C003C
1C0030
1C00E0
FFFF00
FFFF00
ENDCHAR
STARTCHAR 0412
ENCODING 1042
SWIDTH 1000 0
DWIDTH 32 0
BBX 22 26 5 -1
BITMAP
FFFE00
FFFFC0
1C01C0
1C00E0
1C0030
1C0030
1C0030
1C0030
1C0030
1C00F0
1C00E0
1C00C0
1FFF00
1FFFE0
1C00E0
1C0030
1C001C
1C001C
1C001C
1C001C
1C001C
1C003C
1C0030
1C00E0
FFFF00
FFFF00
ENDCHAR
STARTCHAR 0413
ENCODING 1043
SWIDTH 1000 0
DWIDTH 32 0
BBX 22 26 5 -1
BITMAP
FFFFF0
FFFFF0
1C0030
1C0010
1C000C
1C000C
1C000C
1C0000
1C0000
1C0000
1C0000
1C0000
1C0000
1C0000
1C0000
1C0000
1C0000
1C0000
1C0000
1C0000
1C0000
1C0000
1C0000
1C0000
FF0000
FF0000
ENDCHAR
STARTCHAR 0414
ENCODING 1044
SWIDTH 1000 0
DWIDTH 32 0
BBX 26 30 3 -5
BITMAP
03FFFF80
03FFFF80
00300C00
00300C00
00300C00
00300C00
00300C00
00300C00
00300C00
00300C00
00300C00
00700C00
00400C00
00400C00
00400C00
00400C00
00400C00
00C00C00
00C00C00
00800C00
00800C00
03800C00
03000C00
04000C00
7FFFFF80
7FFFFF80
70000380
40000080
80000040
80000040
ENDCHAR
STARTCHAR 0415
ENCODING 1045
SWIDTH 1000 0
DWIDTH 32 0
BBX 23 26 5 -1
BITMAP
FFFFF0
FFFFF0
1C0030
1C0010
1C000C
1C00CC
1C00CC
1C00C0
1C01C0
1FFFC0
1FFFC0
1C01C0
1C00C0
1C00C0
1C00C0
1C0000
1C0000
1C0000
1C0000
1C0002
1C0002
1C000E
1C000C
1C001C
FFFFFC
FFFFFC
ENDCHAR
STARTCHAR 0416
ENCODING 1046
SWIDTH 1000 0
DWIDTH 32 0
BBX 32 26 0 -1
BITMAP
180FF018
7E0FF07E
7E01807E
7E01807E
06018060
070180E0
070180E0
01018080
01018080
01818180
00818100
00618600
00FFFF00
00FFFF00
00E18700
01818180
01818180
078181E0
070180E0
070180E0
0E018070
0E018070
0E018070
18018018
FF0FF0FF
FF0FF0FF
ENDCHAR
STARTCHAR 0417
ENCODING 1047
SWIDTH 1000 0
DWIDTH 32 0
BBX 20 26 7 -1
BITMAP
03F800
3FFF00
3C0700
F00380
C000C0
C000C0
8000C0
0000C0
0000C0
0003C0
000380
000700
00F800
00FF80
000780
0000C0
000070
000070
000070
800070
C000F0
F003F0
F003C0
3C0780
03FC00
03FC00
ENDCHAR
STARTCHAR 0418
ENCODING 1048
SWIDTH 1000 0
DWIDTH 32 0
BBX 24 26 4 -1
BITMAP
FF00FF
FF00FF
180018
180018
180078
1800F8
180098
180118
180118
180718
180618
180818
180818
181818
181018
186018
188018
188018
188018
190018
1E0018
1E0018
180018
180018
FF00FF
FF00FF
ENDCHAR
STARTCHAR 0419
ENCODING 1049
SWIDTH 1000 0
DWIDTH 32 0
BBX 24 29 4 -1
BITMAP
018180
018180
0781E0
0700E0
0781E0
018180
007E00
FF00FF
FF00FF
180018
180018
180078
1800F8
180098
180118
180618
180E18
180818
181018
186018
18E018
188018
190018
1E0018
1E0018
180018
180018
FF00FF
FF00FF
ENDCHAR
STARTCHAR 041A
ENCODING 1050
SWIDTH 1000 0
DWIDTH 32 0
BBX 24 26 4 -1
BITMAP
FF0078
FF00FE
1800FE
18018E
180100
180700
180700
180600
180E00
181E00
181800
1FF000
187800
187E00
181E00
180E00
180F00
180F80
180780
1801E0
1800E0
1800F0
1800F0
180078
FF01FF
FF01FF
ENDCHAR
STARTCHAR 041B
ENCODING 1051
SWIDTH 1000 0
DWIDTH 32 0
BBX 25 26 3 -1
BITMAP
03FFFF80
03FFFF80
00300C00
00300C00
00300C00
00300C00
00300C00
00300C00
00300C00
00300C00
00300C00
00700C00
00400C00
00400C00
00400C00
00400C00
00400C00
00400C00
00400C00
70C00C00
F0800C00
F0800C00
C0800C00
C3000C00
7C007F80
7C007F80
ENDCHAR
STARTCHAR 041C
ENCODING 1052
SWIDTH 1000 0
DWIDTH 32 0
BBX 30 26 1 -1
BITMAP
1FC00FE0
1FC00FE0
03C00F00
03C00F00
02E01300
02E01300
02E01300
02E01300
02302300
0E3023C0
0C3021C0
0C3021C0
0C1CC1C0
0C1CC1C0
0C1CC1C0
0C1CC1C0
0C0F01C0
1C0F01E0
100F00E0
100F00E0
100200E0
100200E0
100200E0
100000E0
FE0003FC
FE0003FC
ENDCHAR
STARTCHAR 041D
ENCODING 1053
SWIDTH 1000 0
DWIDTH 32 0
BBX 24 26 4 -1
BITMAP
FF00FF
FF00FF
180018
180018
180018
180018
180018
180018
180018
1FFFF8
1FFFF8
180018
180018
180018
180018
180018
180018
180018
180018
180018
180018
180018
180018
180018
FF00FF
FF00FF
ENDCHAR
STARTCHAR 041E
ENCODING 1054
SWIDTH 1000 0
DWIDTH 32 0
BBX 24 26 4 -1
BITMAP
00FF00
07FFE0
0700E0
0E0070
180018
78001E
70000E
70000E
E00007
E00007
E00007
E00007
E00007
E00007
E00007
E00007
E00007
F0000F
70000E
70000E
180018
1E0078
0E0070
0700E0
00FF00
00FF00
ENDCHAR
STARTCHAR 041F
ENCODING 1055
SWIDTH 1000 0
DWIDTH 32 0
BBX 24 26 4 -1
BITMAP
FFFFFF
FFFFFF
180018
180018
180018
180018
180018
180018
180018
180018
180018
180018
180018
180018
180018
180018
180018
180018
180018
180018
180018
180018
180018
180018
FF00FF
FF00FF
ENDCHAR
STARTCHAR 0420
ENCODING 1056
SWIDTH 1000 0
DWIDTH 32 0
BBX 22 26 5 -1
BITMAP
FFFF00
FFFFE0
1C01E0
1C0030
1C001C
1C001C
1C001C
1C001C
1C001C
1C001C
1C001C
1C001C
1C0030
1C01F0
1C01E0
1FFF00
1C0000
1C0000
1C0000
1C0000
1C0000
1C0000
1C0000
1C0000
FF0000
FF0000
ENDCHAR
STARTCHAR 0421
ENCODING 1057
SWIDTH 1000 0
DWIDTH 32 0
BBX 21 26 4 -1
BITMAP
007F80
01FFF8
0180F8
0E0018
180008
780008
700008
700000
E00000
E00000
E00000
E00000
E00000
E00000
E00000
E00000
E00000
F00000
700000
700008
180008
1E0018
0E0018
0180F8
007F80
007F80
ENDCHAR
STARTCHAR 0422
ENCODING 1058
SWIDTH 1000 0
DWIDTH 32 0
BBX 26 26 3 -1
BITMAP
3FFFFF00
3FFFFF00
380C0700
700C0380
400C0080
C00C00C0
800C0040
000C0000
000C0000
000C0000
000C0000
000C0000
000C0000
000C0000
000C0000
000C0000
000C0000
000C0000
000C0000
000C0000
000C0000
000C0000
000C0000
000C0000
007F8000
007F8000
ENDCHAR
STARTCHAR 0423
ENCODING 1059
SWIDTH 1000 0
DWIDTH 32 0
BBX 26 26 3 -1
BITMAP
FF803FC0
FF803FC0
3C000700
0C000400
0C000400
0F000C00
07000800
07000800
03803000
03803000
03803000
00C04000
00C04000
00F0C000
00708000
00708000
003B0000
003F0000
003F0000
0C0C0000
3C0C0000
3C0C0000
38080000
08300000
07C00000
07C00000
ENDCHAR
STARTCHAR 0424
ENCODING 1060
SWIDTH 1000 0
DWIDTH 32 0
BBX 24 26 4 -1
BITMAP
01FF80
01FF80
001800
001800
01FF80
0FFFF0
0E1870
181818
70180E
F0180F
E01807
E01807
E01807
E01807
E01807
E01807
70180E
78181E
181818
0E1870
01FF80
01FF80
001800
001800
01FF80
01FF80
ENDCHAR
STARTCHAR 0425
ENCODING 1061
SWIDTH 1000 0
DWIDTH 32 0
BBX 25 26 4 -1
BITMAP
FF007F00
FF007F00
1E001800
0E001000
07006000
0780E000
07808000
01808000
00E10000
00F70000
00F60000
00780000
00180000
001E0000
001E0000
006F0000
00878000
00878000
00818000
0100E000
0600F000
0E00F800
08007800
18001E00
FE007F80
FE007F80
ENDCHAR
STARTCHAR 0426
ENCODING 1062
SWIDTH 1000 0
DWIDTH 32 0
BBX 25 30 4 -5
BITMAP
FF01FE00
FF01FE00
18007000
18007000
18007000
18007000
18007000
18007000
18007000
18007000
18007000
18007000
18007000
18007000
18007000
18007000
18007000
18007000
18007000
18007000
18007000
18007000
18007000
18007000
FFFFFF00
FFFFFF00
00000700
00000100
00000080
00000080
ENDCHAR
STARTCHAR 0427
ENCODING 1063
SWIDTH 1000 0
DWIDTH 32 0
BBX 24 26 4 -1
BITMAP
FF00FF
FF00FF
180018
180018
180018
180018
180018
180018
180018
180018
180018
180018
180018
1E0018
1E0018
0F00F8
01FF18
01FF18
000018
000018
000018
000018
000018
000018
0000FF
0000FF
ENDCHAR
STARTCHAR 0428
ENCODING 1064
SWIDTH 1000 0
DWIDTH 32 0
BBX 30 26 1 -1
BITMAP
FF1FE3FC
FF1FE3FC
1C0300E0
1C0300E0
1C0300E0
1C0300E0
1C0300E0
1C0300E0
1C0300E0
1C0300E0
1C0300E0
1C0300E0
1C0300E0
1C0300E0
1C0300E0
1C0300E0
1C0300E0
1C0300E0
1C0300E0
1C0300E0
1C0300E0
1C0300E0
1C0300E0
1C0300E0
FFFFFFFC
FFFFFFFC
ENDCHAR
STARTCHAR 0429
ENCODING 1065
SWIDTH 1000 0
DWIDTH 32 0
BBX 31 30 1 -5
BITMAP
FF1FE3FC
FF1FE3FC
1C0300E0
1C0300E0
1C0300E0
1C0300E0
1C0300E0
1C0300E0
1C0300E0
1C0300E0
1C0300E0
1C0300E0
1C0300E0
1C0300E0
1C0300E0
1C0300E0
1C0300E0
1C0300E0
1C0300E0
1C0300E0
1C0300E0
1C0300E0
1C0300E0
1C0300E0
FFFFFFFC
FFFFFFFC
0000001C
0000000C
00000002
00000002
ENDCHAR
STARTCHAR 042A
ENCODING 1066
SWIDTH 1000 0
DWIDTH 32 0
BBX 28 26 1 -1
BITMAP
3FFF0000
3FFF0000
301C0000
201C0000
C01C0000
C01C0000
C01C0000
001C0000
001C0000
001C0000
001C0000
001FFE00
001C01C0
001C01E0
001C00E0
001C0030
001C0030
001C0030
001C0030
001C0030
001C0030
001C00F0
001C00E0
001C01C0
00FFFE00
00FFFE00
ENDCHAR
STARTCHAR 042B
ENCODING 1067
SWIDTH 1000 0
DWIDTH 32 0
BBX 30 26 1 -1
BITMAP
FF0003FC
FF0003FC
1C0000E0
1C0000E0
1C0000E0
1C0000E0
1C0000E0
1C0000E0
1C0000E0
1C0000E0
1C0000E0
1FFE00E0
1C01C0E0
1C01E0E0
1C00E0E0
1C0030E0
1C0030E0
1C0030E0
1C0030E0
1C0030E0
1C0030E0
1C00F0E0
1C00E0E0
1C01C0E0
FFFE03FC
FFFE03FC
ENDCHAR
STARTCHAR 042C
ENCODING 1068
SWIDTH 1000 0
DWIDTH 32 0
BBX 22 26 5 -1
BITMAP
FF0000
FF0000
1C0000
1C0000
1C0000
1C0000
1C0000
1C0000
1C0000
1C0000
1C0000
1FFF00
1C00E0
1C00F0
1C0030
1C001C
1C001C
1C001C
1C001C
1C001C
1C001C
1C003C
1C0030
1C00E0
FFFF00
FFFF00
ENDCHAR
STARTCHAR 042D
ENCODING 1069
SWIDTH 1000 0
DWIDTH 32 0
BBX 22 26 5 -1
BITMAP
0FF000
FFFE00
FC0E00
E001C0
C000E0
C000F0
C00030
000030
00001C
00001C
00001C
00F03C
03FFDC
0FFFDC
0C0F1C
00001C
00001C
00003C
000030
C00030
C000E0
E001E0
E001C0
FC0E00
0FF000
0FF000
ENDCHAR
STARTCHAR 042E
ENCODING 1070
SWIDTH 1000 0
DWIDTH 32 0
BBX 30 26 1 -1
BITMAP
FF00FE00
FF03FFC0
1C0301C0
1C0E00E0
1C1C0030
1C1C0030
1C1C0030
1C30001C
1C30001C
1FF0001C
1FF0001C
1C30001C
1C30001C
1C30001C
1C30001C
1C30001C
1C30001C
1C30001C
1C30001C
1C1C0030
1C1C0030
1C1E00F0
1C0E00E0
1C0301C0
FF00FE00
FF00FE00
ENDCHAR
STARTCHAR 042F
ENCODING 1071
SWIDTH 1000 0
DWIDTH 32 0
BBX 23 26 4 -1
BITMAP
01FFFE
0FFFFE
0E0070
180070
700070
700070
700070
700070
700070
700070
700070
180070
0E0070
0FFFF0
01FFF0
00E070
00E070
01E070
018070
018070
070070
0F0070
0E0070
180070
E001FE
E001FE
ENDCHAR
STARTCHAR 0430
ENCODING 1072
SWIDTH 1000 0
DWIDTH 32 0
BBX 18 18 7 -1
BITMAP
07F000
7FFC00
7C0C00
700700
000700
000700
000700
00FF00
0F0700
7F0700
700700
C00700
C00700
C00700
C00700
703F00
0FC7C0
0FC7C0
ENDCHAR
STARTCHAR 0431
ENCODING 1073
SWIDTH 1000 0
DWIDTH 32 0
BBX 18 26 7 -1
BITMAP
000080
03FF80
03FF80
0FFF00
380000
780000
700000
400000
83F000
8FFC00
8C0C00
B80700
F00380
F00380
F00380
C000C0
C000C0
C000C0
C000C0
700380
700380
780780
380700
0C0C00
03F000
03F000
ENDCHAR
STARTCHAR 0432
ENCODING 1074
SWIDTH 1000 0
DWIDTH 32 0
BBX 17 18 7 -1
BITMAP
FFF800
FFFF00
380700
380380
380380
380380
380380
380700
3FF800
3FFF00
380700
380380
380380
380380
380380
380700
FFF800
FFF800
ENDCHAR
STARTCHAR 0433
ENCODING 1075
SWIDTH 1000 0
DWIDTH 32 0
BBX 18 18 7 -1
BITMAP
FFFF80
FFFF80
380380
380080
380040
380040
380000
380000
380000
380000
380000
380000
380000
380000
380000
380000
FF0000
FF0000
ENDCHAR
STARTCHAR 0434
ENCODING 1076
SWIDTH 1000 0
DWIDTH 32 0
BBX 22 22 5 -5
BITMAP
03FFF0
03FFF0
00C1C0
00C1C0
00C1C0
00C1C0
00C1C0
00C1C0
00C1C0
01C1C0
01C1C0
0101C0
0101C0
0301C0
0201C0
0C01C0
3FFFF0
3FFFF0
300030
200010
C0000C
C0000C
ENDCHAR
STARTCHAR 0435
ENCODING 1077
SWIDTH 1000 0
DWIDTH 32 0
BBX 17 18 7 -1
BITMAP
03F000
0FFC00
0C0C00
380700
700700
700780
700380
FFFF80
C00000
C00000
C00000
700000
700000
780080
380080
0C0700
03F800
03F800
ENDCHAR
STARTCHAR 0436
ENCODING 1078
SWIDTH 1000 0
DWIDTH 32 0
BBX 26 19 3 -2
BITMAP
707F8380
787F8780
780C0780
080C0400
0C0C0C00
0C0C0C00
040C0800
030C3000
00FFC000
03FFF000
038C7000
038C7000
070C3800
0F0C3C00
0C0C0C00
0C0C0C00
380C0700
FC7F8FC0
FC7F8FC0
ENDCHAR
STARTCHAR 0437
ENCODING 1079
SWIDTH 1000 0
DWIDTH 32 0
BBX 16 18 8 -1
BITMAP
0FF0
FFFE
F81E
E007
8007
8007
0007
000E
0FF0
0FFE
000E
0007
8007
E007
E007
F80E
0FF0
0FF0
ENDCHAR
STARTCHAR 0438
ENCODING 1080
SWIDTH 1000 0
DWIDTH 32 0
BBX 18 18 7 -1
BITMAP
F807C0
F807C0
700380
700780
700B80
703B80
703380
704380
708380
738380
730380
740380
780380
780380
700380
700380
F807C0
F807C0
ENDCHAR
STARTCHAR 0439
ENCODING 1081
SWIDTH 1000 0
DWIDTH 32 0
BBX 18 25 7 -1
BITMAP
073800
073800
0F3C00
0C0C00
0C0C00
040800
03F000
F807C0
F807C0
700380
700780
700B80
703B80
703380
704380
708380
738380
730380
740380
780380
780380
700380
700380
F807C0
F807C0
ENDCHAR
STARTCHAR 043A
ENCODING 1082
SWIDTH 1000 0
DWIDTH 32 0
BBX 20 18 7 -1
BITMAP
FF0380
FF07C0
3807C0
3808C0
383000
38F000
38C000
3F8000
3BC000
3BF000
38F000
387800
383C00
383F00
380F00
380780
FF0FF0
FF0FF0
ENDCHAR
STARTCHAR 043B
ENCODING 1083
SWIDTH 1000 0
DWIDTH 32 0
BBX 21 18 4 -1
BITMAP
01FFF8
01FFF8
0060E0
0060E0
0060E0
0060E0
0060E0
0060E0
00E0E0
00E0E0
0080E0
7080E0
F180E0
F180E0
E100E0
E600E0
7807F8
7807F8
ENDCHAR
STARTCHAR 043C
ENCODING 1084
SWIDTH 1000 0
DWIDTH 32 0
BBX 22 18 5 -1
BITMAP
FC00FC
FC00FC
3C00F0
2E0130
2E0130
2F0330
230230
230230
230230
23CE30
21CC30
21CC30
20F030
20F030
20F030
202030
FC20FC
FC20FC
ENDCHAR
STARTCHAR 043D
ENCODING 1085
SWIDTH 1000 0
DWIDTH 32 0
BBX 18 18 7 -1
BITMAP
F807C0
F807C0
700380
700380
700380
700380
700380
7FFF80
700380
700380
700380
700380
700380
700380
700380
700380
F807C0
F807C0
ENDCHAR
STARTCHAR 043E
ENCODING 1086
SWIDTH 1000 0
DWIDTH 32 0
BBX 18 18 7 -1
BITMAP
03F000
0FFC00
0C0C00
380700
700380
700380
700380
C000C0
C000C0
C000C0
C000C0
700380
700380
780780
380700
0C0C00
03F000
03F000
ENDCHAR
STARTCHAR 043F
ENCODING 1087
SWIDTH 1000 0
DWIDTH 32 0
BBX 18 18 7 -1
BITMAP
FFFFC0
FFFFC0
380700
380700
380700
380700
380700
380700
380700
380700
380700
380700
380700
380700
380700
380700
FC0FC0
FC0FC0
ENDCHAR
STARTCHAR 0440
ENCODING 1088
SWIDTH 1000 0
DWIDTH 32 0
BBX 20 22 5 -5
BITMAP
1C3E00
FDFFC0
FDC1C0
1E00E0
1C00E0
1C00F0
1C0030
1C0030
1C0030
1C00F0
1C00E0
1C00E0
1F01C0
1FFFC0
1CFE00
1C0000
1C0000
1C0000
1C0000
1C0000
FF0000
FF0000
ENDCHAR
STARTCHAR 0441
ENCODING 1089
SWIDTH 1000 0
DWIDTH 32 0
BBX 17 18 7 -1
BITMAP
03F800
0FFF00
0C0700
380380
700380
700380
700000
C00000
C00000
C00000
C00000
700000
700000
780080
380080
0C0700
03F800
03F800
ENDCHAR
STARTCHAR 0442
ENCODING 1090
SWIDTH 1000 0
DWIDTH 32 0
BBX 18 18 7 -1
BITMAP
7FFF80
7FFF80
70C380
40C080
80C040
80C040
00C000
00C000
00C000
00C000
00C000
00C000
00C000
00C000
00C000
00C000
07F800
07F800
ENDCHAR
STARTCHAR 0443
ENCODING 1091
SWIDTH 1000 0
DWIDTH 32 0
BBX 20 22 7 -5
BITMAP
FF07F0
FF07F0
380080
380080
0C0300
0C0300
0C0300
0C0400
070400
070C00
070800
038800
03B000
03B000
03B000
00C000
00C000
C0C000
C08000
C30000
7C0000
7C0000
ENDCHAR
STARTCHAR 0444
ENCODING 1092
SWIDTH 1000 0
DWIDTH 32 0
BBX 22 30 5 -5
BITMAP
003000
01F000
01F000
003000
003000
003000
003000
003000
0F33C0
1FFFE0
10FC20
303030
203010
E0301C
E0301C
E0301C
E0301C
E0301C
E0301C
E0301C
203010
303030
303030
10FC20
0F33C0
0F33C0
003000
003000
01FE00
01FE00
ENDCHAR
STARTCHAR 0445
ENCODING 1093
SWIDTH 1000 0
DWIDTH 32 0
BBX 23 18 5 -1
BITMAP
FFC3FC
FFC3FC
1E00C0
0F0100
03C200
03EE00
01EC00
00F000
003C00
00FE00
00DE00
010F00
0203C0
0E03E0
0C01E0
1000F0
FE03FE
FE03FE
ENDCHAR
STARTCHAR 0446
ENCODING 1094
SWIDTH 1000 0
DWIDTH 32 0
BBX 20 22 7 -5
BITMAP
FC0FC0
FC0FC0
380700
380700
380700
380700
380700
380700
380700
380700
380700
380700
380700
380700
380700
380700
FFFFC0
FFFFC0
0000C0
000040
000030
000030
ENDCHAR
STARTCHAR 0447
ENCODING 1095
SWIDTH 1000 0
DWIDTH 32 0
BBX 18 18 7 -1
BITMAP
FC0FC0
FC0FC0
380700
380700
380700
380700
380700
380700
0C0F00
0FFF00
03F700
000700
000700
000700
000700
000700
003FC0
003FC0
ENDCHAR
STARTCHAR 0448
ENCODING 1096
SWIDTH 1000 0
DWIDTH 32 0
BBX 22 18 5 -1
BITMAP
FCFCFC
FCFCFC
303030
303030
303030
303030
303030
303030
303030
303030
303030
303030
303030
303030
303030
303030
FFFFFC
FFFFFC
ENDCHAR
STARTCHAR 0449
ENCODING 1097
SWIDTH 1000 0
DWIDTH 32 0
BBX 24 22 5 -5
BITMAP
FCFCFC
FCFCFC
303030
303030
303030
303030
303030
303030
303030
303030
303030
303030
303030
303030
303030
303030
FFFFFE
FFFFFE
00000E
000002
000001
000001
ENDCHAR
STARTCHAR 044A
ENCODING 1098
SWIDTH 1000 0
DWIDTH 32 0
BBX 24 18 4 -1
BITMAP
7FFE00
7FFE00
707000
607000
807000
807000
007000
007FF0
00700E
00700F
007007
007007
007007
007007
007007
00700E
01FFF0
01FFF0
ENDCHAR
STARTCHAR 044B
ENCODING 1099
SWIDTH 1000 0
DWIDTH 32 0
BBX 24 18 4 -1
BITMAP
FF00FF
FF00FF
180018
180018
180018
180018
180018
1FE018
181818
181E18
180E18
180E18
180E18
180E18
180E18
181818
FFE0FF
FFE0FF
ENDCHAR
STARTCHAR 044C
ENCODING 1100
SWIDTH 1000 0
DWIDTH 32 0
BBX 17 18 8 -1
BITMAP
FF0000
FF0000
180000
180000
180000
180000
180000
1FF800
180700
180780
180180
180180
180180
180180
180180
180700
FFF800
FFF800
ENDCHAR
STARTCHAR 044D
ENCODING 1101
SWIDTH 1000 0
DWIDTH 32 0
BBX 18 18 9 -1
BITMAP
1FE000
FFFC00
F01C00
E00E00
C00300
C30300
030300
0FFDC0
10E1C0
10E1C0
0001C0
000300
000300
C00F00
C00E00
301C00
0FE000
0FE000
ENDCHAR
STARTCHAR 044E
ENCODING 1102
SWIDTH 1000 0
DWIDTH 32 0
BBX 24 18 4 -1
BITMAP
FF01E0
FF0FF8
180E18
18180E
18180E
18780F
187007
1FF007
187007
187007
187007
187007
18180E
18180E
18180E
180E18
FF01E0
FF01E0
ENDCHAR
STARTCHAR 044F
ENCODING 1103
SWIDTH 1000 0
DWIDTH 32 0
BBX 18 18 7 -1
BITMAP
07FFC0
3FFFC0
380700
700700
700700
700700
700700
380700
07FF00
07FF00
070700
0F0700
0C0700
3C0700
3C0700
380700
F83FC0
F83FC0
ENDCHAR
STARTCHAR 0451
ENCODING 1105
SWIDTH 1000 0
DWIDTH 32 0
BBX 17 25 7 -1
BITMAP
3C0F00
3C0F00
3C0F00
3C0F00
3C0F00
000000
000000
03F000
0FFC00
0C0C00
380700
700700
700780
700380
FFFF80
C00000
C00000
C00000
700000
700000
780080
380080
0C0700
03F800
03F800
ENDCHAR
STARTCHAR 1E3E
ENCODING 7742
SWIDTH 1000 0
DWIDTH 32 0
BBX 26 29 3 -1
BITMAP
000F8000
000F8000
003C0000
00700000
00F00000
00800000
FF003FC0
37003700
37003700
37003700
33804700
33804700
33804700
33804700
30C08700
30C08700
30C08700
30C08700
30730700
30730700
30730700
30730700
30340700
303C0700
303C0700
303C0700
30080700
FC083FC0
FC083FC0
ENDCHAR
STARTCHAR 1E3F
ENCODING 7743
SWIDTH 1000 0
DWIDTH 32 0
BBX 26 25 3 -1
BITMAP
000F8000
000F8000
003C0000
00700000
00F00000
00800000
00000000
38F07800
FFFBFC00
FF0B8400
380C0700
380C0700
380C0700
380C0700
380C0700
380C0700
380C0700
380C0700
380C0700
380C0700
380C0700
380C0700
380C0700
FC3F0FC0
FC3F0FC0
ENDCHAR
STARTCHAR 1F70
ENCODING 8048
SWIDTH 1000 0
DWIDTH 32 0
BBX 20 25 7 -1
BITMAP
0F8000
0F8000
03C000
007000
007800
000800
000000
07F300
3FFF00
380F00
700700
700700
F00700
C00700
C00700
C00700
C00700
C00700
C00700
700700
700730
700730
380F30
07F3C0
07F3C0
ENDCHAR
STARTCHAR 1F71
ENCODING 8049
SWIDTH 1000 0
DWIDTH 32 0
BBX 20 25 7 -1
BITMAP
03F000
03F000
078000
0C0000
3C0000
300000
000000
07F300
3FFF00
380F00
700700
700700
F00700
C00700
C00700
C00700
C00700
C00700
C00700
700700
700730
700730
380F30
07F3C0
07F3C0
ENDCHAR
STARTCHAR 1F72
ENCODING 8050
SWIDTH 1000 0
DWIDTH 32 0
BBX 14 25 9 -1
BITMAP
1F00
1F00
03C0
00E0
00F0
0010
0000
0FE0
3FFC
3C3C
E01C
E00C
E00C
E000
3000
0FC0
3FC0
3000
E000
E00C
E01C
E01C
303C
0FE0
0FE0
ENDCHAR
STARTCHAR 1F73
ENCODING 8051
SWIDTH 1000 0
DWIDTH 32 0
BBX 14 25 9 -1
BITMAP
03E0
03E0
0F00
1C00
3C00
2000
0000
0FE0
3FFC
3C3C
E01C
E00C
E00C
E000
3000
0FC0
3FC0
3000
E000
E00C
E01C
E01C
303C
0FE0
0FE0
ENDCHAR
STARTCHAR 2000
ENCODING 8192
SWIDTH 1000 0
DWIDTH 32 0
BBX 0 0 0 0
BITMAP
ENDCHAR
STARTCHAR 2001
ENCODING 8193
SWIDTH 1000 0
DWIDTH 32 0
BBX 0 0 0 0
BITMAP
ENDCHAR
STARTCHAR 2002
ENCODING 8194
SWIDTH 1000 0
DWIDTH 32 0
BBX 0 0 0 0
BITMAP
ENDCHAR
STARTCHAR 2003
ENCODING 8195
SWIDTH 1000 0
DWIDTH 32 0
BBX 0 0 0 0
BITMAP
ENDCHAR
STARTCHAR 2004
ENCODING 8196
SWIDTH 1000 0
DWIDTH 32 0
BBX 0 0 0 0
BITMAP
ENDCHAR
STARTCHAR 2005
ENCODING 8197
SWIDTH 1000 0
DWIDTH 32 0
BBX 0 0 0 0
BITMAP
ENDCHAR
STARTCHAR 2006
ENCODING 8198
SWIDTH 1000 0
DWIDTH 32 0
BBX 0 0 0 0
BITMAP
ENDCHAR
STARTCHAR 2007
ENCODING 8199
SWIDTH 1000 0
DWIDTH 32 0
BBX 0 0 0 0
BITMAP
ENDCHAR
STARTCHAR 2008
ENCODING 8200
SWIDTH 1000 0
DWIDTH 32 0
BBX 0 0 0 0
BITMAP
ENDCHAR
STARTCHAR 2009
ENCODING 8201
SWIDTH 1000 0
DWIDTH 32 0
BBX 0 0 0 0
BITMAP
ENDCHAR
STARTCHAR 200A
ENCODING 8202
SWIDTH 1000 0
DWIDTH 32 0
BBX 0 0 0 0
BITMAP
ENDCHAR
STARTCHAR 200B
ENCODING 8203
SWIDTH 500 0
DWIDTH 16 0
BBX 0 0 0 0
BITMAP
ENDCHAR
STARTCHAR 200C
ENCODING 8204
SWIDTH 500 0
DWIDTH 16 0
BBX 0 0 0 0
BITMAP
ENDCHAR
STARTCHAR 200D
ENCODING 8205
SWIDTH 500 0
DWIDTH 16 0
BBX 0 0 0 0
BITMAP
ENDCHAR
STARTCHAR 200E
ENCODING 8206
SWIDTH 500 0
DWIDTH 16 0
BBX 0 0 0 0
BITMAP
ENDCHAR
STARTCHAR 200F
ENCODING 8207
SWIDTH 500 0
DWIDTH 16 0
BBX 0 0 0 0
BITMAP
ENDCHAR
STARTCHAR 2010
ENCODING 8208
SWIDTH 1000 0
DWIDTH 32 0
BBX 8 2 12 10
BITMAP
FF
FF
ENDCHAR
STARTCHAR 2013
ENCODING 8211
SWIDTH 1000 0
DWIDTH 32 0
BBX 16 2 8 10
BITMAP
FFFF
FFFF
ENDCHAR
STARTCHAR 2014
ENCODING 8212
SWIDTH 1000 0
DWIDTH 32 0
BBX 32 2 0 10
BITMAP
FFFFFFFF
FFFFFFFF
ENDCHAR
STARTCHAR 2015
ENCODING 8213
SWIDTH 1000 0
DWIDTH 32 0
BBX 32 2 0 10
BITMAP
FFFFFFFF
FFFFFFFF
ENDCHAR
STARTCHAR 2016
ENCODING 8214
SWIDTH 1000 0
DWIDTH 32 0
BBX 8 33 12 -5
BITMAP
81
81
81
81
81
81
81
81
81
81
81
81
81
81
81
81
81
81
81
81
81
81
81
81
81
81
81
81
81
81
81
81
81
ENDCHAR
STARTCHAR 2018
ENCODING 8216
SWIDTH 1000 0
DWIDTH 32 0
BBX 4 9 23 19
BITMAP
30
30
40
C0
C0
C0
F0
F0
F0
ENDCHAR
STARTCHAR 2019
ENCODING 8217
SWIDTH 1000 0
DWIDTH 32 0
BBX 4 9 5 19
BITMAP
F0
F0
F0
30
30
30
20
C0
C0
ENDCHAR
STARTCHAR 201C
ENCODING 8220
SWIDTH 1000 0
DWIDTH 32 0
BBX 10 9 19 19
BITMAP
3040
3040
4080
C380
C380
C380
F3C0
F3C0
F3C0
ENDCHAR
STARTCHAR 201D
ENCODING 8221
SWIDTH 1000 0
DWIDTH 32 0
BBX 10 9 3 19
BITMAP
F3C0
F3C0
F3C0
70C0
70C0
70C0
4080
8300
8300
ENDCHAR
STARTCHAR 2020
ENCODING 8224
SWIDTH 1000 0
DWIDTH 32 0
BBX 15 33 8 -5
BITMAP
0100
0100
0780
0780
0780
0780
0100
7118
FFFE
FFFE
7118
0100
0100
0100
0FE0
0780
0780
0780
0780
0780
0780
0780
0780
0780
0780
0780
0100
0100
0100
0100
0100
0100
0100
ENDCHAR
STARTCHAR 2021
ENCODING 8225
SWIDTH 1000 0
DWIDTH 32 0
BBX 15 33 8 -5
BITMAP
0100
0100
0780
0780
0780
0100
7118
FFFE
FFFE
7118
0100
0FE0
0FE0
0780
0780
0100
0100
0100
0780
0780
0FE0
0FE0
0100
7118
FFFE
FFFE
7118
0100
0780
0780
0780
0100
0100
ENDCHAR
STARTCHAR 2022
ENCODING 8226
SWIDTH 1000 0
DWIDTH 32 0
BBX 10 11 11 6
BITMAP
3F00
7F80
7F80
FFC0
FFC0
FFC0
FFC0
FFC0
7F80
7F80
3F00
ENDCHAR
STARTCHAR 2025
ENCODING 8229
SWIDTH 1000 0
DWIDTH 32 0
BBX 20 4 5 9
BITMAP
F000F0
F000F0
F000F0
F000F0
ENDCHAR
STARTCHAR 2026
ENCODING 8230
SWIDTH 1000 0
DWIDTH 32 0
BBX 25 4 3 9
BITMAP
F03C0780
F03C0780
F03C0780
F03C0780
ENDCHAR
STARTCHAR 2030
ENCODING 8240
SWIDTH 1000 0
DWIDTH 32 0
BBX 30 29 1 -3
BITMAP
1E002000
21002000
2100E000
2100C000
E1C10000
E1C10000
E1C30000
E1C20000
E1CC0000
210C0000
211C0000
21100000
1E200000
00200000
00E00000
00C00000
010F01E0
0110C210
0310C210
0210C210
0C30EE1C
0C30EE1C
1C30EE1C
1030EE1C
1030EE1C
2010C210
E010C210
C010C210
C00F01E0
ENDCHAR
STARTCHAR 2032
ENCODING 8242
SWIDTH 1000 0
DWIDTH 32 0
BBX 7 7 5 18
BITMAP
1E
1E
1C
30
20
E0
C0
ENDCHAR
STARTCHAR 2033
ENCODING 8243
SWIDTH 1000 0
DWIDTH 32 0
BBX 14 7 1 18
BITMAP
1E3C
1E3C
1C30
30E0
20C0
E1C0
C100
ENDCHAR
STARTCHAR 203B
ENCODING 8251
SWIDTH 1000 0
DWIDTH 32 0
BBX 24 25 4 -1
BITMAP
801801
801801
607E06
107E08
187E18
081810
060060
010080
018180
008100
70660E
F8181F
F8181F
F8181F
70660E
008100
018180
010080
060060
081810
187E18
107E08
607E06
801801
801801
ENDCHAR
STARTCHAR 203C
ENCODING 8252
SWIDTH 1000 0
DWIDTH 32 0
BBX 14 26 9 -1
BITMAP
F03C
F03C
F03C
F03C
F03C
F03C
F03C
F03C
F03C
F03C
F03C
F03C
2010
2010
2010
2010
2010
2010
2010
0000
0000
F03C
F03C
F03C
F03C
F03C
ENDCHAR
STARTCHAR 203E
ENCODING 8254
SWIDTH 1000 0
DWIDTH 32 0
BBX 32 2 0 26
BITMAP
FFFFFFFF
FFFFFFFF
ENDCHAR
STARTCHAR 203F
ENCODING 8255
SWIDTH 1000 0
DWIDTH 32 0
BBX 30 7 1 -3
BITMAP
C000000C
C000000C
30000030
1FC00FE0
1FFFFFE0
03FFFF00
003FF000
ENDCHAR
STARTCHAR 2042
ENCODING 8258
SWIDTH 1000 0
DWIDTH 32 0
BBX 31 33 0 -5
BITMAP
00010000
00010000
00078000
00078000
00F79E00
00F11E00
00797800
00078000
00078000
00078000
00797800
00F11E00
00F79E00
00078000
00078000
00010000
01010100
01000100
07800780
07800780
F79EF79E
F11EF11E
79787978
07800780
07800780
07800780
79787978
F11EF11E
F79EF79E
07800780
07800780
01000100
01000100
ENDCHAR
STARTCHAR 2047
ENCODING 8263
SWIDTH 1000 0
DWIDTH 32 0
BBX 31 26 1 -1
BITMAP
0FC00FC0
3FF03FF0
30303030
E01CE01C
E00EE00E
F00EF00E
F00EF00E
300E300E
001C001C
001C001C
001C001C
00300030
00E000E0
01E001E0
01C001C0
01000100
02000200
02000200
02000200
00000000
00000000
0F000F00
0F000F00
0F000F00
0F000F00
0F000F00
ENDCHAR
STARTCHAR 2048
ENCODING 8264
SWIDTH 1000 0
DWIDTH 32 0
BBX 24 26 3 -1
BITMAP
0FC00F
7FF80F
70380F
C00C0F
C0070F
F0070F
F0070F
70070F
000C0F
000C0F
000C0F
00380F
007004
00F004
00C004
008004
030004
030004
030004
000000
000000
07800F
07800F
07800F
07800F
07800F
ENDCHAR
STARTCHAR 2049
ENCODING 8265
SWIDTH 1000 0
DWIDTH 32 0
BBX 24 26 5 -1
BITMAP
F00FE0
F03FFC
F0301C
F0E00E
F0E003
F0F003
F0F003
F03003
F0000E
F0000E
F0000E
F0001C
200030
2000F0
2000E0
2000C0
200100
200100
200100
000000
000000
F003C0
F003C0
F003C0
F003C0
F003C0
ENDCHAR
STARTCHAR 2051
ENCODING 8273
SWIDTH 1000 0
DWIDTH 32 0
BBX 15 33 8 -5
BITMAP
0100
0100
0780
0780
F79E
F11E
7978
0780
0780
0780
7978
F11E
F79E
0780
0780
0000
0100
0100
0780
0780
F79E
F11E
7978
0780
0780
0780
7978
F11E
F79E
0780
0780
0100
0100
ENDCHAR
STARTCHAR 20AC
ENCODING 8364
SWIDTH 1000 0
DWIDTH 32 0
BBX 24 27 3 -2
BITMAP
000FC0
007FF8
007FF8
00F03C
038007
078007
070003
070000
0C0000
7FFFF8
7FFFF8
FFFFF0
0C0000
0C0000
0C0000
7FFFF0
FFFFC0
FFFFC0
0C0000
070000
070003
078007
038007
00F03C
007FF8
007FF8
000FC0
ENDCHAR
STARTCHAR 2103
ENCODING 8451
SWIDTH 1000 0
DWIDTH 32 0
BBX 31 27 0 -2
BITMAP
18001E00
7E00FF88
6600E188
81070078
810E0018
E71E0018
66180008
18700008
00700000
00F00000
00E00000
00E00000
00E00000
00E00000
00E00000
00E00000
00E00000
00F00000
00700000
00700000
00180006
0018000E
00180008
000E0010
000180E0
0001FFE0
00007F00
ENDCHAR
STARTCHAR 210F
ENCODING 8463
SWIDTH 1000 0
DWIDTH 32 0
BBX 20 26 5 -1
BITMAP
01C000
0FC000
0FC000
01CE00
01F000
03F000
030000
1F0000
E31E00
EF3F00
0E3F00
0EE3C0
0F01C0
0F01C0
0E01C0
1C01C0
1C0300
1C0300
1C0300
1C0300
300E00
300E10
300E10
300F30
3003E0
3003E0
ENDCHAR
STARTCHAR 2113
ENCODING 8467
SWIDTH 1000 0
DWIDTH 32 0
BBX 17 26 7 -1
BITMAP
007800
00FC00
00CC00
038400
038400
078400
070400
070400
070400
0F0400
0C0400
0C0C00
0C0800
0C3800
0C3800
0C3000
0C7000
0CF000
0CC000
0F8000
070080
3F0380
3F0300
C38C00
00F800
00F800
ENDCHAR
STARTCHAR 2116
ENCODING 8470
SWIDTH 1000 0
DWIDTH 32 0
BBX 30 26 1 -1
BITMAP
F00F0000
F00F0000
30020000
3C020000
3C020000
3E020000
2E020000
2E020000
23021F00
23023FC0
230231C0
21C231C0
21C2E0E0
21E2E0E0
20E2E0E0
20E2E0E0
2032E0E0
2032E0E0
2032E0E0
201EE0E0
201EE0E0
201EF1E0
200E31C0
200E31DC
FC021F1C
FC021F1C
ENDCHAR
STARTCHAR 2121
ENCODING 8481
SWIDTH 1000 0
DWIDTH 32 0
BBX 32 26 0 -1
BITMAP
FFF80000
FFF80000
87080000
87080000
07000000
07000000
07000000
07000000
071FF7E0
071FF7E0
070E1180
070E0980
070E0180
070E0180
070E0180
070E6180
070FE180
070FE180
070E6180
070E0180
070E0180
070E0981
070E0981
070E1186
0F9FF7FE
0F9FF7FE
ENDCHAR
STARTCHAR 2127
ENCODING 8487
SWIDTH 1000 0
DWIDTH 32 0
BBX 24 26 4 -1
BITMAP
FF81FF
FF81FF
FF81FF
808101
808101
8781E1
0700E0
0E0070
180018
78001E
70000E
70000E
E00007
E00007
E00007
E00007
E00007
F0000F
70000E
70000E
180018
1E0078
0E0070
0700E0
00FF00
00FF00
ENDCHAR
STARTCHAR 212B
ENCODING 8491
SWIDTH 1000 0
DWIDTH 32 0
BBX 26 30 3 -2
BITMAP
000C0000
000C0000
00330000
00408000
00408000
00408000
00330000
000C0000
000C0000
00000000
000C0000
000C0000
003F0000
003F0000
00370000
00438000
00438000
00438000
0080C000
0080C000
0380F000
03007000
03FFF000
04003800
04003800
04003800
08000C00
38000F00
FF007FC0
FF007FC0
ENDCHAR
STARTCHAR 2135
ENCODING 8501
SWIDTH 1000 0
DWIDTH 32 0
BBX 22 26 5 -2
BITMAP
200300
200300
2003C0
3001E0
3C01F0
3C00F0
1E00F0
0F01FC
0FC3FC
03C31C
01EE10
03FC00
0FFC00
0E3C00
1C1E00
100F00
300FC0
3003C0
3001E0
3000F0
3C00F0
3C0030
3C003C
3C001C
FC001C
F00010
ENDCHAR
STARTCHAR 2153
ENCODING 8531
SWIDTH 1000 0
DWIDTH 32 0
BBX 22 31 5 -5
BITMAP
001000
003000
01F000
01F000
003000
003000
003000
003000
003000
003000
003000
003000
01FE00
000000
FFFFFC
FFFFFC
000000
00FC00
01FE00
01CE00
010200
000E00
00FE00
00FC00
000E00
030300
030300
030300
01CE00
00FC00
00FC00
ENDCHAR
STARTCHAR 2154
ENCODING 8532
SWIDTH 1000 0
DWIDTH 32 0
BBX 22 31 5 -5
BITMAP
00FC00
01CE00
03CE00
030200
010200
000E00
001E00
001C00
003000
00E100
01E300
01C200
03FE00
000000
FFFFFC
FFFFFC
000000
00FC00
01FE00
01CE00
010200
000E00
00FE00
00FC00
000E00
030300
030300
030300
01CE00
00FC00
00FC00
ENDCHAR
STARTCHAR 2155
ENCODING 8533
SWIDTH 1000 0
DWIDTH 32 0
BBX 22 31 5 -5
BITMAP
001000
003000
01F000
01F000
003000
003000
003000
003000
003000
003000
003000
003000
01FE00
000000
FFFFFC
FFFFFC
000000
01FF00
01FF00
010000
010000
01FC00
01FE00
010E00
000300
000300
030300
030300
030E00
01FC00
01FC00
ENDCHAR
STARTCHAR 2160
ENCODING 8544
SWIDTH 1000 0
DWIDTH 32 0
BBX 10 26 11 -1
BITMAP
FFC0
FFC0
0C00
0C00
0C00
0C00
0C00
0C00
0C00
0C00
0C00
0C00
0C00
0C00
0C00
0C00
0C00
0C00
0C00
0C00
0C00
0C00
0C00
0C00
FFC0
FFC0
ENDCHAR
STARTCHAR 2161
ENCODING 8545
SWIDTH 1000 0
DWIDTH 32 0
BBX 18 26 7 -1
BITMAP
FFFFC0
FFFFC0
0C0C00
0C0C00
0C0C00
0C0C00
0C0C00
0C0C00
0C0C00
0C0C00
0C0C00
0C0C00
0C0C00
0C0C00
0C0C00
0C0C00
0C0C00
0C0C00
0C0C00
0C0C00
0C0C00
0C0C00
0C0C00
0C0C00
FFFFC0
FFFFC0
ENDCHAR
STARTCHAR 2162
ENCODING 8546
SWIDTH 1000 0
DWIDTH 32 0
BBX 26 26 3 -1
BITMAP
FFFFFFC0
FFFFFFC0
0C0C0C00
0C0C0C00
0C0C0C00
0C0C0C00
0C0C0C00
0C0C0C00
0C0C0C00
0C0C0C00
0C0C0C00
0C0C0C00
0C0C0C00
0C0C0C00
0C0C0C00
0C0C0C00
0C0C0C00
0C0C0C00
0C0C0C00
0C0C0C00
0C0C0C00
0C0C0C00
0C0C0C00
0C0C0C00
FFFFFFC0
FFFFFFC0
ENDCHAR
STARTCHAR 2163
ENCODING 8547
SWIDTH 1000 0
DWIDTH 32 0
BBX 28 26 3 -1
BITMAP
FFFC07F0
FFFC07F0
38700080
38700080
38700080
38780380
38380300
38380300
38380300
383C0700
380C0400
380C0400
380C0400
380F0400
38070400
38070800
38070800
38078800
38038800
3803B000
3803B000
3803F000
3800F000
3800C000
FF004000
FF004000
ENDCHAR
STARTCHAR 2164
ENCODING 8548
SWIDTH 1000 0
DWIDTH 32 0
BBX 26 26 3 -1
BITMAP
FF803FC0
FF803FC0
3C000700
0C000400
0C000400
0F000C00
07000800
07000800
07000800
07803800
03803000
03803000
00C04000
00C04000
00C04000
00C04000
00708000
00708000
00708000
003B0000
003B0000
003F0000
000F0000
000C0000
00040000
00040000
ENDCHAR
STARTCHAR 2165
ENCODING 8549
SWIDTH 1000 0
DWIDTH 32 0
BBX 26 26 3 -1
BITMAP
FF03FFC0
FF03FFC0
38004700
38004700
38004700
3C00C700
0C008700
0C008700
0C008700
0F038700
07030700
07030700
07030700
07830700
03830700
03840700
03840700
03C40700
00C40700
00C80700
00C80700
00F80700
00780700
00700700
00303FC0
00303FC0
ENDCHAR
STARTCHAR 2166
ENCODING 8550
SWIDTH 1000 0
DWIDTH 32 0
BBX 31 26 0 -1
BITMAP
FF0FFFFE
FF0FFFFE
18011870
18011870
18011870
1E011870
0E011870
0E061870
0E061870
0E061870
0E061870
07061870
07081870
07081870
07081870
07081870
01881870
01981870
01901870
01901870
01901870
01F01870
00F01870
00E01870
0060FFFE
0060FFFE
ENDCHAR
STARTCHAR 2167
ENCODING 8551
SWIDTH 1000 0
DWIDTH 32 0
BBX 32 26 0 -1
BITMAP
FF7FFFFF
FF7FFFFF
1808E718
1808E718
1808E718
1808E718
1808E718
0E08E718
0E10E718
0E10E718
0E10E718
0E10E718
0E10E718
0F10E718
0710E718
0760E718
0760E718
0760E718
0760E718
0760E718
01E0E718
01E0E718
01E0E718
0180E718
0087FFFF
0087FFFF
ENDCHAR
STARTCHAR 2168
ENCODING 8552
SWIDTH 1000 0
DWIDTH 32 0
BBX 26 26 3 -1
BITMAP
FFF83FC0
FFF83FC0
38F00700
38700C00
38380800
38383800
38383000
380C3000
380C4000
380F4000
38074000
38078000
38038000
3803C000
3803C000
3804C000
38047000
380C7000
38087000
38083800
38303800
38703C00
38700C00
38C00F00
FFF07FC0
FFF07FC0
ENDCHAR
STARTCHAR 2169
ENCODING 8553
SWIDTH 1000 0
DWIDTH 32 0
BBX 25 26 4 -1
BITMAP
FF007F00
FF007F00
1E001800
0E001000
07006000
0780E000
07808000
01808000
00E10000
00F70000
00F60000
00780000
00180000
001E0000
001E0000
006F0000
00878000
00878000
00818000
0100E000
0600F000
0E00F800
08007800
18001E00
FE007F80
FE007F80
ENDCHAR
STARTCHAR 216A
ENCODING 8554
SWIDTH 1000 0
DWIDTH 32 0
BBX 26 26 3 -1
BITMAP
FF07FFC0
FF07FFC0
3C00C700
0C038700
07030700
07070700
07040700
03840700
03880700
03C80700
00C80700
00F00700
00700700
00780700
00780700
00B80700
008C0700
038C0700
030C0700
03070700
04070700
0C078700
0C038700
3803C700
FC0FFFC0
FC0FFFC0
ENDCHAR
STARTCHAR 216B
ENCODING 8555
SWIDTH 1000 0
DWIDTH 32 0
BBX 32 26 0 -1
BITMAP
FF07FFFF
FF07FFFF
1E00E718
0E018718
07010718
07070718
07060718
01860718
01880718
01E80718
00E80718
00F00718
00700718
00780718
00780718
00980718
008E0718
018E0718
010E0718
01070718
06070718
0E078718
0E018718
1801E718
FE0FFFFF
FE0FFFFF
ENDCHAR
STARTCHAR 2170
ENCODING 8560
SWIDTH 1000 0
DWIDTH 32 0
BBX 10 26 11 -1
BITMAP
3C00
3C00
3C00
3C00
0000
0000
0000
0000
FC00
FC00
0C00
0C00
0C00
0C00
0C00
0C00
0C00
0C00
0C00
0C00
0C00
0C00
0C00
0C00
FFC0
FFC0
ENDCHAR
STARTCHAR 2171
ENCODING 8561
SWIDTH 1000 0
DWIDTH 32 0
BBX 18 26 7 -1
BITMAP
780F00
780F00
780F00
780F00
000000
000000
000000
000000
F83F00
F83F00
380700
380700
380700
380700
380700
380700
380700
380700
380700
380700
380700
380700
380700
380700
FF3FC0
FF3FC0
ENDCHAR
STARTCHAR 2172
ENCODING 8562
SWIDTH 1000 0
DWIDTH 32 0
BBX 24 26 4 -1
BITMAP
787878
787878
787878
787878
000000
000000
000000
000000
F8F8F8
F8F8F8
181818
181818
181818
181818
181818
181818
181818
181818
181818
181818
181818
181818
181818
181818
FFFFFF
FFFFFF
ENDCHAR
STARTCHAR 2173
ENCODING 8563
SWIDTH 1000 0
DWIDTH 32 0
BBX 25 26 4 -1
BITMAP
78000000
78000000
78000000
78000000
00000000
00000000
00000000
00000000
F9FE1F80
F9FE1F80
18700600
18700600
18180800
18180800
18180800
180E0800
180E1000
180E1000
180E1000
18076000
18076000
1807E000
1801E000
18018000
FF008000
FF008000
ENDCHAR
STARTCHAR 2174
ENCODING 8564
SWIDTH 1000 0
DWIDTH 32 0
BBX 22 18 5 -1
BITMAP
FF01FC
FF01FC
1C0020
0E0020
0E00C0
0F00C0
0300C0
030100
01C100
01C300
01C200
00E200
00EC00
00FC00
003C00
003000
001000
001000
ENDCHAR
STARTCHAR 2175
ENCODING 8565
SWIDTH 1000 0
DWIDTH 32 0
BBX 25 26 3 -1
BITMAP
00003C00
00003C00
00003C00
00003C00
00000000
00000000
00000000
00000000
FF0FFC00
FF0FFC00
38030C00
38030C00
0C040C00
0C040C00
0C040C00
07040C00
07080C00
07080C00
07080C00
03B00C00
03B00C00
03F00C00
00F00C00
00C00C00
00407F80
00407F80
ENDCHAR
STARTCHAR 2176
ENCODING 8566
SWIDTH 1000 0
DWIDTH 32 0
BBX 32 26 0 -1
BITMAP
00001E78
00001E78
00001E78
00001E78
00000000
00000000
00000000
00000000
FF0FFEF8
FF0FFEF8
18010E18
18010E18
0E060E18
0E060E18
0E060E18
07060E18
07080E18
07080E18
07080E18
01900E18
01900E18
01F00E18
00F00E18
00E00E18
00607FFF
00607FFF
ENDCHAR
STARTCHAR 2177
ENCODING 8567
SWIDTH 1000 0
DWIDTH 32 0
BBX 32 26 0 -1
BITMAP
0001EF78
0001EF78
0001EF78
0001EF78
00000000
00000000
00000000
00000000
FF7FEF78
FF7FEF78
1808E718
1808E718
1808E718
1E18E718
0E10E718
0E10E718
0E10E718
0F70E718
0760E718
0760E718
0760E718
07E0E718
01E0E718
0180E718
0087FFFF
0087FFFF
ENDCHAR
STARTCHAR 2178
ENCODING 8568
SWIDTH 1000 0
DWIDTH 32 0
BBX 22 26 5 -1
BITMAP
3C0000
3C0000
3C0000
3C0000
000000
000000
000000
000000
FDFDFC
FDFDFC
1C3020
1C30C0
1C1CC0
1C1DC0
1C1D00
1C0E00
1C0E00
1C0F00
1C0F00
1C1300
1C11C0
1C31C0
1C21C0
1CC0E0
FFF3FC
FFF3FC
ENDCHAR
STARTCHAR 2179
ENCODING 8569
SWIDTH 1000 0
DWIDTH 32 0
BBX 23 18 5 -1
BITMAP
FFC3FC
FFC3FC
1E00C0
0F0100
03C200
03EE00
01EC00
00F000
003C00
00FE00
00DE00
010F00
0203C0
0E03E0
0C01E0
1000F0
FE03FE
FE03FE
ENDCHAR
STARTCHAR 217A
ENCODING 8570
SWIDTH 1000 0
DWIDTH 32 0
BBX 23 26 4 -1
BITMAP
0000F0
0000F0
0000F0
0000F0
000000
000000
000000
000000
7F7FF0
7F7FF0
0E0870
0E1070
071070
077070
076070
018070
018070
01E070
01E070
06E070
067070
0E7070
087070
101870
FEFFFE
FEFFFE
ENDCHAR
STARTCHAR 217B
ENCODING 8571
SWIDTH 1000 0
DWIDTH 32 0
BBX 30 26 1 -1
BITMAP
0000F1E0
0000F1E0
0000F1E0
0000F1E0
00000000
00000000
00000000
00000000
3F3FF3E0
3F3FF3E0
0E0C30E0
0E1030E0
031030E0
033030E0
032030E0
01C030E0
01C030E0
01E030E0
01E030E0
02E030E0
023030E0
0E3030E0
0C3030E0
101C30E0
FEFFFFFC
FEFFFFFC
ENDCHAR
STARTCHAR 2190
ENCODING 8592
SWIDTH 1000 0
DWIDTH 32 0
BBX 32 12 0 6
BITMAP
00800000
01000000
0F000000
0E000000
18000000
FFFFFFFF
FFFFFFFF
18000000
0E000000
01000000
01800000
00800000
ENDCHAR
STARTCHAR 2191
ENCODING 8593
SWIDTH 1000 0
DWIDTH 32 0
BBX 12 33 9 -5
BITMAP
0200
0200
0200
0F00
1FC0
1FC0
12C0
2220
E230
C210
0200
0200
0200
0200
0200
0200
0200
0200
0200
0200
0200
0200
0200
0200
0200
0200
0200
0200
0200
0200
0200
0200
0200
ENDCHAR
STARTCHAR 2192
ENCODING 8594
SWIDTH 1000 0
DWIDTH 32 0
BBX 32 12 0 6
BITMAP
00000100
00000080
000000F0
00000070
00000018
FFFFFFFF
FFFFFFFF
00000018
00000070
00000080
00000180
00000100
ENDCHAR
STARTCHAR 2193
ENCODING 8595
SWIDTH 1000 0
DWIDTH 32 0
BBX 12 33 9 -5
BITMAP
0200
0200
0200
0200
0200
0200
0200
0200
0200
0200
0200
0200
0200
0200
0200
0200
0200
0200
0200
0200
0200
0200
0200
C210
E230
2220
12C0
1FC0
1FC0
0F00
0200
0200
0200
ENDCHAR
STARTCHAR 2194
ENCODING 8596
SWIDTH 1000 0
DWIDTH 32 0
BBX 32 12 0 6
BITMAP
00800100
01000080
0F0000F0
0E000070
18000018
FFFFFFFF
FFFFFFFF
18000018
0E000070
01000080
01800180
00800100
ENDCHAR
STARTCHAR 2196
ENCODING 8598
SWIDTH 1000 0
DWIDTH 32 0
BBX 24 25 4 -1
BITMAP
E00000
E00000
FE0000
71E000
79E000
680000
660000
110000
118000
108000
106000
001000
001800
000800
000600
000100
000180
000080
000060
000010
000018
000008
000006
000001
000001
ENDCHAR
STARTCHAR 2197
ENCODING 8599
SWIDTH 1000 0
DWIDTH 32 0
BBX 24 25 4 -1
BITMAP
000007
000007
00007F
00078E
00079E
000016
000066
000088
000188
000108
000608
000800
001800
001000
006000
008000
018000
010000
060000
080000
180000
100000
600000
800000
800000
ENDCHAR
STARTCHAR 2198
ENCODING 8600
SWIDTH 1000 0
DWIDTH 32 0
BBX 24 25 4 -1
BITMAP
800000
800000
600000
100000
180000
080000
060000
010000
018000
008000
006000
001000
001800
000800
000608
000108
000188
000088
000066
000016
00079E
00078E
00007F
000007
000007
ENDCHAR
STARTCHAR 2199
ENCODING 8601
SWIDTH 1000 0
DWIDTH 32 0
BBX 24 25 4 -1
BITMAP
000001
000001
000006
000008
000018
000010
000060
000080
000180
000100
000600
000800
001800
001000
106000
108000
118000
110000
660000
680000
79E000
71E000
FE0000
E00000
E00000
ENDCHAR
STARTCHAR 21C4
ENCODING 8644
SWIDTH 1000 0
DWIDTH 32 0
BBX 32 21 0 1
BITMAP
00000100
00000080
000000F0
00000070
00000018
FFFFFFFF
FFFFFFFF
00000018
00000070
00800080
01800180
01000100
0E000000
18000000
FFFFFFFF
FFFFFFFF
18000000
0E000000
0F000000
01000000
00800000
ENDCHAR
STARTCHAR 21D2
ENCODING 8658
SWIDTH 1000 0
DWIDTH 32 0
BBX 32 20 0 2
BITMAP
00000600
00000100
00000180
00000080
00000060
FFFFFFF0
FFFFFFF8
00000008
00000006
00000001
00000007
00000006
00000008
FFFFFFF0
FFFFFFF0
00000060
00000080
00000100
00000700
00000600
ENDCHAR
STARTCHAR 21D4
ENCODING 8660
SWIDTH 1000 0
DWIDTH 32 0
BBX 32 20 0 2
BITMAP
00600600
00800100
01800180
01000080
06000060
0FFFFFF0
1FFFFFF8
10000008
60000006
80000001
E0000007
60000006
10000008
0FFFFFF0
0FFFFFF0
06000060
01000080
00800100
00E00700
00600600
ENDCHAR
STARTCHAR 21E6
ENCODING 8678
SWIDTH 1000 0
DWIDTH 32 0
BBX 30 23 1 1
BITMAP
00100000
00100000
00300000
00D00000
01D00000
01100000
02100000
0C1FFFFC
1C1FFFFC
1000000C
2000000C
C000000C
E000000C
2000000C
1000000C
0C1FFFFC
0E1FFFFC
02100000
01100000
00D00000
00F00000
00300000
00100000
ENDCHAR
STARTCHAR 21E7
ENCODING 8679
SWIDTH 1000 0
DWIDTH 32 0
BBX 23 29 4 -3
BITMAP
001000
006800
00EE00
008600
010100
060080
0E00E0
080060
100010
600008
FF01FE
FF01FE
010100
010100
010100
010100
010100
010100
010100
010100
010100
010100
010100
010100
010100
010100
010100
010100
01FF00
ENDCHAR
STARTCHAR 21E8
ENCODING 8680
SWIDTH 1000 0
DWIDTH 32 0
BBX 30 23 1 1
BITMAP
00002000
00002000
00003000
00002C00
00002E00
00002200
00002100
FFFFE0C0
FFFFE0E0
C0000020
C0000010
C000000C
C000001C
C0000010
C0000020
FFFFE0C0
FFFFE1C0
00002100
00002200
00002C00
00003C00
00003000
00002000
ENDCHAR
STARTCHAR 21E9
ENCODING 8681
SWIDTH 1000 0
DWIDTH 32 0
BBX 23 29 4 -3
BITMAP
01FF00
010100
010100
010100
010100
010100
010100
010100
010100
010100
010100
010100
010100
010100
010100
010100
010100
FF01FE
FF01FE
600008
100010
080060
0E00E0
060080
010100
008600
00EE00
006800
001000
ENDCHAR
STARTCHAR 2200
ENCODING 8704
SWIDTH 1000 0
DWIDTH 32 0
BBX 25 27 3 -2
BITMAP
80000080
80000080
80000080
40000300
40000300
70000700
30000400
30000400
08000800
0FFFF800
0FFFF800
04003000
04003000
07007000
03004000
03004000
00808000
00808000
00808000
00430000
00430000
00770000
00340000
00340000
00080000
00080000
00080000
ENDCHAR
STARTCHAR 2202
ENCODING 8706
SWIDTH 1000 0
DWIDTH 32 0
BBX 18 26 7 -1
BITMAP
003C00
00FF80
00FF80
038380
0400C0
0400C0
000040
000040
000040
03F0C0
03F0C0
0C0880
380480
780780
700780
700700
C00700
C00700
C00700
C00C00
C00C00
C03C00
403800
707000
0F8000
0F8000
ENDCHAR
STARTCHAR 2203
ENCODING 8707
SWIDTH 1000 0
DWIDTH 32 0
BBX 18 23 7 1
BITMAP
FFFFC0
FFFFC0
000040
000040
000040
000040
000040
000040
000040
000040
000040
FFFFC0
FFFFC0
000040
000040
000040
000040
000040
000040
000040
000040
000040
FFFFC0
ENDCHAR
STARTCHAR 2205
ENCODING 8709
SWIDTH 1000 0
DWIDTH 32 0
BBX 26 27 3 -2
BITMAP
00000040
000000C0
00000080
007F8300
03807400
07807C00
04000800
08003400
08004400
3800C700
30008300
30030300
30040300
300C0300
30080300
30300300
30400300
38C00700
08800400
0B000400
04000800
0F807800
0B807000
307F8000
40000000
C0000000
80000000
ENDCHAR
STARTCHAR 2207
ENCODING 8711
SWIDTH 1000 0
DWIDTH 32 0
BBX 24 26 4 -1
BITMAP
FFFFFF
FFFFFF
7FFFFE
700006
180008
180008
180008
0E0010
0E0010
0F0070
070060
070060
018080
018080
018080
00E080
00E100
00F100
007100
007600
001E00
001E00
001E00
000800
000800
000800
ENDCHAR
STARTCHAR 2208
ENCODING 8712
SWIDTH 1000 0
DWIDTH 32 0
BBX 18 18 7 3
BITMAP
07FFC0
3FFFC0
3C0000
700000
400000
C00000
C00000
800000
FFFFC0
FFFFC0
800000
C00000
400000
700000
700000
3C0000
07FFC0
07FFC0
ENDCHAR
STARTCHAR 2209
ENCODING 8713
SWIDTH 1000 0
DWIDTH 32 0
BBX 18 26 7 -1
BITMAP
004000
004000
004000
004000
07FFC0
3FFFC0
3C4000
704000
404000
C04000
C04000
804000
FFFFC0
FFFFC0
804000
C04000
404000
704000
704000
3C4000
07FFC0
07FFC0
004000
004000
004000
004000
ENDCHAR
STARTCHAR 220B
ENCODING 8715
SWIDTH 1000 0
DWIDTH 32 0
BBX 18 18 7 3
BITMAP
FFF800
FFFF00
000F00
000380
000080
0000C0
0000C0
000040
FFFFC0
FFFFC0
000040
0000C0
000080
000380
000380
000F00
FFF800
FFF800
ENDCHAR
STARTCHAR 2211
ENCODING 8721
SWIDTH 1000 0
DWIDTH 32 0
BBX 32 33 0 -5
BITMAP
FFFFFFFF
FFFFFFFF
F7FFEF87
E7FF8F79
F7FFEF79
F7FFEF79
F7FFEFF9
F781EFE7
F7FFEFFF
F7FFEFF9
F7FFEF79
F7FFEF79
F7FFEFFF
E1FF8787
FFFFFFFF
FFFFFFFF
FFFFFFFF
FFFFFFFF
FFFF87F7
FFFF79E7
FFFF79E7
FFFF79E7
FFFF7997
FF818797
FFFFFFF7
FFFF7977
FFFF7901
FFFF79F7
FFFFFFF7
FFFF87F7
FFFFFFFF
FFFFFFFF
FFFFFFFF
ENDCHAR
STARTCHAR 2212
ENCODING 8722
SWIDTH 1000 0
DWIDTH 32 0
BBX 24 2 4 11
BITMAP
FFFFFF
FFFFFF
ENDCHAR
STARTCHAR 2213
ENCODING 8723
SWIDTH 1000 0
DWIDTH 32 0
BBX 24 25 4 -1
BITMAP
FFFFFF
FFFFFF
000000
000000
001000
001000
001000
001000
001000
001000
001000
001000
001000
001000
FFFFFF
001000
001000
001000
001000
001000
001000
001000
001000
001000
001000
ENDCHAR
STARTCHAR 221A
ENCODING 8730
SWIDTH 1000 0
DWIDTH 32 0
BBX 32 33 0 -5
BITMAP
FFFFFFFF
FFFFFFFF
F7FFEF87
E7FF8F79
F7FFEF79
F7FFEF79
F7FFEFF9
F781EFE7
F7FFEFFF
F7FFEFF9
F7FFEF79
F7FFEF79
F7FFEFFF
E1FF8787
FFFFFFFF
FFFFFFFF
FFFFFFFF
FFFFFFFF
FFFF8701
FFFF797F
FFFF797F
FFFF797F
FFFF7907
FF818779
FFFFFFF9
FFFF79F9
FFFF7979
FFFF7979
FFFFFFFF
FFFF8787
FFFFFFFF
FFFFFFFF
FFFFFFFF
ENDCHAR
STARTCHAR 221D
ENCODING 8733
SWIDTH 1000 0
DWIDTH 32 0
BBX 28 17 1 3
BITMAP
03C00FC0
03C00FC0
1EF03CF0
301CE010
301CE010
200CC000
E00FC000
C0030000
C0030000
C0030000
E00FC000
200CC000
301CE010
301CE010
1EF03CF0
03C00FC0
03C00FC0
ENDCHAR
STARTCHAR 221E
ENCODING 8734
SWIDTH 1000 0
DWIDTH 32 0
BBX 30 17 1 3
BITMAP
03C00F00
03C00F00
1EF03DE0
301CE030
301CE030
200CC010
E00FC01C
C003000C
C003000C
C003000C
E00FC01C
200CC010
301CE030
301CE030
1EF03DE0
03C00F00
03C00F00
ENDCHAR
STARTCHAR 221F
ENCODING 8735
SWIDTH 1000 0
DWIDTH 32 0
BBX 24 25 4 -1
BITMAP
800000
800000
800000
800000
800000
800000
800000
800000
800000
800000
800000
800000
800000
800000
800000
800000
800000
800000
800000
800000
800000
800000
800000
FFFFFF
FFFFFF
ENDCHAR
STARTCHAR 2220
ENCODING 8736
SWIDTH 1000 0
DWIDTH 32 0
BBX 32 33 0 -5
BITMAP
FFFFFFFF
FFFFFFFF
F7FFEF87
E7FF8F79
F7FFEF79
F7FFEF79
F7FFEFF9
F781EFE7
F7FFEFFF
F7FFEFF9
F7FFEF79
F7FFEF79
F7FFEFFF
E1FF8787
FFFFFFFF
FFFFFFFF
FFFFFFFF
FFFFFFFF
FFFF8701
FFFF7979
FFFF79FF
FFFF79F7
FFFF79F7
FF8187EF
FFFFFFEF
FFFF79EF
FFFF79EF
FFFF79EF
FFFFFFEF
FFFF87EF
FFFFFFFF
FFFFFFFF
FFFFFFFF
ENDCHAR
STARTCHAR 2225
ENCODING 8741
SWIDTH 1000 0
DWIDTH 32 0
BBX 22 25 5 -1
BITMAP
00100C
00100C
00100C
002010
002010
002010
00C020
00C020
01C0E0
0100C0
0100C0
020100
020100
020100
0C0200
0C0200
1C0E00
100C00
100C00
201000
201000
201000
C02000
C02000
C02000
ENDCHAR
STARTCHAR 2226
ENCODING 8742
SWIDTH 1000 0
DWIDTH 32 0
BBX 22 25 5 -1
BITMAP
00100C
00100C
00100C
002010
102010
102010
0CC020
02C020
03C0E0
0100C0
01C0C0
022100
023100
021100
0C0E00
0C0200
1C0F00
100D00
100CC0
201020
201020
201000
C02000
C02000
C02000
ENDCHAR
STARTCHAR 2227
ENCODING 8743
SWIDTH 1000 0
DWIDTH 32 0
BBX 23 25 4 -1
BITMAP
001000
001000
001000
006800
006800
006800
008600
008600
018700
010100
010100
060080
060080
060080
080060
080060
180070
100010
100010
600008
600008
600008
800006
800006
800006
ENDCHAR
STARTCHAR 2228
ENCODING 8744
SWIDTH 1000 0
DWIDTH 32 0
BBX 23 25 4 -1
BITMAP
800006
800006
800006
600008
600008
600008
100010
100010
180070
080060
080060
060080
060080
060080
010100
010100
018700
008600
008600
006800
006800
006800
001000
001000
001000
ENDCHAR
STARTCHAR 2229
ENCODING 8745
SWIDTH 1000 0
DWIDTH 32 0
BBX 32 33 0 -5
BITMAP
FFFFFFFF
FFFFFFFF
F7FFEF87
E7FF8F79
F7FFEF79
F7FFEF79
F7FFEFF9
F781EFE7
F7FFEFFF
F7FFEFF9
F7FFEF79
F7FFEF79
F7FFEFFF
E1FF8787
FFFFFFFF
FFFFFFFF
FFFFFFFF
FFFFFFFF
FFFF87EF
FFFF798F
FFFF79EF
FFFF79EF
FFFF79EF
FF8181EF
FFFFF9EF
FFFFF9EF
FFFF79EF
FFFF79EF
FFFFFFEF
FFFF8787
FFFFFFFF
FFFFFFFF
FFFFFFFF
ENDCHAR
STARTCHAR 222A
ENCODING 8746
SWIDTH 1000 0
DWIDTH 32 0
BBX 32 33 0 -5
BITMAP
FFFFFFFF
FFFFFFFF
F7FFEF87
E7FF8F79
F7FFEF79
F7FFEF79
F7FFEFF9
F781EFE7
F7FFEFFF
F7FFEFF9
F7FFEF79
F7FFEF79
F7FFEFFF
E1FF8787
FFFFFFFF
FFFFFFFF
FFFFFFFF
FFFFFFFF
FFFF8787
FFFF7979
FFFF7979
FFFF7979
FFFF79F9
FF8181F7
FFFFF9FF
FFFFF9EF
FFFF799F
FFFF797F
FFFFFF7F
FFFF8701
FFFFFFFF
FFFFFFFF
FFFFFFFF
ENDCHAR
STARTCHAR 222B
ENCODING 8747
SWIDTH 1000 0
DWIDTH 32 0
BBX 32 33 0 -5
BITMAP
FFFFFFFF
FFFFFFFF
F7FFEF87
E7FF8F79
F7FFEF79
F7FFEF79
F7FFEFF9
F781EFE7
F7FFEFFF
F7FFEFF9
F7FFEF79
F7FFEF79
F7FFEFFF
E1FF8787
FFFFFFFF
FFFFFFFF
FFFFFFFF
FFFFFFFF
FFFF8787
FFFF7979
FFFF7979
FFFF7979
FFFF79F9
FF8187F7
FFFFFFFF
FFFF79EF
FFFF799F
FFFF797F
FFFFFF7F
FFFF8701
FFFFFFFF
FFFFFFFF
FFFFFFFF
ENDCHAR
STARTCHAR 222C
ENCODING 8748
SWIDTH 1000 0
DWIDTH 32 0
BBX 18 33 7 -5
BITMAP
0C0380
0C0380
3F07C0
4708C0
4708C0
400800
400800
400800
700C00
700C00
700C00
700C00
780F00
780F00
380700
380700
380700
380700
380700
3C0780
3C0780
0C0380
0C0380
0C0380
0C0380
040080
040080
040080
C43880
C43880
F83F00
700C00
700C00
ENDCHAR
STARTCHAR 222E
ENCODING 8750
SWIDTH 1000 0
DWIDTH 32 0
BBX 10 33 11 -5
BITMAP
0700
0700
0F80
3380
3380
3000
3000
3000
3800
3800
3800
3F00
7F80
7C80
8C40
8C40
8C40
8C40
8C40
4F80
7F80
3F00
0700
0700
0700
0300
0300
0300
7300
7300
7C00
3800
3800
ENDCHAR
STARTCHAR 2234
ENCODING 8756
SWIDTH 1000 0
DWIDTH 32 0
BBX 23 21 4 1
BITMAP
007800
007800
007800
007800
000000
000000
000000
000000
000000
000000
000000
000000
000000
000000
000000
000000
000000
F0001E
F0001E
F0001E
F0001E
ENDCHAR
STARTCHAR 2235
ENCODING 8757
SWIDTH 1000 0
DWIDTH 32 0
BBX 32 33 0 -5
BITMAP
FFFFFFFF
FFFFFFFF
F7FFEF87
E7FF8F79
F7FFEF79
F7FFEF79
F7FFEFF9
F781EFE7
F7FFEFFF
F7FFEFF9
F7FFEF79
F7FFEF79
F7FFEFFF
E1FF8787
FFFFFFFF
FFFFFFFF
FFFFFFFF
FFFFFFFF
FFFF8787
FFFF7979
FFFF7979
FFFF7979
FFFF7979
FF818179
FFFFF979
FFFFF979
FFFF7979
FFFF7979
FFFFFFFF
FFFF8787
FFFFFFFF
FFFFFFFF
FFFFFFFF
ENDCHAR
STARTCHAR 223D
ENCODING 8765
SWIDTH 1000 0
DWIDTH 32 0
BBX 30 17 1 3
BITMAP
03E00F00
03E00F00
1E303DE0
3000E030
3001E030
2001C010
E001001C
C003000C
C003000C
C002000C
E00E001C
200C0010
301C0030
301C0030
1EF031E0
03C01F00
03C01F00
ENDCHAR
STARTCHAR 2243
ENCODING 8771
SWIDTH 1000 0
DWIDTH 32 0
BBX 24 11 4 7
BITMAP
1F8000
70F000
F0F801
801801
000F0E
0001F8
0001F8
000000
000000
FFFFFF
FFFFFF
ENDCHAR
STARTCHAR 2245
ENCODING 8773
SWIDTH 1000 0
DWIDTH 32 0
BBX 24 17 4 5
BITMAP
1F8000
70F000
F0F801
801801
000F0E
0001F8
0001F8
000000
000000
FFFFFF
FFFFFF
000000
000000
000000
000000
000000
FFFFFF
ENDCHAR
STARTCHAR 2248
ENCODING 8776
SWIDTH 1000 0
DWIDTH 32 0
BBX 24 13 4 5
BITMAP
1F8000
70F000
F0F801
801801
000F0E
0001F8
1F81F8
1F8000
70F000
801801
801F0F
000F0E
0001F8
ENDCHAR
STARTCHAR 2252
ENCODING 8786
SWIDTH 1000 0
DWIDTH 32 0
BBX 32 33 0 -5
BITMAP
FFFFFFFF
FFFFFFFF
F7FFEF87
E7FF8F79
F7FFEF79
F7FFEF79
F7FFEFF9
F781EFE7
F7FFEFFF
F7FFEFF9
F7FFEF79
F7FFEF79
F7FFEFFF
E1FF8787
FFFFFFFF
FFFFFFFF
FFFFFFFF
FFFFFFFF
FFFF8787
FFFF7979
FFFF7979
FFFF7979
FFFF7979
FF818779
FFFFFF79
FFFF7979
FFFF7979
FFFF7979
FFFFFFFF
FFFF8787
FFFFFFFF
FFFFFFFF
FFFFFFFF
ENDCHAR
STARTCHAR 2260
ENCODING 8800
SWIDTH 1000 0
DWIDTH 32 0
BBX 24 21 4 1
BITMAP
000100
000100
000100
000100
000600
000600
FFFFFF
FFFFFF
000800
000800
001800
001000
001000
FFFFFF
FFFFFF
006000
006000
008000
008000
008000
008000
ENDCHAR
STARTCHAR 2261
ENCODING 8801
SWIDTH 1000 0
DWIDTH 32 0
BBX 32 33 0 -5
BITMAP
FFFFFFFF
FFFFFFFF
F7FFEF87
E7FF8F79
F7FFEF79
F7FFEF79
F7FFEFF9
F781EFE7
F7FFEFFF
F7FFEFF9
F7FFEF79
F7FFEF79
F7FFEFFF
E1FF8787
FFFFFFFF
FFFFFFFF
FFFFFFFF
FFFFFFFF
FFFF87EF
FFFF798F
FFFF79EF
FFFF79EF
FFFF79EF
FF8187EF
FFFFFFEF
FFFF79EF
FFFF79EF
FFFF79EF
FFFFFFEF
FFFF8787
FFFFFFFF
FFFFFFFF
FFFFFFFF
ENDCHAR
STARTCHAR 2262
ENCODING 8802
SWIDTH 1000 0
DWIDTH 32 0
BBX 24 26 4 -1
BITMAP
000080
000080
000080
000100
000100
FFFFFF
FFFFFF
000600
000600
000E00
000800
000800
FFFFFF
FFFFFF
001000
001000
006000
006000
006000
FFFFFF
008000
008000
008000
010000
010000
010000
ENDCHAR
STARTCHAR 2266
ENCODING 8806
SWIDTH 1000 0
DWIDTH 32 0
BBX 24 26 4 -1
BITMAP
000007
00007F
000078
000780
007800
07F800
078000
180000
E00000
F80000
180000
078000
007800
007F80
000780
000078
000007
000007
000000
FFFFFF
000000
000000
000000
000000
FFFFFF
FFFFFF
ENDCHAR
STARTCHAR 2267
ENCODING 8807
SWIDTH 1000 0
DWIDTH 32 0
BBX 24 26 4 -1
BITMAP
E00000
FE0000
1E0000
01E000
001E00
001FE0
0001E0
000018
000007
00001F
000018
0001E0
001E00
01FE00
01E000
1E0000
E00000
E00000
000000
FFFFFF
000000
000000
000000
000000
FFFFFF
FFFFFF
ENDCHAR
STARTCHAR 226A
ENCODING 8810
SWIDTH 1000 0
DWIDTH 32 0
BBX 26 27 3 -2
BITMAP
00004040
0003C3C0
00038380
00040400
00383800
00787800
00404000
03838000
04040000
3C3C0000
38380000
40400000
80800000
C0C00000
40400000
38380000
04040000
07070000
03030000
00C0C000
00303000
00383800
00080800
00070700
00008080
0000C0C0
00004040
ENDCHAR
STARTCHAR 226B
ENCODING 8811
SWIDTH 1000 0
DWIDTH 32 0
BBX 26 27 3 -2
BITMAP
80800000
F0F00000
70700000
08080000
07070000
07878000
00808000
00707000
00080800
000F0F00
00070700
00008080
00004040
0000C0C0
00008080
00070700
00080800
00383800
00303000
00C0C000
03030000
07070000
04040000
38380000
40400000
C0C00000
80800000
ENDCHAR
STARTCHAR 2276
ENCODING 8822
SWIDTH 1000 0
DWIDTH 32 0
BBX 24 27 4 -2
BITMAP
00000F
0000FF
0000F0
000F00
00F000
0FF000
0F0000
F00000
0F0000
0FF000
00F000
000F00
F000F0
FF00FF
0F000F
00F000
000F00
000FF0
0000F0
00000F
0000F0
000FF0
000F00
00F000
0F0000
FF0000
F00000
ENDCHAR
STARTCHAR 2277
ENCODING 8823
SWIDTH 1000 0
DWIDTH 32 0
BBX 24 27 4 -2
BITMAP
F00000
FF0000
0F0000
00F000
000F00
000FF0
0000F0
00000F
0000F0
000FF0
000F00
00F000
0F000F
FF00FF
F000F0
000F00
00F000
0FF000
0F0000
F00000
0F0000
0FF000
00F000
000F00
0000F0
0000FF
00000F
ENDCHAR
STARTCHAR 2282
ENCODING 8834
SWIDTH 1000 0
DWIDTH 32 0
BBX 24 19 4 2
BITMAP
01FFFF
0FFFFF
0F0000
180000
700000
700000
600000
E00000
800000
800000
800000
E00000
600000
700000
700000
180000
0F0000
0FFFFF
01FFFF
ENDCHAR
STARTCHAR 2283
ENCODING 8835
SWIDTH 1000 0
DWIDTH 32 0
BBX 24 19 4 2
BITMAP
FFFF80
FFFFF0
0000F0
000018
00000E
00000E
000006
000007
000001
000001
000001
000007
000006
00000E
00000E
000018
0000F0
FFFFF0
FFFF80
ENDCHAR
STARTCHAR 2284
ENCODING 8836
SWIDTH 1000 0
DWIDTH 32 0
BBX 24 27 4 -2
BITMAP
000006
000006
000006
000008
01FFFF
0FFFFF
0F0010
180060
700060
7000E0
600080
E00080
800100
800100
800100
E00600
600600
700E00
700800
180800
0F1000
0FFFFF
01FFFF
006000
008000
008000
008000
ENDCHAR
STARTCHAR 2285
ENCODING 8837
SWIDTH 1000 0
DWIDTH 32 0
BBX 24 27 4 -2
BITMAP
000100
000100
000100
000600
FFFF80
FFFFF0
0008F0
001018
00100E
00700E
006006
006007
008001
008001
008001
010007
010006
07000E
06000E
060018
0800F0
FFFFF0
FFFF80
100000
600000
600000
600000
ENDCHAR
STARTCHAR 2286
ENCODING 8838
SWIDTH 1000 0
DWIDTH 32 0
BBX 24 21 4 1
BITMAP
07FFFF
1E0000
7E0000
700000
600000
E00000
E00000
800000
800000
E00000
E00000
600000
700000
1E0000
1FFFFF
07FFFF
000000
000000
000000
000000
FFFFFF
ENDCHAR
STARTCHAR 2287
ENCODING 8839
SWIDTH 1000 0
DWIDTH 32 0
BBX 24 21 4 1
BITMAP
FFFFE0
000078
00007E
00000E
000006
000007
000007
000001
000001
000007
000007
000006
00000E
000078
FFFFF8
FFFFE0
000000
000000
000000
000000
FFFFFF
ENDCHAR
STARTCHAR 228A
ENCODING 8842
SWIDTH 1000 0
DWIDTH 32 0
BBX 24 25 4 -3
BITMAP
07FFFF
1E0000
7E0000
700000
600000
E00000
E00000
800000
800000
E00000
E00000
600000
700000
1E0000
1FFFFF
07FFFF
000080
000100
000700
000600
FFFFFF
000800
001800
001000
006000
ENDCHAR
STARTCHAR 228B
ENCODING 8843
SWIDTH 1000 0
DWIDTH 32 0
BBX 24 25 4 -3
BITMAP
FFFFE0
000078
00007E
00000E
000006
000007
000007
000001
000001
000007
000007
000006
00000E
000078
FFFFF8
FFFFE0
000600
000800
001800
001000
FFFFFF
006000
00E000
008000
010000
ENDCHAR
STARTCHAR 2295
ENCODING 8853
SWIDTH 1000 0
DWIDTH 32 0
BBX 30 29 1 -3
BITMAP
001FE000
00E01C00
03E01F00
03000300
0C0200C0
10020020
10020020
10020020
20020010
20020010
E002001C
C002000C
C002000C
CFFFFFCC
CFFFFFCC
C002000C
C002000C
C002000C
E002001C
20020010
20020010
10020020
10020020
10020020
0C0200C0
03000300
03E01F00
00E01C00
001FE000
ENDCHAR
STARTCHAR 2296
ENCODING 8854
SWIDTH 1000 0
DWIDTH 32 0
BBX 30 29 1 -3
BITMAP
001FE000
00E01C00
03E01F00
03000300
0C0000C0
10000020
10000020
10000020
20000010
20000010
E000001C
C000000C
C000000C
CFFFFFCC
CFFFFFCC
C000000C
C000000C
C000000C
E000001C
20000010
20000010
10000020
10000020
10000020
0C0000C0
03000300
03E01F00
00E01C00
001FE000
ENDCHAR
STARTCHAR 2297
ENCODING 8855
SWIDTH 1000 0
DWIDTH 32 0
BBX 30 29 1 -3
BITMAP
001FE000
00E01C00
03E01F00
03000300
0C0000C0
10000020
11000220
11000220
20C00C10
20201010
E030301C
C010200C
C00CC00C
C003000C
C003000C
C003000C
C00CC00C
C010200C
E030301C
20201010
20C00C10
11000220
11000220
10000020
0C0000C0
03000300
03E01F00
00E01C00
001FE000
ENDCHAR
STARTCHAR 22A5
ENCODING 8869
SWIDTH 1000 0
DWIDTH 32 0
BBX 32 33 0 -5
BITMAP
FFFFFFFF
FFFFFFFF
F7FFEF87
E7FF8F79
F7FFEF79
F7FFEF79
F7FFEFF9
F781EFE7
F7FFEFFF
F7FFEFF9
F7FFEF79
F7FFEF79
F7FFEFFF
E1FF8787
FFFFFFFF
FFFFFFFF
FFFFFFFF
FFFFFFFF
FFFF8787
FFFF7979
FFFF797F
FFFF797F
FFFF7967
FF818719
FFFFFF79
FFFF7979
FFFF7979
FFFF7979
FFFFFFFF
FFFF8787
FFFFFFFF
FFFFFFFF
FFFFFFFF
ENDCHAR
STARTCHAR 22BF
ENCODING 8895
SWIDTH 1000 0
DWIDTH 32 0
BBX 24 25 4 -1
BITMAP
000001
000001
000007
000009
000019
000011
000061
000081
000181
000101
000601
000801
001801
001001
006001
008001
018001
010001
060001
080001
180001
100001
600001
FFFFFF
FFFFFF
ENDCHAR
STARTCHAR 22DA
ENCODING 8922
SWIDTH 1000 0
DWIDTH 32 0
BBX 20 28 5 -2
BITMAP
0000F0
000F00
00FF00
00F000
0F0000
F00000
FF0000
0F0000
00F000
000F00
000FF0
0000F0
000000
FFFFF0
FFFFF0
000000
F00000
0F0000
0FF000
00F000
000F00
0000F0
000FF0
000F00
00F000
0F0000
FF0000
F00000
ENDCHAR
STARTCHAR 22DB
ENCODING 8923
SWIDTH 1000 0
DWIDTH 32 0
BBX 20 28 5 -2
BITMAP
F00000
0F0000
0FF000
00F000
000F00
0000F0
000FF0
000F00
00F000
0F0000
FF0000
F00000
000000
FFFFF0
FFFFF0
000000
0000F0
000F00
00FF00
00F000
0F0000
F00000
FF0000
0F0000
00F000
000F00
000FF0
0000F0
ENDCHAR
STARTCHAR 2305
ENCODING 8965
SWIDTH 1000 0
DWIDTH 32 0
BBX 23 15 4 2
BITMAP
FFFFFE
FFFFFE
001000
007800
006800
00EE00
008600
010100
010100
070180
060080
080060
080060
180070
100010
ENDCHAR
STARTCHAR 2306
ENCODING 8966
SWIDTH 1000 0
DWIDTH 32 0
BBX 23 19 4 2
BITMAP
FFFFFE
FFFFFE
000000
000000
FFFFFE
FFFFFE
001000
007800
006800
00EE00
008600
010100
010100
070180
060080
080060
080060
180070
100010
ENDCHAR
STARTCHAR 2312
ENCODING 8978
SWIDTH 1000 0
DWIDTH 32 0
BBX 32 5 0 23
BITMAP
00FFFF00
00FFFF00
1FFFFFF8
F000000F
F000000F
ENDCHAR
STARTCHAR 2318
ENCODING 8984
SWIDTH 1000 0
DWIDTH 32 0
BBX 30 29 1 -3
BITMAP
1F0003E0
31C00E30
F1E01E3C
E0E01C1C
C020100C
C020100C
E020101C
E020101C
30201030
1FFFFFE0
1FFFFFE0
00201000
00201000
00201000
00201000
00201000
00201000
00201000
1FFFFFE0
1FFFFFE0
30201030
E020101C
E020101C
C020100C
C020100C
E0E01C1C
F1E01E3C
31C00E30
1F0003E0
ENDCHAR
STARTCHAR 23BE
ENCODING 9150
SWIDTH 1000 0
DWIDTH 32 0
BBX 17 33 15 -5
BITMAP
FFFF80
FFFF80
800000
800000
800000
800000
800000
800000
800000
800000
800000
800000
800000
800000
800000
800000
800000
800000
800000
800000
800000
800000
800000
800000
800000
800000
800000
800000
800000
800000
800000
800000
800000
ENDCHAR
STARTCHAR 23BF
ENCODING 9151
SWIDTH 1000 0
DWIDTH 32 0
BBX 17 33 15 -5
BITMAP
800000
800000
800000
800000
800000
800000
800000
800000
800000
800000
800000
800000
800000
800000
800000
800000
800000
800000
800000
800000
800000
800000
800000
800000
800000
800000
800000
800000
800000
800000
800000
FFFF80
FFFF80
ENDCHAR
STARTCHAR 23C0
ENCODING 9152
SWIDTH 1000 0
DWIDTH 32 0
BBX 23 33 4 -5
BITMAP
001000
001000
001000
001000
00FE00
00FE00
071180
181070
181070
101010
601008
601008
E0100E
801006
801006
801006
801006
801006
801006
601008
601008
601008
101010
181070
1F11F0
071180
00FE00
001000
001000
001000
001000
001000
001000
ENDCHAR
STARTCHAR 23C1
ENCODING 9153
SWIDTH 1000 0
DWIDTH 32 0
BBX 32 33 0 -5
BITMAP
FFFFFFFF
FFFFFFFF
00010000
00010000
000FE000
000FE000
00711800
01810700
01810700
01010100
06010080
06010080
0E0100E0
08010060
08010060
08010060
08010060
08010060
08010060
06010080
06010080
06010080
01010100
01810700
01F11F00
00711800
000FE000
00010000
00010000
00010000
00010000
00010000
00010000
ENDCHAR
STARTCHAR 23C2
ENCODING 9154
SWIDTH 1000 0
DWIDTH 32 0
BBX 32 33 0 -5
BITMAP
00010000
00010000
00010000
00010000
000FE000
000FE000
00711800
01810700
01810700
01010100
06010080
06010080
0E0100E0
08010060
08010060
08010060
08010060
08010060
08010060
06010080
06010080
06010080
01010100
01810700
01F11F00
00711800
000FE000
00010000
00010000
00010000
00010000
FFFFFFFF
FFFFFFFF
ENDCHAR
STARTCHAR 23C3
ENCODING 9155
SWIDTH 1000 0
DWIDTH 32 0
BBX 23 33 4 -5
BITMAP
001000
001000
001000
001000
001000
001000
001000
007800
007800
007800
009600
009600
019700
011100
011100
061080
061080
061080
081060
081060
181070
101010
101010
601008
601008
601008
FFFFFE
001000
001000
001000
001000
001000
001000
ENDCHAR
STARTCHAR 23C4
ENCODING 9156
SWIDTH 1000 0
DWIDTH 32 0
BBX 32 33 0 -5
BITMAP
FFFFFFFF
FFFFFFFF
00010000
00010000
00010000
00010000
00010000
00078000
00078000
00078000
00096000
00096000
00197000
00111000
00111000
00610800
00610800
00610800
00810600
00810600
01810700
01010100
01010100
06010080
06010080
06010080
0FFFFFE0
00010000
00010000
00010000
00010000
00010000
00010000
ENDCHAR
STARTCHAR 23C5
ENCODING 9157
SWIDTH 1000 0
DWIDTH 32 0
BBX 32 33 0 -5
BITMAP
00010000
00010000
00010000
00010000
00010000
00010000
00010000
00078000
00078000
00078000
00096000
00096000
00197000
00111000
00111000
00610800
00610800
00610800
00810600
00810600
01810700
01010100
01010100
06010080
06010080
06010080
0FFFFFE0
00010000
00010000
00010000
00010000
FFFFFFFF
FFFFFFFF
ENDCHAR
STARTCHAR 23C6
ENCODING 9158
SWIDTH 1000 0
DWIDTH 32 0
BBX 23 33 4 -5
BITMAP
001000
001000
001000
001000
001000
001000
001000
001000
001000
001000
001000
001000
001000
001000
1F9000
70F006
F0FE1E
801E18
0017F0
001000
001000
001000
001000
001000
001000
001000
001000
001000
001000
001000
001000
001000
001000
ENDCHAR
STARTCHAR 23C7
ENCODING 9159
SWIDTH 1000 0
DWIDTH 32 0
BBX 32 33 0 -5
BITMAP
FFFFFFFF
FFFFFFFF
00010000
00010000
00010000
00010000
00010000
00010000
00010000
00010000
00010000
00010000
00010000
00010000
01F90000
070F0060
0F0FE1E0
0801E180
00017F00
00010000
00010000
00010000
00010000
00010000
00010000
00010000
00010000
00010000
00010000
00010000
00010000
00010000
00010000
ENDCHAR
STARTCHAR 23C8
ENCODING 9160
SWIDTH 1000 0
DWIDTH 32 0
BBX 32 33 0 -5
BITMAP
00010000
00010000
00010000
00010000
00010000
00010000
00010000
00010000
00010000
00010000
00010000
00010000
00010000
00010000
01F90000
070F0060
0F0FE1E0
0801E180
00017F00
00010000
00010000
00010000
00010000
00010000
00010000
00010000
00010000
00010000
00010000
00010000
00010000
FFFFFFFF
FFFFFFFF
ENDCHAR
STARTCHAR 23C9
ENCODING 9161
SWIDTH 1000 0
DWIDTH 32 0
BBX 32 33 0 -5
BITMAP
FFFFFFFF
FFFFFFFF
00010000
00010000
00010000
00010000
00010000
00010000
00010000
00010000
00010000
00010000
00010000
00010000
00010000
00010000
00010000
00010000
00010000
00010000
00010000
00010000
00010000
00010000
00010000
00010000
00010000
00010000
00010000
00010000
00010000
00010000
00010000
ENDCHAR
STARTCHAR 23CA
ENCODING 9162
SWIDTH 1000 0
DWIDTH 32 0
BBX 32 33 0 -5
BITMAP
00010000
00010000
00010000
00010000
00010000
00010000
00010000
00010000
00010000
00010000
00010000
00010000
00010000
00010000
00010000
00010000
00010000
00010000
00010000
00010000
00010000
00010000
00010000
00010000
00010000
00010000
00010000
00010000
00010000
00010000
00010000
FFFFFFFF
FFFFFFFF
ENDCHAR
STARTCHAR 23CB
ENCODING 9163
SWIDTH 1000 0
DWIDTH 32 0
BBX 16 33 0 -5
BITMAP
FFFF
FFFF
0001
0001
0001
0001
0001
0001
0001
0001
0001
0001
0001
0001
0001
0001
0001
0001
0001
0001
0001
0001
0001
0001
0001
0001
0001
0001
0001
0001
0001
0001
0001
ENDCHAR
STARTCHAR 23CC
ENCODING 9164
SWIDTH 1000 0
DWIDTH 32 0
BBX 16 33 0 -5
BITMAP
0001
0001
0001
0001
0001
0001
0001
0001
0001
0001
0001
0001
0001
0001
0001
0001
0001
0001
0001
0001
0001
0001
0001
0001
0001
0001
0001
0001
0001
0001
0001
FFFF
FFFF
ENDCHAR
STARTCHAR 23CE
ENCODING 9166
SWIDTH 1000 0
DWIDTH 32 0
BBX 30 27 1 -2
BITMAP
00000FFC
00000FFC
00000C0C
00000C0C
00100C0C
00300C0C
00300C0C
00D00C0C
01100C0C
03101C0C
02101C0C
0C1FF00C
1000000C
3000000C
2000000C
C0000010
20000010
300000F0
100000E0
0C1FFF00
02100000
03100000
01100000
00D00000
00300000
00300000
00100000
ENDCHAR
STARTCHAR 2423
ENCODING 9251
SWIDTH 1000 0
DWIDTH 32 0
BBX 26 6 3 -2
BITMAP
80000040
80000040
80000040
80000040
FFFFFFC0
FFFFFFC0
ENDCHAR
STARTCHAR 2460
ENCODING 9312
SWIDTH 1000 0
DWIDTH 32 0
BBX 32 33 0 -5
BITMAP
000FF000
000FF000
00700E00
01800180
078001E0
06000060
08008010
10018008
101F8008
101F8008
60018006
60018006
E0018007
80018001
80018001
80018001
80018001
80018001
80018001
80018001
E0018007
60018006
60018006
10018008
10018008
10018008
081FF810
06000060
078001E0
01800180
00700E00
000FF000
000FF000
ENDCHAR
STARTCHAR 2461
ENCODING 9313
SWIDTH 1000 0
DWIDTH 32 0
BBX 32 33 0 -5
BITMAP
000FF000
000FF000
00700E00
01800180
078001E0
06000060
0807E010
101E7808
101E7808
10181808
60700E06
60700E06
E0701E07
80001801
80001801
80007001
8000F001
8000E001
80018001
80070001
E00F0007
600E0006
60180606
10100608
107FFE08
107FFE08
087FFE10
06000060
078001E0
01800180
00700E00
000FF000
000FF000
ENDCHAR
STARTCHAR 2462
ENCODING 9314
SWIDTH 1000 0
DWIDTH 32 0
BBX 32 33 0 -5
BITMAP
000FF000
000FF000
00700E00
01800180
078001E0
06000060
0807E010
101E7808
101E7808
10181808
60700E06
60700E06
E0700E07
80000E01
80001801
8007F001
8007F801
80007801
80001801
80700E01
E0700E07
60700E06
60700E06
10181808
101E7808
101E7808
0807E010
06000060
078001E0
01800180
00700E00
000FF000
000FF000
ENDCHAR
STARTCHAR 2463
ENCODING 9315
SWIDTH 1000 0
DWIDTH 32 0
BBX 32 33 0 -5
BITMAP
000FF000
000FF000
00700E00
01800180
078001E0
06000060
0801F010
10017008
10077008
10067008
60067006
60087006
E0087007
80087001
80107001
80107001
80707001
80607001
80607001
80807001
E0FFFF07
60FFFF06
60007006
10007008
10007008
10007008
0801FE10
06000060
078001E0
01800180
00700E00
000FF000
000FF000
ENDCHAR
STARTCHAR 2464
ENCODING 9316
SWIDTH 1000 0
DWIDTH 32 0
BBX 32 33 0 -5
BITMAP
000FF000
000FF000
00700E00
01800180
078001E0
06000060
081FF810
101FF808
101FF808
10100008
60100006
60100006
E0100007
80100001
8017F001
80181801
80181801
80101801
80000E01
80000E01
E0000E07
60000E06
60700E06
10701808
10781808
10181808
080FF010
06000060
078001E0
01800180
00700E00
000FF000
000FF000
ENDCHAR
STARTCHAR 2465
ENCODING 9317
SWIDTH 1000 0
DWIDTH 32 0
BBX 32 33 0 -5
BITMAP
000FF000
000FF000
00700E00
01800180
078001E0
06000060
080FF010
10181808
10181808
10181808
60700006
60700006
E0700007
80700001
8077F001
80781801
80781801
80701801
80700E01
80700E01
E0700E07
60700E06
60700E06
10181808
10181808
10181808
080FF010
06000060
078001E0
01800180
00700E00
000FF000
000FF000
ENDCHAR
STARTCHAR 2466
ENCODING 9318
SWIDTH 1000 0
DWIDTH 32 0
BBX 32 33 0 -5
BITMAP
000FF000
000FF000
00700E00
01800180
078001E0
06000060
087FFE10
107FFE08
107FFE08
10600608
60600806
60001806
E0001807
80001001
80007001
80006001
8000E001
8000E001
80008001
80008001
E0018007
60018006
60018006
10018008
10018008
10018008
08018010
06000060
078001E0
01800180
00700E00
000FF000
000FF000
ENDCHAR
STARTCHAR 2467
ENCODING 9319
SWIDTH 1000 0
DWIDTH 32 0
BBX 32 33 0 -5
BITMAP
000FF000
000FF000
00700E00
01800180
078001E0
06000060
0807E010
101E7808
101E7808
10181808
60700E06
60700E06
E0780E07
80180801
801F1001
800FF001
800FF001
8008F001
80101801
80701E01
E0701E07
60700E06
60700E06
10181808
101E7808
101E7808
0807E010
06000060
078001E0
01800180
00700E00
000FF000
000FF000
ENDCHAR
STARTCHAR 2468
ENCODING 9320
SWIDTH 1000 0
DWIDTH 32 0
BBX 32 33 0 -5
BITMAP
000FF000
000FF000
00700E00
01800180
078001E0
06000060
080FF010
10181808
10181808
10181808
60700E06
60700E06
E0700E07
80700E01
80700E01
80180E01
80181E01
80181E01
800FEE01
80000E01
E0000E07
60000E06
60000E06
10181808
10181808
10181808
080FF010
06000060
078001E0
01800180
00700E00
000FF000
000FF000
ENDCHAR
STARTCHAR 2469
ENCODING 9321
SWIDTH 1000 0
DWIDTH 32 0
BBX 32 33 0 -5
BITMAP
000FF000
000FF000
00700E00
01800180
078001E0
06000060
08000010
10101E08
10707F08
10707708
61F06106
6070E186
E070E187
8070E181
8070E181
8070E181
8070E181
8070E181
8070E181
8070E181
E070E187
6070E186
60706106
10707708
11FE7F08
11FE1E08
08000010
06000060
078001E0
01800180
00700E00
000FF000
000FF000
ENDCHAR
STARTCHAR 246A
ENCODING 9322
SWIDTH 1000 0
DWIDTH 32 0
BBX 32 33 0 -5
BITMAP
000FF000
000FF000
00700E00
01800180
078001E0
06000060
08000010
10100608
10700E08
10700E08
61F07E06
60700E06
E0700E07
80700E01
80700E01
80700E01
80700E01
80700E01
80700E01
80700E01
E0700E07
60700E06
60700E06
10700E08
11FE7F88
11FE7F88
08000010
06000060
078001E0
01800180
00700E00
000FF000
000FF000
ENDCHAR
STARTCHAR 246B
ENCODING 9323
SWIDTH 1000 0
DWIDTH 32 0
BBX 32 33 0 -5
BITMAP
000FF000
000FF000
00700E00
01800180
078001E0
06000060
08000010
10101E08
10707F08
10707708
61F0E186
6070E186
E070E187
80700181
80700181
80700701
80700701
80700601
80700E01
80701801
E0707887
60707086
60706086
1070FF88
11FEFF88
11FEFF88
08000010
06000060
078001E0
01800180
00700E00
000FF000
000FF000
ENDCHAR
STARTCHAR 246C
ENCODING 9324
SWIDTH 1000 0
DWIDTH 32 0
BBX 32 33 0 -5
BITMAP
000FF000
000FF000
00700E00
01800180
078001E0
06000060
08000010
10101E08
10707F08
10707708
61F0E186
6070E186
E070E187
80700181
80700101
80701E01
80701F01
80700701
80700181
8070E181
E070E187
6070E186
6070E186
10707708
11FE7F08
11FE1E08
08000010
06000060
078001E0
01800180
00700E00
000FF000
000FF000
ENDCHAR
STARTCHAR 246D
ENCODING 9325
SWIDTH 1000 0
DWIDTH 32 0
BBX 32 33 0 -5
BITMAP
000FF000
000FF000
00700E00
01800180
078001E0
06000060
08000010
10100F08
10700F08
10700F08
61F01706
60701706
E0707707
80706701
80706701
80706701
8070E701
80708701
80708701
8070FF81
E070FF87
60700706
60700706
10700708
11FE0F88
11FE0F88
08000010
06000060
078001E0
01800180
00700E00
000FF000
000FF000
ENDCHAR
STARTCHAR 246E
ENCODING 9326
SWIDTH 1000 0
DWIDTH 32 0
BBX 32 33 0 -5
BITMAP
000FF000
000FF000
00700E00
01800180
078001E0
06000060
08000010
10107F08
10707F08
10707F08
61F06006
60706006
E0706007
80706001
80707E01
80706701
80706781
80700181
80700181
8070E181
E070E187
6070E186
6070E186
10707708
11FE7F08
11FE1E08
08000010
06000060
078001E0
01800180
00700E00
000FF000
000FF000
ENDCHAR
STARTCHAR 246F
ENCODING 9327
SWIDTH 1000 0
DWIDTH 32 0
BBX 32 33 0 -5
BITMAP
000FF000
000FF000
00700E00
01800180
078001E0
06000060
08000010
10101E08
10707F08
10707708
61F0E186
6070E186
E070E187
8070E001
8070FE01
8070F701
8070F781
8070E181
8070E181
8070E181
E070E187
6070E186
6070E186
10707708
11FE7F08
11FE1E08
08000010
06000060
078001E0
01800180
00700E00
000FF000
000FF000
ENDCHAR
STARTCHAR 2470
ENCODING 9328
SWIDTH 1000 0
DWIDTH 32 0
BBX 32 33 0 -5
BITMAP
000FF000
000FF000
00700E00
01800180
078001E0
06000060
08000010
1010FF88
1070FF88
1070FF88
61F08086
60708106
E0708107
80700101
80700701
80700601
80700E01
80700E01
80700E01
80700801
E0701807
60701806
60701806
10701808
11FE1808
11FE1808
08000010
06000060
078001E0
01800180
00700E00
000FF000
000FF000
ENDCHAR
STARTCHAR 2471
ENCODING 9329
SWIDTH 1000 0
DWIDTH 32 0
BBX 32 33 0 -5
BITMAP
000FF000
000FF000
00700E00
01800180
078001E0
06000060
08000010
10101E08
10707F08
10707708
61F0E186
6070E186
E070E187
8070E181
80707101
80701E01
80707F01
80706701
8070E181
8070E181
E070E187
6070E186
6070E186
10707708
11FE7F08
11FE1E08
08000010
06000060
078001E0
01800180
00700E00
000FF000
000FF000
ENDCHAR
STARTCHAR 2472
ENCODING 9330
SWIDTH 1000 0
DWIDTH 32 0
BBX 32 33 0 -5
BITMAP
000FF000
000FF000
00700E00
01800180
078001E0
06000060
08000010
10101E08
10707F08
10707708
61F0E186
6070E186
E070E187
8070E181
8070E181
8070E181
8070F781
80707781
80701F81
80700181
E070E187
6070E186
6070E186
10707708
11FE7F08
11FE1E08
08000010
06000060
078001E0
01800180
00700E00
000FF000
000FF000
ENDCHAR
STARTCHAR 2473
ENCODING 9331
SWIDTH 1000 0
DWIDTH 32 0
BBX 32 33 0 -5
BITMAP
000FF000
000FF000
00700E00
01800180
078001E0
06000060
08000010
10780F08
10FE1F88
10EE1988
61871086
618770E6
E18770E7
800770E1
800770E1
800E70E1
800E70E1
800870E1
801870E1
807070E1
E0F170E7
60E170E6
60811086
11FF1988
11FF1F88
11FF0F08
08000010
06000060
078001E0
01800180
00700E00
000FF000
000FF000
ENDCHAR
STARTCHAR 24D0
ENCODING 9424
SWIDTH 1000 0
DWIDTH 32 0
BBX 32 33 0 -5
BITMAP
000FF000
000FF000
00700E00
01800180
078001E0
06000060
08000010
10000008
10000008
10000008
60000006
6007E006
E01FF007
80187001
80001801
80001801
800FF801
800FF801
80181801
80701801
E0701807
60701806
60187906
100F8E08
100F8E08
10000008
08000010
06000060
078001E0
01800180
00700E00
000FF000
000FF000
ENDCHAR
STARTCHAR 24D1
ENCODING 9425
SWIDTH 1000 0
DWIDTH 32 0
BBX 32 33 0 -5
BITMAP
000FF000
000FF000
00700E00
01800180
078001E0
06000060
08180010
10F80008
10F80008
10180008
60180006
6019F806
E01FFE07
801E0E01
80180E01
80180701
80180701
80180701
80180701
80180701
E0180F07
60180E06
601E0E06
1019F808
1019F808
10000008
08000010
06000060
078001E0
01800180
00700E00
000FF000
000FF000
ENDCHAR
STARTCHAR 24D2
ENCODING 9426
SWIDTH 1000 0
DWIDTH 32 0
BBX 32 33 0 -5
BITMAP
000FF000
000FF000
00700E00
01800180
078001E0
06000060
08000010
10000008
10000008
10000008
60000006
600FF006
E01FF807
80181801
80180E01
80700E01
80700E01
80700001
80700001
80700001
E0780607
60180606
60180806
100FF008
100FF008
10000008
08000010
06000060
078001E0
01800180
00700E00
000FF000
000FF000
ENDCHAR
STARTCHAR 24D3
ENCODING 9427
SWIDTH 1000 0
DWIDTH 32 0
BBX 32 33 0 -5
BITMAP
000FF000
000FF000
00700E00
01800180
078001E0
06000060
0800F810
10001808
10001808
10001808
60001806
601F9806
E07FF807
80707801
80701801
80E01801
80E01801
80E01801
80E01801
80E01801
E0F01807
60701806
60707806
101F9F08
101F9F08
10000008
08000010
06000060
078001E0
01800180
00700E00
000FF000
000FF000
ENDCHAR
STARTCHAR 24D4
ENCODING 9428
SWIDTH 1000 0
DWIDTH 32 0
BBX 32 33 0 -5
BITMAP
000FF000
000FF000
00700E00
01800180
078001E0
06000060
08000010
10000008
10000008
10000008
60000006
600FF006
E01FF807
80181801
80180E01
80700E01
807FFE01
807FFE01
80700001
80700001
E0780607
60180606
60180806
100FF008
100FF008
10000008
08000010
06000060
078001E0
01800180
00700E00
000FF000
000FF000
ENDCHAR
STARTCHAR 24D5
ENCODING 9429
SWIDTH 1000 0
DWIDTH 32 0
BBX 32 33 0 -5
BITMAP
000FF000
000FF000
00700E00
01800180
078001E0
06000060
0800F810
10018E08
10078E08
10070E08
60070006
60070006
E07FF007
807FF001
80070001
80070001
80070001
80070001
80070001
80070001
E0070007
60070006
60070006
101FE008
101FE008
10000008
08000010
06000060
078001E0
01800180
00700E00
000FF000
000FF000
ENDCHAR
STARTCHAR 24D6
ENCODING 9430
SWIDTH 1000 0
DWIDTH 32 0
BBX 32 33 0 -5
BITMAP
000FF000
000FF000
00700E00
01800180
078001E0
06000060
08000010
10000008
10000008
10000008
60000606
6007EF06
E00FFF07
800E7101
80181801
80181801
80187801
80187001
800FE001
80060001
E00FF807
6009F806
60101E06
10700E08
10780E08
10780E08
081FF810
06000060
078001E0
01800180
00700E00
000FF000
000FF000
ENDCHAR
STARTCHAR 24D7
ENCODING 9431
SWIDTH 1000 0
DWIDTH 32 0
BBX 32 33 0 -5
BITMAP
000FF000
000FF000
00700E00
01800180
078001E0
06000060
08180010
10F80008
10F80008
10180008
60180006
6019E006
E01FF807
801E1801
80180E01
80180E01
80180E01
80180E01
80180E01
80180E01
E0180E07
60180E06
60180E06
107E1F08
107E1F08
10000008
08000010
06000060
078001E0
01800180
00700E00
000FF000
000FF000
ENDCHAR
STARTCHAR 24D8
ENCODING 9432
SWIDTH 1000 0
DWIDTH 32 0
BBX 32 33 0 -5
BITMAP
000FF000
000FF000
00700E00
01800180
078001E0
06000060
08018010
10018008
10018008
10000008
60000006
600F8006
E00F8007
80018001
80018001
80018001
80018001
80018001
80018001
80018001
E0018007
60018006
60018006
100FF008
100FF008
10000008
08000010
06000060
078001E0
01800180
00700E00
000FF000
000FF000
ENDCHAR
STARTCHAR 24D9
ENCODING 9433
SWIDTH 1000 0
DWIDTH 32 0
BBX 32 33 0 -5
BITMAP
000FF000
000FF000
00700E00
01800180
078001E0
06000060
0800E010
1000E008
1000E008
10000008
60000006
6007E006
E007E007
8000E001
8000E001
8000E001
8000E001
8000E001
8000E001
8000E001
E000E007
6000E006
6000E006
1070E008
1071E008
10718008
081F0010
06000060
078001E0
01800180
00700E00
000FF000
000FF000
ENDCHAR
STARTCHAR 24DA
ENCODING 9434
SWIDTH 1000 0
DWIDTH 32 0
BBX 32 33 0 -5
BITMAP
000FF000
000FF000
00700E00
01800180
078001E0
06000060
08180010
10F80008
10F80008
10180008
60180006
60187E06
E0187E07
80181001
80186001
80188001
80198001
80198001
801EE001
80187001
E0187807
60181806
60180E06
107E1F08
107E1F08
10000008
08000010
06000060
078001E0
01800180
00700E00
000FF000
000FF000
ENDCHAR
STARTCHAR 24DB
ENCODING 9435
SWIDTH 1000 0
DWIDTH 32 0
BBX 32 33 0 -5
BITMAP
000FF000
000FF000
00700E00
01800180
078001E0
06000060
08078010
10018008
10018008
10018008
60018006
60018006
E0018007
80018001
80018001
80018001
80018001
80018001
80018001
80018001
E0018007
60018006
60018006
100FF008
100FF008
10000008
08000010
06000060
078001E0
01800180
00700E00
000FF000
000FF000
ENDCHAR
STARTCHAR 24DC
ENCODING 9436
SWIDTH 1000 0
DWIDTH 32 0
BBX 32 33 0 -5
BITMAP
000FF000
000FF000
00700E00
01800180
078001E0
06000060
08000010
10000008
10000008
10000008
60000006
60EE1806
E1FF7E07
81F16601
80E18701
80E18701
80E18701
80E18701
80E18701
80E18701
E0E18707
60E18706
60E18706
11F7EF88
11F7EF88
10000008
08000010
06000060
078001E0
01800180
00700E00
000FF000
000FF000
ENDCHAR
STARTCHAR 24DD
ENCODING 9437
SWIDTH 1000 0
DWIDTH 32 0
BBX 32 33 0 -5
BITMAP
000FF000
000FF000
00700E00
01800180
078001E0
06000060
08000010
10000008
10000008
10000008
60000006
6077F006
E0FFF807
80F81801
80700E01
80700E01
80700E01
80700E01
80700E01
80700E01
E0700E07
60700E06
60700E06
10F81F08
10F81F08
10000008
08000010
06000060
078001E0
01800180
00700E00
000FF000
000FF000
ENDCHAR
STARTCHAR 24DE
ENCODING 9438
SWIDTH 1000 0
DWIDTH 32 0
BBX 32 33 0 -5
BITMAP
000FF000
000FF000
00700E00
01800180
078001E0
06000060
08000010
10000008
10000008
10000008
60000006
600FF006
E01FF807
80181801
80181801
80700E01
80700E01
80700E01
80700E01
80700E01
E0781E07
60181806
60181806
100FF008
100FF008
10000008
08000010
06000060
078001E0
01800180
00700E00
000FF000
000FF000
ENDCHAR
STARTCHAR 24DF
ENCODING 9439
SWIDTH 1000 0
DWIDTH 32 0
BBX 32 33 0 -5
BITMAP
000FF000
000FF000
00700E00
01800180
078001E0
06000060
08000010
10000008
10000008
10000008
60000006
6019F806
E0FFFE07
80FE0E01
80180E01
80180701
80180701
80180701
80180701
80180E01
E01E0E07
601E0E06
6019F806
10180008
10180008
10180008
087E0010
06000060
078001E0
01800180
00700E00
000FF000
000FF000
ENDCHAR
STARTCHAR 24E0
ENCODING 9440
SWIDTH 1000 0
DWIDTH 32 0
BBX 32 33 0 -5
BITMAP
000FF000
000FF000
00700E00
01800180
078001E0
06000060
08000010
10000008
10000008
10000008
60000006
601F8806
E07FF807
80707801
80701801
80E01801
80E01801
80E01801
80E01801
80701801
E0707807
60707806
601F9806
10001808
10001808
10001808
08007E10
06000060
078001E0
01800180
00700E00
000FF000
000FF000
ENDCHAR
STARTCHAR 24E1
ENCODING 9441
SWIDTH 1000 0
DWIDTH 32 0
BBX 32 33 0 -5
BITMAP
000FF000
000FF000
00700E00
01800180
078001E0
06000060
08000010
10000008
10000008
10000008
60000006
600E7806
E01EFE07
801E8E01
800F0E01
800E0001
800E0001
800E0001
800E0001
800E0001
E00E0007
600E0006
600E0006
101F0008
101F0008
10000008
08000010
06000060
078001E0
01800180
00700E00
000FF000
000FF000
ENDCHAR
STARTCHAR 24E2
ENCODING 9442
SWIDTH 1000 0
DWIDTH 32 0
BBX 32 33 0 -5
BITMAP
000FF000
000FF000
00700E00
01800180
078001E0
06000060
08000010
10000008
10000008
10000008
60000006
600FE806
E01FF807
801E1801
80180801
801E0001
801F8001
800F8001
8001F001
80007801
E0107807
60101806
60187806
1017F008
1017F008
10000008
08000010
06000060
078001E0
01800180
00700E00
000FF000
000FF000
ENDCHAR
STARTCHAR 24E3
ENCODING 9443
SWIDTH 1000 0
DWIDTH 32 0
BBX 32 33 0 -5
BITMAP
000FF000
000FF000
00700E00
01800180
078001E0
06000060
08070010
10070008
10070008
10070008
60070006
607FF006
E07FF007
80070001
80070001
80070001
80070001
80070001
80070001
80070001
E0070607
60070606
60018806
1000F008
1000F008
10000008
08000010
06000060
078001E0
01800180
00700E00
000FF000
000FF000
ENDCHAR
STARTCHAR 24E4
ENCODING 9444
SWIDTH 1000 0
DWIDTH 32 0
BBX 32 33 0 -5
BITMAP
000FF000
000FF000
00700E00
01800180
078001E0
06000060
08000010
10000008
10000008
10000008
60000006
60181806
E0787807
80787801
80181801
80181801
80181801
80181801
80181801
80181801
E0181807
60181806
600E7806
10079E08
10079E08
10000008
08000010
06000060
078001E0
01800180
00700E00
000FF000
000FF000
ENDCHAR
STARTCHAR 24E5
ENCODING 9445
SWIDTH 1000 0
DWIDTH 32 0
BBX 32 33 0 -5
BITMAP
000FF000
000FF000
00700E00
01800180
078001E0
06000060
08000010
10000008
10000008
10000008
60000006
60FF1F86
E0FF1F87
80180601
80180801
800E0801
800E1801
800E1001
80071001
80076001
E007E007
6001E006
60018006
10008008
10008008
10000008
08000010
06000060
078001E0
01800180
00700E00
000FF000
000FF000
ENDCHAR
STARTCHAR 24E6
ENCODING 9446
SWIDTH 1000 0
DWIDTH 32 0
BBX 32 33 0 -5
BITMAP
000FF000
000FF000
00700E00
01800180
078001E0
06000060
08000010
10000008
10000008
10000008
60000006
67E7E7E6
E7E7E7E7
81818181
81818101
80E7E701
80E7E701
80E6E601
80EEEE01
80787801
E0787807
60787806
60101006
10101008
10101008
10000008
08000010
06000060
078001E0
01800180
00700E00
000FF000
000FF000
ENDCHAR
STARTCHAR 24E7
ENCODING 9447
SWIDTH 1000 0
DWIDTH 32 0
BBX 32 33 0 -5
BITMAP
000FF000
000FF000
00700E00
01800180
078001E0
06000060
08000010
10000008
10000008
10000008
60000006
60FE1F06
E0FE1F07
80180801
800E1001
80076001
8007E001
80018001
8001E001
80067001
E00E7807
60081806
60100E06
10F81F88
10F81F88
10000008
08000010
06000060
078001E0
01800180
00700E00
000FF000
000FF000
ENDCHAR
STARTCHAR 24E8
ENCODING 9448
SWIDTH 1000 0
DWIDTH 32 0
BBX 32 33 0 -5
BITMAP
000FF000
000FF000
00700E00
01800180
078001E0
06000060
08000010
10000008
10000008
10000008
60000006
607E7F06
E07E7F07
80180801
800E0801
800E1001
800F1001
80071001
80076001
8001E001
E001E007
60008006
60008006
10E10008
10E70008
10E60008
08780010
06000060
078001E0
01800180
00700E00
000FF000
000FF000
ENDCHAR
STARTCHAR 24E9
ENCODING 9449
SWIDTH 1000 0
DWIDTH 32 0
BBX 32 33 0 -5
BITMAP
000FF000
000FF000
00700E00
01800180
078001E0
06000060
08000010
10000008
10000008
10000008
60000006
607FFE06
E07FFE07
80601801
80807001
8000E001
8001E001
80018001
80070001
800E0001
E01E0107
60180106
60700606
10FFFE08
10FFFE08
10000008
08000010
06000060
078001E0
01800180
00700E00
000FF000
000FF000
ENDCHAR
STARTCHAR 24EB
ENCODING 9451
SWIDTH 1000 0
DWIDTH 32 0
BBX 32 33 0 -5
BITMAP
000FF000
000FF000
007FFE00
01FFFF80
07FFFFE0
07FFFFE0
0FFFFFF0
1FEFF9F8
1FEFF9F8
1F8FF1F8
7E0F81FE
7F8FF1FE
FF8FF1FF
FF8FF1FF
FF8FF1FF
FF8FF1FF
FF8FF1FF
FF8FF1FF
FF8FF1FF
FF8FF1FF
FF8FF1FF
7F8FF1FE
7F8FF1FE
1F8FF1F8
1F8FF1F8
1E018078
0FFFFFF0
07FFFFE0
07FFFFE0
01FFFF80
007FFE00
000FF000
000FF000
ENDCHAR
STARTCHAR 24EC
ENCODING 9452
SWIDTH 1000 0
DWIDTH 32 0
BBX 32 33 0 -5
BITMAP
000FF000
000FF000
007FFE00
01FFFF80
07FFFFE0
07FFFFE0
0FFFFFF0
1FEFE1F8
1FEFE9F8
1F8F88F8
7E0F1E7E
7F8F1E7E
FF8FFE7F
FF8FFE7F
FF8FFE7F
FF8FF8FF
FF8FF9FF
FF8FF9FF
FF8FF1FF
FF8FE7FF
FF8FEFFF
7F8F8F7E
7F8F9F7E
1F8F0078
1F8F0078
1E010078
0FFFFFF0
07FFFFE0
07FFFFE0
01FFFF80
007FFE00
000FF000
000FF000
ENDCHAR
STARTCHAR 24ED
ENCODING 9453
SWIDTH 1000 0
DWIDTH 32 0
BBX 32 33 0 -5
BITMAP
000FF000
000FF000
007FFE00
01FFFF80
07FFFFE0
07FFFFE0
0FFFFFF0
1FEFE1F8
1FEFE9F8
1F8F88F8
7E0F1E7E
7F8F1E7E
FF8FFE7F
FF8FFE7F
FF8FFEFF
FF8FE1FF
FF8FF9FF
FF8FF8FF
FF8FFE7F
FF8F1E7F
FF8F1E7F
7F8F1E7E
7F8F1E7E
1F8F88F8
1F8FE9F8
1E01E1F8
0FFFFFF0
07FFFFE0
07FFFFE0
01FFFF80
007FFE00
000FF000
000FF000
ENDCHAR
STARTCHAR 24EE
ENCODING 9454
SWIDTH 1000 0
DWIDTH 32 0
BBX 32 33 0 -5
BITMAP
000FF000
000FF000
007FFE00
01FFFF80
07FFFFE0
07FFFFE0
0FFFFFF0
1FEFF0F8
1FEFF0F8
1F8FF0F8
7E0FE8FE
7F8FE8FE
FF8FF8FF
FF8F98FF
FF8F98FF
FF8F98FF
FF8FF8FF
FF8F78FF
FF8F78FF
FF8F007F
FF8FF8FF
7F8FF8FE
7F8FF8FE
1F8FF8F8
1F8FF8F8
1E01F078
0FFFFFF0
07FFFFE0
07FFFFE0
01FFFF80
007FFE00
000FF000
000FF000
ENDCHAR
STARTCHAR 24EF
ENCODING 9455
SWIDTH 1000 0
DWIDTH 32 0
BBX 32 33 0 -5
BITMAP
000FF000
000FF000
007FFE00
01FFFF80
07FFFFE0
07FFFFE0
0FFFFFF0
1FEF80F8
1FEF80F8
1F8F80F8
7E0F9FFE
7F8F9FFE
FF8F9FFF
FF8F9FFF
FF8F81FF
FF8F98FF
FF8FFEFF
FF8FFE7F
FF8FFE7F
FF8F1E7F
FF8F1E7F
7F8F1E7E
7F8F1E7E
1F8F88F8
1F8FE9F8
1E01E1F8
0FFFFFF0
07FFFFE0
07FFFFE0
01FFFF80
007FFE00
000FF000
000FF000
ENDCHAR
STARTCHAR 24F0
ENCODING 9456
SWIDTH 1000 0
DWIDTH 32 0
BBX 32 33 0 -5
BITMAP
000FF000
000FF000
007FFE00
01FFFF80
07FFFFE0
07FFFFE0
0FFFFFF0
1FEFE1F8
1FEFE9F8
1F8F88F8
7E0F1E7E
7F8F1E7E
FF8F1FFF
FF8F1FFF
FF8F01FF
FF8F08FF
FF8F1EFF
FF8F1E7F
FF8F1E7F
FF8F1E7F
FF8F1E7F
7F8F1E7E
7F8F1E7E
1F8F88F8
1F8FE9F8
1E01E1F8
0FFFFFF0
07FFFFE0
07FFFFE0
01FFFF80
007FFE00
000FF000
000FF000
ENDCHAR
STARTCHAR 24F1
ENCODING 9457
SWIDTH 1000 0
DWIDTH 32 0
BBX 32 33 0 -5
BITMAP
000FF000
000FF000
007FFE00
01FFFF80
07FFFFE0
07FFFFE0
0FFFFFF0
1FEF0078
1FEF0078
1F8F0078
7E0F7F7E
7F8F7EFE
FF8FFEFF
FF8FFEFF
FF8FF8FF
FF8FF9FF
FF8FF9FF
FF8FF1FF
FF8FF1FF
FF8FF7FF
FF8FF7FF
7F8FE7FE
7F8FE7FE
1F8FE7F8
1F8FE7F8
1E01E7F8
0FFFFFF0
07FFFFE0
07FFFFE0
01FFFF80
007FFE00
000FF000
000FF000
ENDCHAR
STARTCHAR 24F2
ENCODING 9458
SWIDTH 1000 0
DWIDTH 32 0
BBX 32 33 0 -5
BITMAP
000FF000
000FF000
007FFE00
01FFFF80
07FFFFE0
07FFFFE0
0FFFFFF0
1FEFE1F8
1FEFE9F8
1F8F88F8
7E0F1E7E
7F8F1E7E
FF8F1E7F
FF8F1E7F
FF8F8EFF
FF8FE1FF
FF8FF9FF
FF8F98FF
FF8F1E7F
FF8F1E7F
FF8F1E7F
7F8F1E7E
7F8F1E7E
1F8F88F8
1F8FE9F8
1E01E1F8
0FFFFFF0
07FFFFE0
07FFFFE0
01FFFF80
007FFE00
000FF000
000FF000
ENDCHAR
STARTCHAR 24F3
ENCODING 9459
SWIDTH 1000 0
DWIDTH 32 0
BBX 32 33 0 -5
BITMAP
000FF000
000FF000
007FFE00
01FFFF80
07FFFFE0
07FFFFE0
0FFFFFF0
1FEFE1F8
1FEFE9F8
1F8F88F8
7E0F1E7E
7F8F1E7E
FF8F1E7F
FF8F1E7F
FF8F1E7F
FF8F1E7F
FF8F9E7F
FF8F887F
FF8FE07F
FF8FFE7F
FF8FFE7F
7F8F1E7E
7F8F1E7E
1F8F88F8
1F8FE9F8
1E01E1F8
0FFFFFF0
07FFFFE0
07FFFFE0
01FFFF80
007FFE00
000FF000
000FF000
ENDCHAR
STARTCHAR 24F4
ENCODING 9460
SWIDTH 1000 0
DWIDTH 32 0
BBX 32 33 0 -5
BITMAP
000FF000
000FF000
007FFE00
01FFFF80
07FFFFE0
07FFFFE0
0FFFFFF0
1F87F0F8
1F97F6F8
1F11E678
7E78EF7E
7E788F1E
FFF88F1F
FFF88F1F
FFF88F1F
FFF18F1F
FFF78F1F
FFF78F1F
FFE78F1F
FF8F8F1F
FF9F8F1F
7F1E8F1E
7F7EEF7E
1E00E678
1E00F6F8
1E00F0F8
0FFFFFF0
07FFFFE0
07FFFFE0
01FFFF80
007FFE00
000FF000
000FF000
ENDCHAR
STARTCHAR 24F5
ENCODING 9461
SWIDTH 1000 0
DWIDTH 32 0
BBX 32 33 0 -5
BITMAP
000FF000
000FF000
00700E00
0187E180
079FF9E0
06181860
08E00710
11008088
170180E8
16018068
660F8066
68018016
E8018017
88018011
90018009
90018009
90018009
90018009
90018009
88018011
E8018017
68018016
66018066
16018068
170FF0E8
110FF088
08E00710
06181860
079FF9E0
0187E180
00700E00
000FF000
000FF000
ENDCHAR
STARTCHAR 24F6
ENCODING 9462
SWIDTH 1000 0
DWIDTH 32 0
BBX 32 33 0 -5
BITMAP
000FF000
000FF000
00700E00
0187E180
079FF9E0
06181860
08E00710
110FF088
171FF8E8
16181868
66700E66
68700E16
E8700E17
88000E11
90001809
90007009
9000F009
90008009
90010009
88060611
E80E0617
68080616
661FFE66
167FFE68
177FFEE8
11000088
08E00710
06181860
079FF9E0
0187E180
00700E00
000FF000
000FF000
ENDCHAR
STARTCHAR 24F7
ENCODING 9463
SWIDTH 1000 0
DWIDTH 32 0
BBX 32 33 0 -5
BITMAP
000FF000
000FF000
00700E00
0187E180
079FF9E0
06181860
08E00710
110FF088
171FF8E8
16181868
66700E66
68700E16
E8700E17
88000E11
90001809
9007F009
9007F809
90001809
90000E09
88000E11
E8700E17
68700E16
66700E66
16181868
171FF8E8
110FF088
08E00710
06181860
079FF9E0
0187E180
00700E00
000FF000
000FF000
ENDCHAR
STARTCHAR 24F8
ENCODING 9464
SWIDTH 1000 0
DWIDTH 32 0
BBX 32 33 0 -5
BITMAP
000FF000
000FF000
00700E00
0187E180
079FF9E0
06181860
08E00710
1100E088
1701E0E8
1601E068
6606E066
6806E016
E80EE017
8808E011
9008E009
9010E009
9010E009
9010E009
9060E009
8860E011
E8FFFE17
68FFFE16
6600E066
1600E068
1707F8E8
1107F888
08E00710
06181860
079FF9E0
0187E180
00700E00
000FF000
000FF000
ENDCHAR
STARTCHAR 24F9
ENCODING 9465
SWIDTH 1000 0
DWIDTH 32 0
BBX 32 33 0 -5
BITMAP
000FF000
000FF000
00700E00
0187E180
079FF9E0
06181860
08E00710
111FF888
171FF8E8
161FF868
66100066
68100016
E8100017
88100011
9017F009
90181809
90181E09
90100E09
90000E09
88000E11
E8700E17
68700E16
66700E66
16181868
171FF8E8
110FF088
08E00710
06181860
079FF9E0
0187E180
00700E00
000FF000
000FF000
ENDCHAR
STARTCHAR 24FA
ENCODING 9466
SWIDTH 1000 0
DWIDTH 32 0
BBX 32 33 0 -5
BITMAP
000FF000
000FF000
00700E00
0187E180
079FF9E0
06181860
08E00710
110FF088
171FF8E8
16181868
66700E66
68700E16
E8700E17
88700011
9077F009
90781809
90781E09
90700E09
90700E09
88700E11
E8700E17
68700E16
66700E66
16181868
171FF8E8
110FF088
08E00710
06181860
079FF9E0
0187E180
00700E00
000FF000
000FF000
ENDCHAR
STARTCHAR 24FB
ENCODING 9467
SWIDTH 1000 0
DWIDTH 32 0
BBX 32 33 0 -5
BITMAP
000FF000
000FF000
00700E00
0187E180
079FF9E0
06181860
08E00710
111FF888
171FF8E8
161FF868
66100866
68101016
E8101017
88001011
90006009
90006009
9000E009
9000E009
90008009
88018011
E8018017
68018016
66018066
16018068
170180E8
11018088
08E00710
06181860
079FF9E0
0187E180
00700E00
000FF000
000FF000
ENDCHAR
STARTCHAR 24FC
ENCODING 9468
SWIDTH 1000 0
DWIDTH 32 0
BBX 32 33 0 -5
BITMAP
000FF000
000FF000
00700E00
0187E180
079FF9E0
06181860
08E00710
110FF088
171FF8E8
16181868
66700E66
68700E16
E8780E17
88780E11
901F1809
900FF009
901FF809
9018F809
90701E09
88700E11
E8700E17
68700E16
66700E66
16181868
171FF8E8
110FF088
08E00710
06181860
079FF9E0
0187E180
00700E00
000FF000
000FF000
ENDCHAR
STARTCHAR 24FD
ENCODING 9469
SWIDTH 1000 0
DWIDTH 32 0
BBX 32 33 0 -5
BITMAP
000FF000
000FF000
00700E00
0187E180
079FF9E0
06181860
08E00710
110FF088
171FF8E8
16181868
66700E66
68700E16
E8700E17
88700E11
90700E09
90181E09
901FFE09
900FEE09
90000E09
88000E11
E8700E17
68700E16
66700E66
16181868
171FF8E8
110FF088
08E00710
06181860
079FF9E0
0187E180
00700E00
000FF000
000FF000
ENDCHAR
STARTCHAR 24FE
ENCODING 9470
SWIDTH 1000 0
DWIDTH 32 0
BBX 32 33 0 -5
BITMAP
000FF000
000FF000
00700E00
0187E180
079FF9E0
06181860
08E00710
11081888
17187EE8
16186668
66F86666
6818E716
E818E717
8818E711
9018E709
9018E709
9018E709
9018E709
9018E709
8818E711
E818E717
68186616
66186666
16FF1868
17FF18E8
11000088
08E00710
06181860
079FF9E0
0187E180
00700E00
000FF000
000FF000
ENDCHAR
STARTCHAR 2500
ENCODING 9472
SWIDTH 1000 0
DWIDTH 32 0
BBX 32 2 0 11
BITMAP
FFFFFFFF
FFFFFFFF
ENDCHAR
STARTCHAR 2501
ENCODING 9473
SWIDTH 1000 0
DWIDTH 32 0
BBX 32 4 0 10
BITMAP
FFFFFFFF
FFFFFFFF
FFFFFFFF
FFFFFFFF
ENDCHAR
STARTCHAR 2502
ENCODING 9474
SWIDTH 1000 0
DWIDTH 32 0
BBX 1 33 15 -5
BITMAP
80
80
80
80
80
80
80
80
80
80
80
80
80
80
80
80
80
80
80
80
80
80
80
80
80
80
80
80
80
80
80
80
80
ENDCHAR
STARTCHAR 2503
ENCODING 9475
SWIDTH 1000 0
DWIDTH 32 0
BBX 4 33 13 -5
BITMAP
F0
F0
F0
F0
F0
F0
F0
F0
F0
F0
F0
F0
F0
F0
F0
F0
F0
F0
F0
F0
F0
F0
F0
F0
F0
F0
F0
F0
F0
F0
F0
F0
F0
ENDCHAR
STARTCHAR 250C
ENCODING 9484
SWIDTH 1000 0
DWIDTH 32 0
BBX 17 18 15 -5
BITMAP
FFFF80
FFFF80
800000
800000
800000
800000
800000
800000
800000
800000
800000
800000
800000
800000
800000
800000
800000
800000
ENDCHAR
STARTCHAR 250F
ENCODING 9487
SWIDTH 1000 0
DWIDTH 32 0
BBX 19 19 13 -5
BITMAP
FFFFE0
FFFFE0
FFFFE0
FFFFE0
F00000
F00000
F00000
F00000
F00000
F00000
F00000
F00000
F00000
F00000
F00000
F00000
F00000
F00000
F00000
ENDCHAR
STARTCHAR 2510
ENCODING 9488
SWIDTH 1000 0
DWIDTH 32 0
BBX 16 18 0 -5
BITMAP
FFFF
FFFF
0001
0001
0001
0001
0001
0001
0001
0001
0001
0001
0001
0001
0001
0001
0001
0001
ENDCHAR
STARTCHAR 2513
ENCODING 9491
SWIDTH 1000 0
DWIDTH 32 0
BBX 17 19 0 -5
BITMAP
FFFF80
FFFF80
FFFF80
FFFF80
000780
000780
000780
000780
000780
000780
000780
000780
000780
000780
000780
000780
000780
000780
000780
ENDCHAR
STARTCHAR 2514
ENCODING 9492
SWIDTH 1000 0
DWIDTH 32 0
BBX 17 17 15 11
BITMAP
800000
800000
800000
800000
800000
800000
800000
800000
800000
800000
800000
800000
800000
800000
800000
FFFF80
FFFF80
ENDCHAR
STARTCHAR 2517
ENCODING 9495
SWIDTH 1000 0
DWIDTH 32 0
BBX 19 18 13 10
BITMAP
F00000
F00000
F00000
F00000
F00000
F00000
F00000
F00000
F00000
F00000
F00000
F00000
F00000
F00000
FFFFE0
FFFFE0
FFFFE0
FFFFE0
ENDCHAR
STARTCHAR 2518
ENCODING 9496
SWIDTH 1000 0
DWIDTH 32 0
BBX 16 17 0 11
BITMAP
0001
0001
0001
0001
0001
0001
0001
0001
0001
0001
0001
0001
0001
0001
0001
FFFF
FFFF
ENDCHAR
STARTCHAR 251B
ENCODING 9499
SWIDTH 1000 0
DWIDTH 32 0
BBX 17 18 0 10
BITMAP
000780
000780
000780
000780
000780
000780
000780
000780
000780
000780
000780
000780
000780
000780
FFFF80
FFFF80
FFFF80
FFFF80
ENDCHAR
STARTCHAR 251C
ENCODING 9500
SWIDTH 1000 0
DWIDTH 32 0
BBX 17 33 15 -5
BITMAP
800000
800000
800000
800000
800000
800000
800000
800000
800000
800000
800000
800000
800000
800000
800000
FFFF80
FFFF80
800000
800000
800000
800000
800000
800000
800000
800000
800000
800000
800000
800000
800000
800000
800000
800000
ENDCHAR
STARTCHAR 251D
ENCODING 9501
SWIDTH 1000 0
DWIDTH 32 0
BBX 17 33 15 -5
BITMAP
800000
800000
800000
800000
800000
800000
800000
800000
800000
800000
800000
800000
800000
800000
FFFF80
FFFF80
FFFF80
FFFF80
800000
800000
800000
800000
800000
800000
800000
800000
800000
800000
800000
800000
800000
800000
800000
ENDCHAR
STARTCHAR 2520
ENCODING 9504
SWIDTH 1000 0
DWIDTH 32 0
BBX 19 33 13 -5
BITMAP
F00000
F00000
F00000
F00000
F00000
F00000
F00000
F00000
F00000
F00000
F00000
F00000
F00000
F00000
F00000
FFFFE0
FFFFE0
F00000
F00000
F00000
F00000
F00000
F00000
F00000
F00000
F00000
F00000
F00000
F00000
F00000
F00000
F00000
F00000
ENDCHAR
STARTCHAR 2523
ENCODING 9507
SWIDTH 1000 0
DWIDTH 32 0
BBX 19 33 13 -5
BITMAP
F00000
F00000
F00000
F00000
F00000
F00000
F00000
F00000
F00000
F00000
F00000
F00000
F00000
F00000
FFFFE0
FFFFE0
FFFFE0
FFFFE0
F00000
F00000
F00000
F00000
F00000
F00000
F00000
F00000
F00000
F00000
F00000
F00000
F00000
F00000
F00000
ENDCHAR
STARTCHAR 2524
ENCODING 9508
SWIDTH 1000 0
DWIDTH 32 0
BBX 16 33 0 -5
BITMAP
0001
0001
0001
0001
0001
0001
0001
0001
0001
0001
0001
0001
0001
0001
0001
FFFF
FFFF
0001
0001
0001
0001
0001
0001
0001
0001
0001
0001
0001
0001
0001
0001
0001
0001
ENDCHAR
STARTCHAR 2525
ENCODING 9509
SWIDTH 1000 0
DWIDTH 32 0
BBX 16 33 0 -5
BITMAP
0001
0001
0001
0001
0001
0001
0001
0001
0001
0001
0001
0001
0001
0001
FFFF
FFFF
FFFF
FFFF
0001
0001
0001
0001
0001
0001
0001
0001
0001
0001
0001
0001
0001
0001
0001
ENDCHAR
STARTCHAR 2528
ENCODING 9512
SWIDTH 1000 0
DWIDTH 32 0
BBX 17 33 0 -5
BITMAP
000780
000780
000780
000780
000780
000780
000780
000780
000780
000780
000780
000780
000780
000780
000780
FFFF80
FFFF80
000780
000780
000780
000780
000780
000780
000780
000780
000780
000780
000780
000780
000780
000780
000780
000780
ENDCHAR
STARTCHAR 252B
ENCODING 9515
SWIDTH 1000 0
DWIDTH 32 0
BBX 17 33 0 -5
BITMAP
000780
000780
000780
000780
000780
000780
000780
000780
000780
000780
000780
000780
000780
000780
FFFF80
FFFF80
FFFF80
FFFF80
000780
000780
000780
000780
000780
000780
000780
000780
000780
000780
000780
000780
000780
000780
000780
ENDCHAR
STARTCHAR 252C
ENCODING 9516
SWIDTH 1000 0
DWIDTH 32 0
BBX 32 18 0 -5
BITMAP
FFFFFFFF
FFFFFFFF
00010000
00010000
00010000
00010000
00010000
00010000
00010000
00010000
00010000
00010000
00010000
00010000
00010000
00010000
00010000
00010000
ENDCHAR
STARTCHAR 252F
ENCODING 9519
SWIDTH 1000 0
DWIDTH 32 0
BBX 32 19 0 -5
BITMAP
FFFFFFFF
FFFFFFFF
FFFFFFFF
FFFFFFFF
00010000
00010000
00010000
00010000
00010000
00010000
00010000
00010000
00010000
00010000
00010000
00010000
00010000
00010000
00010000
ENDCHAR
STARTCHAR 2530
ENCODING 9520
SWIDTH 1000 0
DWIDTH 32 0
BBX 32 18 0 -5
BITMAP
FFFFFFFF
FFFFFFFF
00078000
00078000
00078000
00078000
00078000
00078000
00078000
00078000
00078000
00078000
00078000
00078000
00078000
00078000
00078000
00078000
ENDCHAR
STARTCHAR 2533
ENCODING 9523
SWIDTH 1000 0
DWIDTH 32 0
BBX 32 19 0 -5
BITMAP
FFFFFFFF
FFFFFFFF
FFFFFFFF
FFFFFFFF
00078000
00078000
00078000
00078000
00078000
00078000
00078000
00078000
00078000
00078000
00078000
00078000
00078000
00078000
00078000
ENDCHAR
STARTCHAR 2534
ENCODING 9524
SWIDTH 1000 0
DWIDTH 32 0
BBX 32 17 0 11
BITMAP
00010000
00010000
00010000
00010000
00010000
00010000
00010000
00010000
00010000
00010000
00010000
00010000
00010000
00010000
00010000
FFFFFFFF
FFFFFFFF
ENDCHAR
STARTCHAR 2537
ENCODING 9527
SWIDTH 1000 0
DWIDTH 32 0
BBX 32 18 0 10
BITMAP
00010000
00010000
00010000
00010000
00010000
00010000
00010000
00010000
00010000
00010000
00010000
00010000
00010000
00010000
FFFFFFFF
FFFFFFFF
FFFFFFFF
FFFFFFFF
ENDCHAR
STARTCHAR 2538
ENCODING 9528
SWIDTH 1000 0
DWIDTH 32 0
BBX 32 17 0 11
BITMAP
00078000
00078000
00078000
00078000
00078000
00078000
00078000
00078000
00078000
00078000
00078000
00078000
00078000
00078000
00078000
FFFFFFFF
FFFFFFFF
ENDCHAR
STARTCHAR 253B
ENCODING 9531
SWIDTH 1000 0
DWIDTH 32 0
BBX 32 18 0 10
BITMAP
00078000
00078000
00078000
00078000
00078000
00078000
00078000
00078000
00078000
00078000
00078000
00078000
00078000
00078000
FFFFFFFF
FFFFFFFF
FFFFFFFF
FFFFFFFF
ENDCHAR
STARTCHAR 253C
ENCODING 9532
SWIDTH 1000 0
DWIDTH 32 0
BBX 32 33 0 -5
BITMAP
00010000
00010000
00010000
00010000
00010000
00010000
00010000
00010000
00010000
00010000
00010000
00010000
00010000
00010000
00010000
FFFFFFFF
FFFFFFFF
00010000
00010000
00010000
00010000
00010000
00010000
00010000
00010000
00010000
00010000
00010000
00010000
00010000
00010000
00010000
00010000
ENDCHAR
STARTCHAR 253F
ENCODING 9535
SWIDTH 1000 0
DWIDTH 32 0
BBX 32 33 0 -5
BITMAP
00010000
00010000
00010000
00010000
00010000
00010000
00010000
00010000
00010000
00010000
00010000
00010000
00010000
00010000
FFFFFFFF
FFFFFFFF
FFFFFFFF
FFFFFFFF
00010000
00010000
00010000
00010000
00010000
00010000
00010000
00010000
00010000
00010000
00010000
00010000
00010000
00010000
00010000
ENDCHAR
STARTCHAR 2542
ENCODING 9538
SWIDTH 1000 0
DWIDTH 32 0
BBX 32 33 0 -5
BITMAP
00078000
00078000
00078000
00078000
00078000
00078000
00078000
00078000
00078000
00078000
00078000
00078000
00078000
00078000
00078000
FFFFFFFF
FFFFFFFF
00078000
00078000
00078000
00078000
00078000
00078000
00078000
00078000
00078000
00078000
00078000
00078000
00078000
00078000
00078000
00078000
ENDCHAR
STARTCHAR 254B
ENCODING 9547
SWIDTH 1000 0
DWIDTH 32 0
BBX 32 33 0 -5
BITMAP
00078000
00078000
00078000
00078000
00078000
00078000
00078000
00078000
00078000
00078000
00078000
00078000
00078000
00078000
FFFFFFFF
FFFFFFFF
FFFFFFFF
FFFFFFFF
00078000
00078000
00078000
00078000
00078000
00078000
00078000
00078000
00078000
00078000
00078000
00078000
00078000
00078000
00078000
ENDCHAR
STARTCHAR 25A0
ENCODING 9632
SWIDTH 1000 0
DWIDTH 32 0
BBX 30 29 1 -3
BITMAP
FFFFFFFC
FFFFFFFC
FFFFFFFC
FFFFFFFC
FFFFFFFC
FFFFFFFC
FFFFFFFC
FFFFFFFC
FFFFFFFC
FFFFFFFC
FFFFFFFC
FFFFFFFC
FFFFFFFC
FFFFFFFC
FFFFFFFC
FFFFFFFC
FFFFFFFC
FFFFFFFC
FFFFFFFC
FFFFFFFC
FFFFFFFC
FFFFFFFC
FFFFFFFC
FFFFFFFC
FFFFFFFC
FFFFFFFC
FFFFFFFC
FFFFFFFC
FFFFFFFC
ENDCHAR
STARTCHAR 25A1
ENCODING 9633
SWIDTH 1000 0
DWIDTH 32 0
BBX 30 29 1 -3
BITMAP
FFFFFFFC
C000000C
C000000C
C000000C
C000000C
C000000C
C000000C
C000000C
C000000C
C000000C
C000000C
C000000C
C000000C
C000000C
C000000C
C000000C
C000000C
C000000C
C000000C
C000000C
C000000C
C000000C
C000000C
C000000C
C000000C
C000000C
C000000C
C000000C
FFFFFFFC
ENDCHAR
STARTCHAR 25B1
ENCODING 9649
SWIDTH 1000 0
DWIDTH 32 0
BBX 30 13 1 5
BITMAP
01FFFFFC
02000010
02000010
02000010
0C000020
0C000020
1C0000E0
100000C0
100000C0
20000100
20000100
20000100
FFFFFE00
ENDCHAR
STARTCHAR 25B2
ENCODING 9650
SWIDTH 1000 0
DWIDTH 32 0
BBX 30 25 1 -1
BITMAP
00020000
00020000
000F0000
000F0000
001FC000
001FC000
001FC000
003FE000
003FF000
003FF000
00FFF000
00FFFC00
01FFFC00
01FFFC00
01FFFE00
03FFFF00
0FFFFF00
0FFFFF00
0FFFFFC0
1FFFFFE0
1FFFFFE0
1FFFFFE0
3FFFFFF0
FFFFFFFC
FFFFFFFC
ENDCHAR
STARTCHAR 25B3
ENCODING 9651
SWIDTH 1000 0
DWIDTH 32 0
BBX 30 25 1 -1
BITMAP
00020000
00020000
000D0000
000D0000
001DC000
0010C000
0010C000
00202000
00203000
00201000
00C01000
00C00C00
01C00C00
01000C00
01000200
02000100
0E000100
0C000100
0C0000C0
10000020
10000020
10000020
20000010
FFFFFFFC
FFFFFFFC
ENDCHAR
STARTCHAR 25B6
ENCODING 9654
SWIDTH 1000 0
DWIDTH 32 0
BBX 24 29 4 -3
BITMAP
800000
E00000
F80000
F80000
FF0000
FF8000
FFF000
FFF000
FFFE00
FFFF80
FFFFF0
FFFFF0
FFFFFE
FFFFFF
FFFFFF
FFFFFE
FFFFF0
FFFF80
FFFF80
FFFF00
FFF800
FFE000
FFE000
FF8000
FE0000
F80000
F80000
E00000
800000
ENDCHAR
STARTCHAR 25B7
ENCODING 9655
SWIDTH 1000 0
DWIDTH 32 0
BBX 24 29 4 -3
BITMAP
800000
E00000
F80000
980000
870000
808000
80F000
807000
800E00
800180
8001F0
800070
80000E
800001
80000F
80000E
800070
800080
800780
800700
801800
806000
81E000
818000
860000
980000
F80000
E00000
800000
ENDCHAR
STARTCHAR 25BC
ENCODING 9660
SWIDTH 1000 0
DWIDTH 32 0
BBX 30 25 1 -1
BITMAP
FFFFFFFC
FFFFFFFC
3FFFFFF0
1FFFFFE0
1FFFFFE0
1FFFFFE0
0FFFFFC0
0FFFFF00
0FFFFF00
03FFFF00
01FFFE00
01FFFC00
01FFFC00
00FFFC00
00FFF000
003FF000
003FF000
003FE000
001FC000
001FC000
001FC000
000F0000
000F0000
00020000
00020000
ENDCHAR
STARTCHAR 25BD
ENCODING 9661
SWIDTH 1000 0
DWIDTH 32 0
BBX 30 25 1 -1
BITMAP
FFFFFFFC
FFFFFFFC
20000010
10000020
10000020
10000020
0C0000C0
0C000100
0E000100
02000100
01000200
01000C00
01C00C00
00C00C00
00C01000
00201000
00203000
00202000
0010C000
0010C000
001DC000
000D0000
000D0000
00020000
00020000
ENDCHAR
STARTCHAR 25C0
ENCODING 9664
SWIDTH 1000 0
DWIDTH 32 0
BBX 24 29 4 -3
BITMAP
000001
000007
00001F
00001F
0000FF
0001FF
000FFF
000FFF
007FFF
01FFFF
0FFFFF
0FFFFF
7FFFFF
FFFFFF
FFFFFF
7FFFFF
0FFFFF
01FFFF
01FFFF
00FFFF
001FFF
0007FF
0007FF
0001FF
00007F
00001F
00001F
000007
000001
ENDCHAR
STARTCHAR 25C1
ENCODING 9665
SWIDTH 1000 0
DWIDTH 32 0
BBX 24 29 4 -3
BITMAP
000001
000007
00001F
000019
0000E1
000101
000F01
000E01
007001
018001
0F8001
0E0001
700001
800001
F00001
700001
0E0001
010001
01E001
00E001
001801
000601
000781
000181
000061
000019
00001F
000007
000001
ENDCHAR
STARTCHAR 25C6
ENCODING 9670
SWIDTH 1000 0
DWIDTH 32 0
BBX 32 33 0 -5
BITMAP
00018000
00018000
0007E000
000FF000
001FF800
001FF800
007FFE00
00FFFF00
01FFFF80
01FFFF80
07FFFFE0
0FFFFFF0
1FFFFFF8
1FFFFFF8
7FFFFFFE
FFFFFFFF
FFFFFFFF
FFFFFFFF
7FFFFFFE
1FFFFFF8
1FFFFFF8
0FFFFFF0
07FFFFE0
01FFFF80
01FFFF80
00FFFF00
007FFE00
001FF800
001FF800
000FF000
0007E000
00018000
00018000
ENDCHAR
STARTCHAR 25C7
ENCODING 9671
SWIDTH 1000 0
DWIDTH 32 0
BBX 32 33 0 -5
BITMAP
00018000
00018000
00066000
00081000
00181800
00100800
00600600
00800100
01800180
01000080
06000060
08000010
18000018
10000008
60000006
80000001
80000001
80000001
60000006
10000008
18000018
08000010
06000060
01000080
01800180
00800100
00600600
00100800
00181800
00081000
00066000
00018000
00018000
ENDCHAR
STARTCHAR 25C9
ENCODING 9673
SWIDTH 1000 0
DWIDTH 32 0
BBX 30 29 1 -3
BITMAP
001FE000
00E01C00
03E01F00
03000300
0C1FE0C0
10FFFC20
11FFFE20
11FFFE20
23FFFF10
23FFFF10
EFFFFFDC
CFFFFFCC
CFFFFFCC
CFFFFFCC
CFFFFFCC
CFFFFFCC
CFFFFFCC
CFFFFFCC
EFFFFFDC
23FFFF10
23FFFF10
11FFFE20
11FFFE20
10FFFC20
0C1FE0C0
03000300
03E01F00
00E01C00
001FE000
ENDCHAR
STARTCHAR 25CB
ENCODING 9675
SWIDTH 1000 0
DWIDTH 32 0
BBX 30 29 1 -3
BITMAP
001FE000
00E01C00
03E01F00
03000300
0C0000C0
10000020
10000020
10000020
20000010
20000010
E000001C
C000000C
C000000C
C000000C
C000000C
C000000C
C000000C
C000000C
E000001C
20000010
20000010
10000020
10000020
10000020
0C0000C0
03000300
03E01F00
00E01C00
001FE000
ENDCHAR
STARTCHAR 25CE
ENCODING 9678
SWIDTH 1000 0
DWIDTH 32 0
BBX 30 29 1 -3
BITMAP
001FE000
00E01C00
03E01F00
03000300
0C0000C0
100FC020
103FF020
10303020
20C00C10
21000210
E100021C
C100020C
C200010C
C200010C
C200010C
C200010C
C200010C
C100020C
E100021C
21000210
20C00C10
10303020
103FF020
100FC020
0C0000C0
03000300
03E01F00
00E01C00
001FE000
ENDCHAR
STARTCHAR 25CF
ENCODING 9679
SWIDTH 1000 0
DWIDTH 32 0
BBX 30 29 1 -3
BITMAP
001FE000
00FFFC00
03FFFF00
03FFFF00
0FFFFFC0
1FFFFFE0
1FFFFFE0
1FFFFFE0
3FFFFFF0
3FFFFFF0
FFFFFFFC
FFFFFFFC
FFFFFFFC
FFFFFFFC
FFFFFFFC
FFFFFFFC
FFFFFFFC
FFFFFFFC
FFFFFFFC
3FFFFFF0
3FFFFFF0
1FFFFFE0
1FFFFFE0
1FFFFFE0
0FFFFFC0
03FFFF00
03FFFF00
00FFFC00
001FE000
ENDCHAR
STARTCHAR 25D0
ENCODING 9680
SWIDTH 1000 0
DWIDTH 32 0
BBX 30 29 1 -3
BITMAP
001FE000
00FE1C00
03FE1F00
03FE0300
0FFE00C0
1FFE0020
1FFE0020
1FFE0020
3FFE0010
3FFE0010
FFFE001C
FFFE000C
FFFE000C
FFFE000C
FFFE000C
FFFE000C
FFFE000C
FFFE000C
FFFE001C
3FFE0010
3FFE0010
1FFE0020
1FFE0020
1FFE0020
0FFE00C0
03FE0300
03FE1F00
00FE1C00
001FE000
ENDCHAR
STARTCHAR 25D1
ENCODING 9681
SWIDTH 1000 0
DWIDTH 32 0
BBX 30 29 1 -3
BITMAP
001FE000
00E1FC00
03E1FF00
0301FF00
0C01FFC0
1001FFE0
1001FFE0
1001FFE0
2001FFF0
2001FFF0
E001FFFC
C001FFFC
C001FFFC
C001FFFC
C001FFFC
C001FFFC
C001FFFC
C001FFFC
E001FFFC
2001FFF0
2001FFF0
1001FFE0
1001FFE0
1001FFE0
0C01FFC0
0301FF00
03E1FF00
00E1FC00
001FE000
ENDCHAR
STARTCHAR 25D2
ENCODING 9682
SWIDTH 1000 0
DWIDTH 32 0
BBX 30 29 1 -3
BITMAP
001FE000
00E01C00
03E01F00
03000300
0C0000C0
10000020
10000020
10000020
20000010
20000010
E000001C
C000000C
C000000C
C000000C
FFFFFFFC
FFFFFFFC
FFFFFFFC
FFFFFFFC
FFFFFFFC
3FFFFFF0
3FFFFFF0
1FFFFFE0
1FFFFFE0
1FFFFFE0
0FFFFFC0
03FFFF00
03FFFF00
00FFFC00
001FE000
ENDCHAR
STARTCHAR 25D3
ENCODING 9683
SWIDTH 1000 0
DWIDTH 32 0
BBX 30 29 1 -3
BITMAP
001FE000
00FFFC00
03FFFF00
03FFFF00
0FFFFFC0
1FFFFFE0
1FFFFFE0
1FFFFFE0
3FFFFFF0
3FFFFFF0
FFFFFFFC
FFFFFFFC
FFFFFFFC
FFFFFFFC
FFFFFFFC
C000000C
C000000C
C000000C
E000001C
20000010
20000010
10000020
10000020
10000020
0C0000C0
03000300
03E01F00
00E01C00
001FE000
ENDCHAR
STARTCHAR 25E6
ENCODING 9702
SWIDTH 1000 0
DWIDTH 32 0
BBX 10 11 11 6
BITMAP
3F00
7F80
4080
8040
8040
8040
8040
8040
4080
7F80
3F00
ENDCHAR
STARTCHAR 25EF
ENCODING 9711
SWIDTH 1000 0
DWIDTH 32 0
BBX 32 33 0 -5
BITMAP
000FF000
000FF000
00700E00
01800180
078001E0
06000060
08000010
10000008
10000008
10000008
60000006
60000006
E0000007
80000001
80000001
80000001
80000001
80000001
80000001
80000001
E0000007
60000006
60000006
10000008
10000008
10000008
08000010
06000060
078001E0
01800180
00700E00
000FF000
000FF000
ENDCHAR
STARTCHAR 2600
ENCODING 9728
SWIDTH 1000 0
DWIDTH 32 0
BBX 32 33 0 -5
BITMAP
00018000
00018000
00018000
08018010
1E018078
1E018078
0F0000F0
070000E0
0707E0E0
0007E000
001FF800
007FFE00
007FFE00
007FFE00
00FFFF00
F8FFFF1F
F8FFFF1F
F8FFFF1F
00FFFF00
007FFE00
007FFE00
007FFE00
001FF800
0007E000
0707E0E0
070000E0
0F0000F0
1E018078
1E018078
08018010
00018000
00018000
00018000
ENDCHAR
STARTCHAR 2601
ENCODING 9729
SWIDTH 1000 0
DWIDTH 32 0
BBX 30 23 1 -1
BITMAP
001E0000
00FFC000
01FFE000
01FFE000
01FFE000
03FFF0F0
03FFF3FC
03FFF3FC
03FFFFFC
1FFFFFFC
3FFFFFFC
3FFFFFFC
FFFFFFF0
FFFFFFE0
FFFFFFF0
FFFFFFF0
FFFEFFFC
3FFC3FFC
3FFC3FFC
1FE03FFC
00001FF0
00000FE0
00000FE0
ENDCHAR
STARTCHAR 2602
ENCODING 9730
SWIDTH 1000 0
DWIDTH 32 0
BBX 28 29 1 -3
BITMAP
00020000
00020000
003FE000
003FE000
01FFFC00
0FFFFF00
1FFFFFC0
1FFFFFC0
3FFFFFE0
3FFFFFE0
FFFFFFF0
FFFFFFF0
E3CF1E30
C1020C10
C1020C10
C1020C10
00020000
00020000
00020000
00020000
00020000
00020000
00020000
00020000
01020000
01020000
01CE0000
01CE0000
00FC0000
ENDCHAR
STARTCHAR 2603
ENCODING 9731
SWIDTH 1000 0
DWIDTH 32 0
BBX 32 31 0 -3
BITMAP
00801808
00801808
01687F16
0886FF88
1E8FFFE8
160FFFE0
0870FFE0
00807F80
61807FF6
61000FF6
910E7089
610E7086
610E7086
01000080
110E7088
7887E11E
7F87E1FE
0F8001F0
06000060
68000010
F8018018
90018008
70018008
10000008
10000008
10000008
08018010
08018010
0F0180F0
070000E0
00FFFF00
ENDCHAR
ENDFONT
